STARTFONT 2.1
COMMENT
COMMENT Converted from OpenType font "UbuntuMono-Bold.ttf" by "otf2bdf 3.0".
COMMENT
FONT -FreeType-Ubuntu Mono-Bold-R-Normal--17-120-100-100-P-78-ISO10646-1
SIZE 12 100 100
FONTBOUNDINGBOX 17 18 -6 -3
STARTPROPERTIES 19
FOUNDRY "FreeType"
FAMILY_NAME "Ubuntu Mono"
WEIGHT_NAME "Bold"
SLANT "R"
SETWIDTH_NAME "Normal"
ADD_STYLE_NAME ""
PIXEL_SIZE 17
POINT_SIZE 120
RESOLUTION_X 100
RESOLUTION_Y 100
SPACING "P"
AVERAGE_WIDTH 78
CHARSET_REGISTRY "ISO10646"
CHARSET_ENCODING "1"
FONT_ASCENT 14
FONT_DESCENT 2
COPYRIGHT "Copyright 2011 Canonical Ltd.  Licensed under the Ubuntu Font Licence 1.0"
_OTF_FONTFILE "UbuntuMono-Bold.ttf"
_OTF_PSNAME "UbuntuMono-Bold"
ENDPROPERTIES
CHARS 1224
STARTCHAR 0000
ENCODING 0
SWIDTH 540 0
DWIDTH 9 0
BBX 0 0 0 0
BITMAP
ENDCHAR
STARTCHAR 0008
ENCODING 8
SWIDTH 540 0
DWIDTH 9 0
BBX 0 0 0 0
BITMAP
ENDCHAR
STARTCHAR 0009
ENCODING 9
SWIDTH 540 0
DWIDTH 9 0
BBX 0 0 0 0
BITMAP
ENDCHAR
STARTCHAR 000D
ENCODING 13
SWIDTH 540 0
DWIDTH 9 0
BBX 0 0 0 0
BITMAP
ENDCHAR
STARTCHAR 001D
ENCODING 29
SWIDTH 540 0
DWIDTH 9 0
BBX 0 0 0 0
BITMAP
ENDCHAR
STARTCHAR 0020
ENCODING 32
SWIDTH 540 0
DWIDTH 9 0
BBX 0 0 0 0
BITMAP
ENDCHAR
STARTCHAR 0021
ENCODING 33
SWIDTH 540 0
DWIDTH 9 0
BBX 2 11 3 0
BITMAP
C0
C0
C0
C0
C0
C0
C0
C0
00
C0
C0
ENDCHAR
STARTCHAR 0022
ENCODING 34
SWIDTH 540 0
DWIDTH 9 0
BBX 6 5 1 7
BITMAP
EC
6C
6C
4C
4C
ENDCHAR
STARTCHAR 0023
ENCODING 35
SWIDTH 540 0
DWIDTH 9 0
BBX 8 11 0 0
BITMAP
13
12
32
FF
FF
36
FF
FF
6C
6C
6C
ENDCHAR
STARTCHAR 0024
ENCODING 36
SWIDTH 540 0
DWIDTH 9 0
BBX 7 14 1 -2
BITMAP
30
30
7E
FC
C0
E0
F8
3C
0E
86
FE
FC
30
30
ENDCHAR
STARTCHAR 0025
ENCODING 37
SWIDTH 540 0
DWIDTH 9 0
BBX 8 11 0 0
BITMAP
61
D3
D6
D4
6C
18
17
35
2D
45
C7
ENDCHAR
STARTCHAR 0026
ENCODING 38
SWIDTH 540 0
DWIDTH 9 0
BBX 8 11 0 0
BITMAP
38
7C
64
6C
38
7B
5F
CE
C6
7F
3B
ENDCHAR
STARTCHAR 0027
ENCODING 39
SWIDTH 540 0
DWIDTH 9 0
BBX 2 5 3 7
BITMAP
C0
C0
C0
C0
40
ENDCHAR
STARTCHAR 0028
ENCODING 40
SWIDTH 540 0
DWIDTH 9 0
BBX 5 15 2 -3
BITMAP
18
30
60
60
C0
C0
C0
C0
C0
C0
C0
E0
70
38
10
ENDCHAR
STARTCHAR 0029
ENCODING 41
SWIDTH 540 0
DWIDTH 9 0
BBX 5 15 2 -3
BITMAP
80
C0
60
30
30
18
18
18
18
18
30
30
60
E0
80
ENDCHAR
STARTCHAR 002A
ENCODING 42
SWIDTH 540 0
DWIDTH 9 0
BBX 7 7 1 4
BITMAP
30
30
D4
FE
38
6C
48
ENDCHAR
STARTCHAR 002B
ENCODING 43
SWIDTH 540 0
DWIDTH 9 0
BBX 7 8 1 0
BITMAP
30
30
30
FE
FE
30
30
30
ENDCHAR
STARTCHAR 002C
ENCODING 44
SWIDTH 540 0
DWIDTH 9 0
BBX 4 6 2 -3
BITMAP
60
70
70
30
60
C0
ENDCHAR
STARTCHAR 002D
ENCODING 45
SWIDTH 540 0
DWIDTH 9 0
BBX 5 2 2 3
BITMAP
F8
F8
ENDCHAR
STARTCHAR 002E
ENCODING 46
SWIDTH 540 0
DWIDTH 9 0
BBX 3 3 3 0
BITMAP
C0
E0
C0
ENDCHAR
STARTCHAR 002F
ENCODING 47
SWIDTH 540 0
DWIDTH 9 0
BBX 7 15 1 -3
BITMAP
0E
0C
0C
1C
18
18
38
30
30
30
60
60
60
C0
C0
ENDCHAR
STARTCHAR 0030
ENCODING 48
SWIDTH 540 0
DWIDTH 9 0
BBX 7 11 1 0
BITMAP
78
FC
CE
C6
F6
B6
C6
C6
CE
FC
78
ENDCHAR
STARTCHAR 0031
ENCODING 49
SWIDTH 540 0
DWIDTH 9 0
BBX 7 11 1 0
BITMAP
18
78
F8
D8
18
18
18
18
18
FE
FE
ENDCHAR
STARTCHAR 0032
ENCODING 50
SWIDTH 540 0
DWIDTH 9 0
BBX 7 11 1 0
BITMAP
78
FC
8C
0C
0C
18
30
60
C0
FE
FE
ENDCHAR
STARTCHAR 0033
ENCODING 51
SWIDTH 540 0
DWIDTH 9 0
BBX 7 11 1 0
BITMAP
78
FC
0C
0C
3C
3C
0C
06
0E
FC
F8
ENDCHAR
STARTCHAR 0034
ENCODING 52
SWIDTH 540 0
DWIDTH 9 0
BBX 8 11 0 0
BITMAP
06
0E
1E
36
66
66
FF
FF
06
06
06
ENDCHAR
STARTCHAR 0035
ENCODING 53
SWIDTH 540 0
DWIDTH 9 0
BBX 7 11 1 0
BITMAP
7C
7C
60
40
78
FC
0C
0E
0C
FC
F8
ENDCHAR
STARTCHAR 0036
ENCODING 54
SWIDTH 540 0
DWIDTH 9 0
BBX 7 11 1 0
BITMAP
1C
3C
70
E0
F8
FC
CE
C6
CE
FC
78
ENDCHAR
STARTCHAR 0037
ENCODING 55
SWIDTH 540 0
DWIDTH 9 0
BBX 7 11 1 0
BITMAP
FE
FE
0C
1C
18
18
30
30
30
70
60
ENDCHAR
STARTCHAR 0038
ENCODING 56
SWIDTH 540 0
DWIDTH 9 0
BBX 7 11 1 0
BITMAP
78
FC
CE
C4
EC
78
CC
C6
C6
FC
78
ENDCHAR
STARTCHAR 0039
ENCODING 57
SWIDTH 540 0
DWIDTH 9 0
BBX 7 11 1 0
BITMAP
78
FC
CC
C6
C6
FE
7E
0C
1C
F8
E0
ENDCHAR
STARTCHAR 003A
ENCODING 58
SWIDTH 540 0
DWIDTH 9 0
BBX 3 8 3 0
BITMAP
C0
E0
C0
00
00
C0
E0
C0
ENDCHAR
STARTCHAR 003B
ENCODING 59
SWIDTH 540 0
DWIDTH 9 0
BBX 4 11 2 -3
BITMAP
60
70
60
00
00
60
70
70
30
60
C0
ENDCHAR
STARTCHAR 003C
ENCODING 60
SWIDTH 540 0
DWIDTH 9 0
BBX 7 11 1 1
BITMAP
04
0E
3E
7C
F0
C0
F0
7C
3E
0E
04
ENDCHAR
STARTCHAR 003D
ENCODING 61
SWIDTH 540 0
DWIDTH 9 0
BBX 7 6 1 1
BITMAP
FE
FE
00
00
FE
FE
ENDCHAR
STARTCHAR 003E
ENCODING 62
SWIDTH 540 0
DWIDTH 9 0
BBX 7 11 1 1
BITMAP
80
E0
F0
7C
1E
0E
1E
7C
F0
E0
80
ENDCHAR
STARTCHAR 003F
ENCODING 63
SWIDTH 540 0
DWIDTH 9 0
BBX 6 11 1 0
BITMAP
78
FC
0C
0C
0C
18
30
30
00
30
30
ENDCHAR
STARTCHAR 0040
ENCODING 64
SWIDTH 540 0
DWIDTH 9 0
BBX 8 13 0 -2
BITMAP
1E
22
43
4F
DF
DB
DB
DB
DF
4F
60
3F
1F
ENDCHAR
STARTCHAR 0041
ENCODING 65
SWIDTH 540 0
DWIDTH 9 0
BBX 8 11 0 0
BITMAP
1C
1C
3C
34
36
26
7E
7F
63
63
C3
ENDCHAR
STARTCHAR 0042
ENCODING 66
SWIDTH 540 0
DWIDTH 9 0
BBX 7 11 1 0
BITMAP
F8
FC
CC
CC
FC
FC
C6
C6
C6
FC
F8
ENDCHAR
STARTCHAR 0043
ENCODING 67
SWIDTH 540 0
DWIDTH 9 0
BBX 8 11 0 0
BITMAP
1E
3F
71
60
60
E0
E0
60
71
3F
1E
ENDCHAR
STARTCHAR 0044
ENCODING 68
SWIDTH 540 0
DWIDTH 9 0
BBX 7 11 1 0
BITMAP
F8
FC
CE
C6
C6
C6
C6
C6
CC
FC
F8
ENDCHAR
STARTCHAR 0045
ENCODING 69
SWIDTH 540 0
DWIDTH 9 0
BBX 7 11 1 0
BITMAP
FC
FC
C0
C0
FC
FC
C0
C0
C0
FE
FE
ENDCHAR
STARTCHAR 0046
ENCODING 70
SWIDTH 540 0
DWIDTH 9 0
BBX 7 11 1 0
BITMAP
FE
FE
C0
C0
FC
FC
C0
C0
C0
C0
C0
ENDCHAR
STARTCHAR 0047
ENCODING 71
SWIDTH 540 0
DWIDTH 9 0
BBX 8 11 0 0
BITMAP
1F
3F
71
60
60
E3
E3
63
63
3F
1F
ENDCHAR
STARTCHAR 0048
ENCODING 72
SWIDTH 540 0
DWIDTH 9 0
BBX 7 11 1 0
BITMAP
C6
C6
C6
C6
FE
FE
C6
C6
C6
C6
C6
ENDCHAR
STARTCHAR 0049
ENCODING 73
SWIDTH 540 0
DWIDTH 9 0
BBX 7 11 1 0
BITMAP
FE
FE
30
30
30
30
30
30
30
FE
FE
ENDCHAR
STARTCHAR 004A
ENCODING 74
SWIDTH 540 0
DWIDTH 9 0
BBX 6 11 1 0
BITMAP
7C
7C
0C
0C
0C
0C
0C
0C
8C
FC
78
ENDCHAR
STARTCHAR 004B
ENCODING 75
SWIDTH 540 0
DWIDTH 9 0
BBX 7 11 1 0
BITMAP
CE
CC
DC
D8
F0
F0
F8
DC
CC
CE
C6
ENDCHAR
STARTCHAR 004C
ENCODING 76
SWIDTH 540 0
DWIDTH 9 0
BBX 7 11 1 0
BITMAP
C0
C0
C0
C0
C0
C0
C0
C0
C0
FE
FE
ENDCHAR
STARTCHAR 004D
ENCODING 77
SWIDTH 540 0
DWIDTH 9 0
BBX 8 11 0 0
BITMAP
63
67
77
57
5F
5B
5B
43
C3
C3
C3
ENDCHAR
STARTCHAR 004E
ENCODING 78
SWIDTH 540 0
DWIDTH 9 0
BBX 7 11 1 0
BITMAP
C6
C6
E6
E6
F6
D6
DE
CE
CE
CE
C6
ENDCHAR
STARTCHAR 004F
ENCODING 79
SWIDTH 540 0
DWIDTH 9 0
BBX 8 11 0 0
BITMAP
3C
7E
67
63
E3
E3
E3
63
67
7E
3C
ENDCHAR
STARTCHAR 0050
ENCODING 80
SWIDTH 540 0
DWIDTH 9 0
BBX 7 11 1 0
BITMAP
F8
FE
C6
C6
C6
FE
F8
C0
C0
C0
C0
ENDCHAR
STARTCHAR 0051
ENCODING 81
SWIDTH 540 0
DWIDTH 9 0
BBX 8 14 0 -3
BITMAP
3C
7E
67
63
E3
E3
E3
63
67
7E
3C
1C
0F
07
ENDCHAR
STARTCHAR 0052
ENCODING 82
SWIDTH 540 0
DWIDTH 9 0
BBX 7 11 1 0
BITMAP
F8
FC
CC
CE
CE
FC
F8
DC
CC
CE
C6
ENDCHAR
STARTCHAR 0053
ENCODING 83
SWIDTH 540 0
DWIDTH 9 0
BBX 7 11 1 0
BITMAP
7C
FC
C4
C0
F0
7C
1E
06
86
FC
F8
ENDCHAR
STARTCHAR 0054
ENCODING 84
SWIDTH 540 0
DWIDTH 9 0
BBX 8 11 0 0
BITMAP
FF
FF
18
18
18
18
18
18
18
18
18
ENDCHAR
STARTCHAR 0055
ENCODING 85
SWIDTH 540 0
DWIDTH 9 0
BBX 7 11 1 0
BITMAP
C6
C6
C6
C6
C6
C6
C6
C6
CE
FC
78
ENDCHAR
STARTCHAR 0056
ENCODING 86
SWIDTH 540 0
DWIDTH 9 0
BBX 8 11 0 0
BITMAP
C3
63
63
67
66
26
36
34
3C
1C
18
ENDCHAR
STARTCHAR 0057
ENCODING 87
SWIDTH 540 0
DWIDTH 9 0
BBX 8 11 0 0
BITMAP
C3
C3
C3
43
5B
5B
5F
77
77
67
63
ENDCHAR
STARTCHAR 0058
ENCODING 88
SWIDTH 540 0
DWIDTH 9 0
BBX 8 11 0 0
BITMAP
63
66
36
3C
1C
1C
3C
36
76
67
E3
ENDCHAR
STARTCHAR 0059
ENCODING 89
SWIDTH 540 0
DWIDTH 9 0
BBX 8 11 0 0
BITMAP
E3
63
66
36
36
1C
18
18
18
18
18
ENDCHAR
STARTCHAR 005A
ENCODING 90
SWIDTH 540 0
DWIDTH 9 0
BBX 7 11 1 0
BITMAP
FE
FC
0C
18
18
30
60
60
C0
FE
FE
ENDCHAR
STARTCHAR 005B
ENCODING 91
SWIDTH 540 0
DWIDTH 9 0
BBX 5 15 2 -3
BITMAP
F8
F8
C0
C0
C0
C0
C0
C0
C0
C0
C0
C0
C0
F8
F8
ENDCHAR
STARTCHAR 005C
ENCODING 92
SWIDTH 540 0
DWIDTH 9 0
BBX 7 15 1 -3
BITMAP
C0
C0
60
60
60
30
30
30
18
18
18
1C
0C
0C
0E
ENDCHAR
STARTCHAR 005D
ENCODING 93
SWIDTH 540 0
DWIDTH 9 0
BBX 5 15 2 -3
BITMAP
F8
F8
18
18
18
18
18
18
18
18
18
18
18
F8
F8
ENDCHAR
STARTCHAR 005E
ENCODING 94
SWIDTH 540 0
DWIDTH 9 0
BBX 7 6 1 5
BITMAP
38
78
6C
EC
C6
86
ENDCHAR
STARTCHAR 005F
ENCODING 95
SWIDTH 540 0
DWIDTH 9 0
BBX 8 2 0 -3
BITMAP
FF
FF
ENDCHAR
STARTCHAR 0060
ENCODING 96
SWIDTH 540 0
DWIDTH 9 0
BBX 3 3 3 9
BITMAP
80
E0
20
ENDCHAR
STARTCHAR 0061
ENCODING 97
SWIDTH 540 0
DWIDTH 9 0
BBX 7 8 1 0
BITMAP
78
7C
0C
7E
FE
CE
FE
7E
ENDCHAR
STARTCHAR 0062
ENCODING 98
SWIDTH 540 0
DWIDTH 9 0
BBX 7 12 1 0
BITMAP
C0
C0
C0
C0
FC
FC
CE
C6
C6
CE
FC
F8
ENDCHAR
STARTCHAR 0063
ENCODING 99
SWIDTH 540 0
DWIDTH 9 0
BBX 7 8 1 0
BITMAP
3E
7E
E0
C0
C0
E0
7E
3E
ENDCHAR
STARTCHAR 0064
ENCODING 100
SWIDTH 540 0
DWIDTH 9 0
BBX 7 12 0 0
BITMAP
06
06
06
06
3E
7E
66
E6
E6
66
7E
3E
ENDCHAR
STARTCHAR 0065
ENCODING 101
SWIDTH 540 0
DWIDTH 9 0
BBX 7 8 1 0
BITMAP
78
FC
C6
FE
FE
C0
FC
7C
ENDCHAR
STARTCHAR 0066
ENCODING 102
SWIDTH 540 0
DWIDTH 9 0
BBX 7 12 1 0
BITMAP
1E
3E
70
60
FE
FE
60
60
60
60
60
60
ENDCHAR
STARTCHAR 0067
ENCODING 103
SWIDTH 540 0
DWIDTH 9 0
BBX 6 11 1 -3
BITMAP
7C
FC
CC
CC
CC
CC
FC
7C
8C
FC
F8
ENDCHAR
STARTCHAR 0068
ENCODING 104
SWIDTH 540 0
DWIDTH 9 0
BBX 7 12 1 0
BITMAP
C0
C0
C0
C0
F8
FC
CC
CC
CE
CE
CE
CE
ENDCHAR
STARTCHAR 0069
ENCODING 105
SWIDTH 540 0
DWIDTH 9 0
BBX 7 12 1 0
BITMAP
70
70
00
F0
F0
30
30
30
30
30
3E
1E
ENDCHAR
STARTCHAR 006A
ENCODING 106
SWIDTH 540 0
DWIDTH 9 0
BBX 6 15 1 -3
BITMAP
18
18
00
FC
FC
0C
0C
0C
0C
0C
0C
0C
8C
F8
78
ENDCHAR
STARTCHAR 006B
ENCODING 107
SWIDTH 540 0
DWIDTH 9 0
BBX 7 12 1 0
BITMAP
C0
C0
C0
C0
CE
DC
D8
F0
F8
DC
CC
C6
ENDCHAR
STARTCHAR 006C
ENCODING 108
SWIDTH 540 0
DWIDTH 9 0
BBX 7 12 1 0
BITMAP
F0
F0
30
30
30
30
30
30
30
30
3E
1E
ENDCHAR
STARTCHAR 006D
ENCODING 109
SWIDTH 540 0
DWIDTH 9 0
BBX 8 8 0 0
BITMAP
FE
FF
DB
DB
DB
C3
C3
C3
ENDCHAR
STARTCHAR 006E
ENCODING 110
SWIDTH 540 0
DWIDTH 9 0
BBX 7 8 1 0
BITMAP
F8
FC
CC
CC
CE
CE
CE
CE
ENDCHAR
STARTCHAR 006F
ENCODING 111
SWIDTH 540 0
DWIDTH 9 0
BBX 7 8 1 0
BITMAP
78
FC
CE
C6
C6
CE
FC
78
ENDCHAR
STARTCHAR 0070
ENCODING 112
SWIDTH 540 0
DWIDTH 9 0
BBX 7 11 1 -3
BITMAP
F8
FC
CE
C6
C6
CE
FC
FC
C0
C0
C0
ENDCHAR
STARTCHAR 0071
ENCODING 113
SWIDTH 540 0
DWIDTH 9 0
BBX 6 11 1 -3
BITMAP
7C
FC
CC
CC
CC
CC
FC
7C
0C
0C
0C
ENDCHAR
STARTCHAR 0072
ENCODING 114
SWIDTH 540 0
DWIDTH 9 0
BBX 6 8 2 0
BITMAP
FC
FC
C0
C0
C0
C0
C0
C0
ENDCHAR
STARTCHAR 0073
ENCODING 115
SWIDTH 540 0
DWIDTH 9 0
BBX 7 8 1 0
BITMAP
7C
FC
C0
70
3C
8E
FC
F8
ENDCHAR
STARTCHAR 0074
ENCODING 116
SWIDTH 540 0
DWIDTH 9 0
BBX 7 10 1 0
BITMAP
70
70
FE
FE
70
70
70
70
3E
3E
ENDCHAR
STARTCHAR 0075
ENCODING 117
SWIDTH 540 0
DWIDTH 9 0
BBX 6 8 1 0
BITMAP
CC
CC
CC
CC
CC
CC
FC
7C
ENDCHAR
STARTCHAR 0076
ENCODING 118
SWIDTH 540 0
DWIDTH 9 0
BBX 8 8 0 0
BITMAP
E3
63
66
66
36
3C
1C
18
ENDCHAR
STARTCHAR 0077
ENCODING 119
SWIDTH 540 0
DWIDTH 9 0
BBX 8 8 0 0
BITMAP
C1
C3
DB
5B
5F
57
76
66
ENDCHAR
STARTCHAR 0078
ENCODING 120
SWIDTH 540 0
DWIDTH 9 0
BBX 7 8 1 0
BITMAP
C6
EC
78
38
38
7C
CC
C6
ENDCHAR
STARTCHAR 0079
ENCODING 121
SWIDTH 540 0
DWIDTH 9 0
BBX 8 11 0 -3
BITMAP
63
63
66
36
36
1C
1C
1C
18
78
F0
ENDCHAR
STARTCHAR 007A
ENCODING 122
SWIDTH 540 0
DWIDTH 9 0
BBX 6 8 1 0
BITMAP
FC
FC
1C
38
30
60
FC
FC
ENDCHAR
STARTCHAR 007B
ENCODING 123
SWIDTH 540 0
DWIDTH 9 0
BBX 6 15 1 -3
BITMAP
1C
3C
30
30
30
30
E0
E0
30
30
30
30
30
3C
1C
ENDCHAR
STARTCHAR 007C
ENCODING 124
SWIDTH 540 0
DWIDTH 9 0
BBX 2 15 3 -3
BITMAP
C0
C0
C0
C0
C0
C0
C0
C0
C0
C0
C0
C0
C0
C0
C0
ENDCHAR
STARTCHAR 007D
ENCODING 125
SWIDTH 540 0
DWIDTH 9 0
BBX 6 15 1 -3
BITMAP
F0
F0
18
18
18
18
1C
1C
18
18
18
18
38
F0
F0
ENDCHAR
STARTCHAR 007E
ENCODING 126
SWIDTH 540 0
DWIDTH 9 0
BBX 8 3 0 3
BITMAP
71
7F
CE
ENDCHAR
STARTCHAR 00A0
ENCODING 160
SWIDTH 540 0
DWIDTH 9 0
BBX 0 0 0 0
BITMAP
ENDCHAR
STARTCHAR 00A1
ENCODING 161
SWIDTH 540 0
DWIDTH 9 0
BBX 2 11 3 -3
BITMAP
C0
C0
00
C0
C0
C0
C0
C0
C0
C0
C0
ENDCHAR
STARTCHAR 00A2
ENCODING 162
SWIDTH 540 0
DWIDTH 9 0
BBX 7 13 1 -2
BITMAP
18
18
3E
7C
E0
C0
C0
C0
E0
7E
3E
18
18
ENDCHAR
STARTCHAR 00A3
ENCODING 163
SWIDTH 540 0
DWIDTH 9 0
BBX 7 11 1 0
BITMAP
3C
7C
64
60
60
FC
FC
60
60
7E
7E
ENDCHAR
STARTCHAR 00A4
ENCODING 164
SWIDTH 540 0
DWIDTH 9 0
BBX 8 8 0 1
BITMAP
42
FF
7E
66
66
7E
FF
42
ENDCHAR
STARTCHAR 00A5
ENCODING 165
SWIDTH 540 0
DWIDTH 9 0
BBX 8 11 0 0
BITMAP
E3
63
66
36
36
3C
7F
18
7F
18
18
ENDCHAR
STARTCHAR 00A6
ENCODING 166
SWIDTH 540 0
DWIDTH 9 0
BBX 2 15 3 -3
BITMAP
C0
C0
C0
C0
C0
C0
00
00
00
C0
C0
C0
C0
C0
C0
ENDCHAR
STARTCHAR 00A7
ENCODING 167
SWIDTH 540 0
DWIDTH 9 0
BBX 7 13 1 -2
BITMAP
7C
7C
E0
60
78
CC
C6
E6
3C
0C
8C
FC
78
ENDCHAR
STARTCHAR 00A8
ENCODING 168
SWIDTH 540 0
DWIDTH 9 0
BBX 5 2 2 10
BITMAP
D8
D8
ENDCHAR
STARTCHAR 00A9
ENCODING 169
SWIDTH 540 0
DWIDTH 9 0
BBX 8 8 0 0
BITMAP
3C
62
59
F1
F1
59
62
3C
ENDCHAR
STARTCHAR 00AA
ENCODING 170
SWIDTH 540 0
DWIDTH 9 0
BBX 5 6 2 5
BITMAP
F0
18
18
F8
98
F8
ENDCHAR
STARTCHAR 00AB
ENCODING 171
SWIDTH 540 0
DWIDTH 9 0
BBX 6 7 1 1
BITMAP
24
64
CC
D8
4C
64
24
ENDCHAR
STARTCHAR 00AC
ENCODING 172
SWIDTH 540 0
DWIDTH 9 0
BBX 7 6 1 0
BITMAP
FE
FE
06
06
06
06
ENDCHAR
STARTCHAR 00AD
ENCODING 173
SWIDTH 540 0
DWIDTH 9 0
BBX 5 2 2 3
BITMAP
F8
F8
ENDCHAR
STARTCHAR 00AE
ENCODING 174
SWIDTH 540 0
DWIDTH 9 0
BBX 8 8 0 0
BITMAP
3C
62
5D
D5
D9
55
62
3C
ENDCHAR
STARTCHAR 00AF
ENCODING 175
SWIDTH 540 0
DWIDTH 9 0
BBX 5 1 2 10
BITMAP
F8
ENDCHAR
STARTCHAR 00B0
ENCODING 176
SWIDTH 540 0
DWIDTH 9 0
BBX 5 4 2 8
BITMAP
70
98
98
70
ENDCHAR
STARTCHAR 00B1
ENCODING 177
SWIDTH 540 0
DWIDTH 9 0
BBX 7 9 1 0
BITMAP
30
30
FE
FE
30
30
00
FE
FE
ENDCHAR
STARTCHAR 00B2
ENCODING 178
SWIDTH 540 0
DWIDTH 9 0
BBX 5 6 2 5
BITMAP
F0
90
30
60
E0
F8
ENDCHAR
STARTCHAR 00B3
ENCODING 179
SWIDTH 540 0
DWIDTH 9 0
BBX 5 6 2 5
BITMAP
F0
90
70
10
98
F0
ENDCHAR
STARTCHAR 00B4
ENCODING 180
SWIDTH 540 0
DWIDTH 9 0
BBX 3 3 3 9
BITMAP
20
E0
80
ENDCHAR
STARTCHAR 00B5
ENCODING 181
SWIDTH 540 0
DWIDTH 9 0
BBX 6 11 1 -3
BITMAP
CC
CC
CC
CC
CC
CC
FC
FC
C0
C0
C0
ENDCHAR
STARTCHAR 00B6
ENCODING 182
SWIDTH 540 0
DWIDTH 9 0
BBX 8 14 0 -3
BITMAP
3F
7F
FB
FB
FB
7B
3B
1B
1B
1B
1B
1B
1B
1B
ENDCHAR
STARTCHAR 00B7
ENCODING 183
SWIDTH 540 0
DWIDTH 9 0
BBX 3 3 3 3
BITMAP
C0
E0
C0
ENDCHAR
STARTCHAR 00B8
ENCODING 184
SWIDTH 540 0
DWIDTH 9 0
BBX 3 3 3 -3
BITMAP
40
20
E0
ENDCHAR
STARTCHAR 00B9
ENCODING 185
SWIDTH 540 0
DWIDTH 9 0
BBX 5 6 2 5
BITMAP
30
F0
30
30
30
F8
ENDCHAR
STARTCHAR 00BA
ENCODING 186
SWIDTH 540 0
DWIDTH 9 0
BBX 6 7 1 4
BITMAP
38
7C
CC
CC
CC
7C
38
ENDCHAR
STARTCHAR 00BB
ENCODING 187
SWIDTH 540 0
DWIDTH 9 0
BBX 7 7 1 1
BITMAP
88
C8
6C
66
6C
C8
88
ENDCHAR
STARTCHAR 00BC
ENCODING 188
SWIDTH 540 0
DWIDTH 9 0
BBX 8 11 0 0
BITMAP
62
E6
64
6C
08
18
10
33
27
6F
43
ENDCHAR
STARTCHAR 00BD
ENCODING 189
SWIDTH 540 0
DWIDTH 9 0
BBX 8 11 0 0
BITMAP
62
E6
64
6C
08
18
10
37
25
66
47
ENDCHAR
STARTCHAR 00BE
ENCODING 190
SWIDTH 540 0
DWIDTH 9 0
BBX 8 11 0 0
BITMAP
E3
36
76
34
EC
08
18
13
37
2F
63
ENDCHAR
STARTCHAR 00BF
ENCODING 191
SWIDTH 540 0
DWIDTH 9 0
BBX 6 11 1 -3
BITMAP
38
38
00
18
38
70
60
C0
E4
7C
7C
ENDCHAR
STARTCHAR 00C0
ENCODING 192
SWIDTH 540 0
DWIDTH 9 0
BBX 8 15 0 0
BITMAP
10
3C
0C
00
1C
1C
3C
34
36
26
7E
7F
63
63
C3
ENDCHAR
STARTCHAR 00C1
ENCODING 193
SWIDTH 540 0
DWIDTH 9 0
BBX 8 15 0 0
BITMAP
08
1C
10
00
1C
1C
3C
34
36
26
7E
7F
63
63
C3
ENDCHAR
STARTCHAR 00C2
ENCODING 194
SWIDTH 540 0
DWIDTH 9 0
BBX 8 15 0 0
BITMAP
08
1C
34
00
1C
1C
3C
34
36
26
7E
7F
63
63
C3
ENDCHAR
STARTCHAR 00C3
ENCODING 195
SWIDTH 540 0
DWIDTH 9 0
BBX 8 14 0 0
BITMAP
32
3E
2C
1C
1C
3C
34
36
26
7E
7F
63
63
C3
ENDCHAR
STARTCHAR 00C4
ENCODING 196
SWIDTH 540 0
DWIDTH 9 0
BBX 8 14 0 0
BITMAP
36
36
00
1C
1C
3C
34
36
26
7E
7F
63
63
C3
ENDCHAR
STARTCHAR 00C5
ENCODING 197
SWIDTH 540 0
DWIDTH 9 0
BBX 8 13 0 0
BITMAP
1C
34
1C
1C
1C
3C
36
36
66
7E
7F
63
C3
ENDCHAR
STARTCHAR 00C6
ENCODING 198
SWIDTH 540 0
DWIDTH 9 0
BBX 8 11 0 0
BITMAP
1F
1F
1C
3C
3F
2F
7C
7C
6C
6F
CF
ENDCHAR
STARTCHAR 00C7
ENCODING 199
SWIDTH 540 0
DWIDTH 9 0
BBX 8 14 0 -3
BITMAP
1E
3F
71
60
60
E0
E0
60
71
7F
1E
0C
04
1C
ENDCHAR
STARTCHAR 00C8
ENCODING 200
SWIDTH 540 0
DWIDTH 9 0
BBX 7 15 1 0
BITMAP
20
78
18
00
FC
FC
C0
C0
FC
FC
C0
C0
C0
FE
FE
ENDCHAR
STARTCHAR 00C9
ENCODING 201
SWIDTH 540 0
DWIDTH 9 0
BBX 7 15 1 0
BITMAP
10
38
20
00
FC
FC
C0
C0
FC
FC
C0
C0
C0
FE
FE
ENDCHAR
STARTCHAR 00CA
ENCODING 202
SWIDTH 540 0
DWIDTH 9 0
BBX 7 15 1 0
BITMAP
10
38
68
00
FC
FC
C0
C0
FC
FC
C0
C0
C0
FE
FE
ENDCHAR
STARTCHAR 00CB
ENCODING 203
SWIDTH 540 0
DWIDTH 9 0
BBX 7 14 1 0
BITMAP
6C
6C
00
FC
FC
C0
C0
FC
FC
C0
C0
C0
FE
FE
ENDCHAR
STARTCHAR 00CC
ENCODING 204
SWIDTH 540 0
DWIDTH 9 0
BBX 7 15 1 0
BITMAP
20
78
18
00
FE
FE
30
30
30
30
30
30
30
FE
FE
ENDCHAR
STARTCHAR 00CD
ENCODING 205
SWIDTH 540 0
DWIDTH 9 0
BBX 7 15 1 0
BITMAP
10
38
20
00
FE
FE
30
30
30
30
30
30
30
FE
FE
ENDCHAR
STARTCHAR 00CE
ENCODING 206
SWIDTH 540 0
DWIDTH 9 0
BBX 7 15 1 0
BITMAP
10
38
68
00
FE
FE
30
30
30
30
30
30
30
FE
FE
ENDCHAR
STARTCHAR 00CF
ENCODING 207
SWIDTH 540 0
DWIDTH 9 0
BBX 7 14 1 0
BITMAP
6C
6C
00
FE
FE
30
30
30
30
30
30
30
FE
FE
ENDCHAR
STARTCHAR 00D0
ENCODING 208
SWIDTH 540 0
DWIDTH 9 0
BBX 8 11 0 0
BITMAP
7C
7E
67
63
FB
FB
63
63
67
7E
7C
ENDCHAR
STARTCHAR 00D1
ENCODING 209
SWIDTH 540 0
DWIDTH 9 0
BBX 7 14 1 0
BITMAP
64
7C
58
C6
C6
E6
E6
F6
D6
DE
CE
CE
CE
C6
ENDCHAR
STARTCHAR 00D2
ENCODING 210
SWIDTH 540 0
DWIDTH 9 0
BBX 8 15 0 0
BITMAP
10
3C
0C
00
3C
7E
67
63
E3
E3
E3
63
67
7E
3C
ENDCHAR
STARTCHAR 00D3
ENCODING 211
SWIDTH 540 0
DWIDTH 9 0
BBX 8 15 0 0
BITMAP
08
1C
10
00
3C
7E
67
63
E3
E3
E3
63
67
7E
3C
ENDCHAR
STARTCHAR 00D4
ENCODING 212
SWIDTH 540 0
DWIDTH 9 0
BBX 8 15 0 0
BITMAP
08
1C
34
00
3C
7E
67
63
E3
E3
E3
63
67
7E
3C
ENDCHAR
STARTCHAR 00D5
ENCODING 213
SWIDTH 540 0
DWIDTH 9 0
BBX 8 14 0 0
BITMAP
32
3E
2C
3C
7E
67
63
E3
E3
E3
63
67
7E
3C
ENDCHAR
STARTCHAR 00D6
ENCODING 214
SWIDTH 540 0
DWIDTH 9 0
BBX 8 14 0 0
BITMAP
36
36
00
3C
7E
67
63
E3
E3
E3
63
67
7E
3C
ENDCHAR
STARTCHAR 00D7
ENCODING 215
SWIDTH 540 0
DWIDTH 9 0
BBX 7 7 1 1
BITMAP
44
EC
78
38
7C
CE
04
ENDCHAR
STARTCHAR 00D8
ENCODING 216
SWIDTH 540 0
DWIDTH 9 0
BBX 8 12 0 -1
BITMAP
3E
7E
67
6F
EF
FB
FB
73
67
7E
7C
40
ENDCHAR
STARTCHAR 00D9
ENCODING 217
SWIDTH 540 0
DWIDTH 9 0
BBX 7 15 1 0
BITMAP
20
70
10
00
C6
C6
C6
C6
C6
C6
C6
C6
CE
FC
78
ENDCHAR
STARTCHAR 00DA
ENCODING 218
SWIDTH 540 0
DWIDTH 9 0
BBX 7 15 1 0
BITMAP
08
38
20
00
C6
C6
C6
C6
C6
C6
C6
C6
CE
FC
78
ENDCHAR
STARTCHAR 00DB
ENCODING 219
SWIDTH 540 0
DWIDTH 9 0
BBX 7 15 1 0
BITMAP
10
38
68
00
C6
C6
C6
C6
C6
C6
C6
C6
CE
FC
78
ENDCHAR
STARTCHAR 00DC
ENCODING 220
SWIDTH 540 0
DWIDTH 9 0
BBX 7 14 1 0
BITMAP
6C
6C
00
C6
C6
C6
C6
C6
C6
C6
C6
CE
FC
78
ENDCHAR
STARTCHAR 00DD
ENCODING 221
SWIDTH 540 0
DWIDTH 9 0
BBX 8 15 0 0
BITMAP
04
1C
10
00
E3
63
66
36
36
1C
18
18
18
18
18
ENDCHAR
STARTCHAR 00DE
ENCODING 222
SWIDTH 540 0
DWIDTH 9 0
BBX 7 11 1 0
BITMAP
C0
C0
F8
FE
C6
C6
CE
FC
F8
C0
C0
ENDCHAR
STARTCHAR 00DF
ENCODING 223
SWIDTH 540 0
DWIDTH 9 0
BBX 7 12 1 0
BITMAP
78
FC
CC
CC
D8
D8
D8
DC
C6
D6
DE
DC
ENDCHAR
STARTCHAR 00E0
ENCODING 224
SWIDTH 540 0
DWIDTH 9 0
BBX 7 12 1 0
BITMAP
20
70
18
00
78
7C
0C
7E
FE
CE
FE
7E
ENDCHAR
STARTCHAR 00E1
ENCODING 225
SWIDTH 540 0
DWIDTH 9 0
BBX 7 12 1 0
BITMAP
08
38
20
00
78
7C
0C
7E
FE
CE
FE
7E
ENDCHAR
STARTCHAR 00E2
ENCODING 226
SWIDTH 540 0
DWIDTH 9 0
BBX 7 12 1 0
BITMAP
10
38
68
00
78
7C
0C
7E
FE
CE
FE
7E
ENDCHAR
STARTCHAR 00E3
ENCODING 227
SWIDTH 540 0
DWIDTH 9 0
BBX 7 12 1 0
BITMAP
64
7C
58
00
78
7C
0C
7E
FE
CE
FE
7E
ENDCHAR
STARTCHAR 00E4
ENCODING 228
SWIDTH 540 0
DWIDTH 9 0
BBX 7 12 1 0
BITMAP
6C
6C
00
00
78
7C
0C
7E
FE
CE
FE
7E
ENDCHAR
STARTCHAR 00E5
ENCODING 229
SWIDTH 540 0
DWIDTH 9 0
BBX 7 12 1 0
BITMAP
38
68
38
00
78
7C
0C
7E
FE
CE
FE
7E
ENDCHAR
STARTCHAR 00E6
ENCODING 230
SWIDTH 540 0
DWIDTH 9 0
BBX 8 8 0 0
BITMAP
76
7F
09
7F
7F
C8
7F
77
ENDCHAR
STARTCHAR 00E7
ENCODING 231
SWIDTH 540 0
DWIDTH 9 0
BBX 7 11 1 -3
BITMAP
3E
7C
E0
C0
C0
E0
FE
3E
18
08
38
ENDCHAR
STARTCHAR 00E8
ENCODING 232
SWIDTH 540 0
DWIDTH 9 0
BBX 7 12 1 0
BITMAP
20
70
18
00
78
FC
C6
FE
FE
C0
FC
7C
ENDCHAR
STARTCHAR 00E9
ENCODING 233
SWIDTH 540 0
DWIDTH 9 0
BBX 7 12 1 0
BITMAP
08
38
30
00
78
FC
C6
FE
FE
C0
FC
7C
ENDCHAR
STARTCHAR 00EA
ENCODING 234
SWIDTH 540 0
DWIDTH 9 0
BBX 7 12 1 0
BITMAP
10
38
68
00
78
FC
C6
FE
FE
C0
FC
7C
ENDCHAR
STARTCHAR 00EB
ENCODING 235
SWIDTH 540 0
DWIDTH 9 0
BBX 7 12 1 0
BITMAP
6C
6C
00
00
78
FC
C6
FE
FE
C0
FC
7C
ENDCHAR
STARTCHAR 00EC
ENCODING 236
SWIDTH 540 0
DWIDTH 9 0
BBX 7 12 1 0
BITMAP
20
70
10
00
F0
F0
30
30
30
32
3E
1E
ENDCHAR
STARTCHAR 00ED
ENCODING 237
SWIDTH 540 0
DWIDTH 9 0
BBX 7 12 1 0
BITMAP
10
38
20
00
F0
F0
30
30
30
32
3E
1E
ENDCHAR
STARTCHAR 00EE
ENCODING 238
SWIDTH 540 0
DWIDTH 9 0
BBX 7 12 1 0
BITMAP
30
78
48
00
F0
F0
30
30
30
32
3E
1E
ENDCHAR
STARTCHAR 00EF
ENCODING 239
SWIDTH 540 0
DWIDTH 9 0
BBX 7 12 1 0
BITMAP
CC
CC
00
00
F0
F0
30
30
30
32
3E
1E
ENDCHAR
STARTCHAR 00F0
ENCODING 240
SWIDTH 540 0
DWIDTH 9 0
BBX 7 12 1 0
BITMAP
30
3E
3C
0C
3C
7E
EE
C6
CE
CC
FC
78
ENDCHAR
STARTCHAR 00F1
ENCODING 241
SWIDTH 540 0
DWIDTH 9 0
BBX 7 12 1 0
BITMAP
64
7C
58
00
F8
FC
CC
CC
CE
CE
CE
CE
ENDCHAR
STARTCHAR 00F2
ENCODING 242
SWIDTH 540 0
DWIDTH 9 0
BBX 7 12 1 0
BITMAP
20
70
18
00
78
FC
CE
C6
C6
CE
FC
78
ENDCHAR
STARTCHAR 00F3
ENCODING 243
SWIDTH 540 0
DWIDTH 9 0
BBX 7 12 1 0
BITMAP
10
38
20
00
78
FC
CE
C6
C6
CE
FC
78
ENDCHAR
STARTCHAR 00F4
ENCODING 244
SWIDTH 540 0
DWIDTH 9 0
BBX 7 12 1 0
BITMAP
10
38
68
00
78
FC
CE
C6
C6
CE
FC
78
ENDCHAR
STARTCHAR 00F5
ENCODING 245
SWIDTH 540 0
DWIDTH 9 0
BBX 7 12 1 0
BITMAP
64
7C
58
00
78
FC
CE
C6
C6
CE
FC
78
ENDCHAR
STARTCHAR 00F6
ENCODING 246
SWIDTH 540 0
DWIDTH 9 0
BBX 7 12 1 0
BITMAP
6C
6C
00
00
78
FC
CE
C6
C6
CE
FC
78
ENDCHAR
STARTCHAR 00F7
ENCODING 247
SWIDTH 540 0
DWIDTH 9 0
BBX 7 8 1 0
BITMAP
30
30
00
FE
FE
00
30
30
ENDCHAR
STARTCHAR 00F8
ENCODING 248
SWIDTH 540 0
DWIDTH 9 0
BBX 7 8 1 0
BITMAP
7E
FC
CE
D6
E6
EE
FC
F8
ENDCHAR
STARTCHAR 00F9
ENCODING 249
SWIDTH 540 0
DWIDTH 9 0
BBX 6 12 1 0
BITMAP
20
70
18
00
CC
CC
CC
CC
CC
CC
FC
7C
ENDCHAR
STARTCHAR 00FA
ENCODING 250
SWIDTH 540 0
DWIDTH 9 0
BBX 6 12 1 0
BITMAP
10
38
20
00
CC
CC
CC
CC
CC
CC
FC
7C
ENDCHAR
STARTCHAR 00FB
ENCODING 251
SWIDTH 540 0
DWIDTH 9 0
BBX 6 12 1 0
BITMAP
10
38
68
00
CC
CC
CC
CC
CC
CC
FC
7C
ENDCHAR
STARTCHAR 00FC
ENCODING 252
SWIDTH 540 0
DWIDTH 9 0
BBX 6 12 1 0
BITMAP
6C
6C
00
00
CC
CC
CC
CC
CC
CC
FC
7C
ENDCHAR
STARTCHAR 00FD
ENCODING 253
SWIDTH 540 0
DWIDTH 9 0
BBX 8 15 0 -3
BITMAP
08
1C
10
00
63
63
66
36
36
1C
1C
1C
18
78
F0
ENDCHAR
STARTCHAR 00FE
ENCODING 254
SWIDTH 540 0
DWIDTH 9 0
BBX 7 15 1 -3
BITMAP
C0
C0
C0
C0
F8
FC
CE
C6
C6
CE
FC
FC
C0
C0
C0
ENDCHAR
STARTCHAR 00FF
ENCODING 255
SWIDTH 540 0
DWIDTH 9 0
BBX 8 15 0 -3
BITMAP
36
36
00
00
63
63
66
36
36
1C
1C
1C
18
78
F0
ENDCHAR
STARTCHAR 0100
ENCODING 256
SWIDTH 540 0
DWIDTH 9 0
BBX 8 13 0 0
BITMAP
3E
00
1C
1C
3C
34
36
26
7E
7F
63
63
C3
ENDCHAR
STARTCHAR 0101
ENCODING 257
SWIDTH 540 0
DWIDTH 9 0
BBX 7 11 1 0
BITMAP
7C
00
00
78
7C
0C
7E
FE
CE
FE
7E
ENDCHAR
STARTCHAR 0102
ENCODING 258
SWIDTH 540 0
DWIDTH 9 0
BBX 8 14 0 0
BITMAP
26
3C
00
1C
1C
3C
34
36
26
7E
7F
63
63
C3
ENDCHAR
STARTCHAR 0103
ENCODING 259
SWIDTH 540 0
DWIDTH 9 0
BBX 7 12 1 0
BITMAP
4C
78
00
00
78
7C
0C
7E
FE
CE
FE
7E
ENDCHAR
STARTCHAR 0104
ENCODING 260
SWIDTH 540 0
DWIDTH 9 0
BBX 9 14 0 -3
BITMAP
1C00
1C00
3C00
3400
3600
2600
6600
7F00
7F00
6300
C300
0300
0200
0380
ENDCHAR
STARTCHAR 0105
ENCODING 261
SWIDTH 540 0
DWIDTH 9 0
BBX 7 11 1 -3
BITMAP
78
7C
0C
7E
FE
CE
FE
7E
0C
18
0C
ENDCHAR
STARTCHAR 0106
ENCODING 262
SWIDTH 540 0
DWIDTH 9 0
BBX 8 15 0 0
BITMAP
04
0E
08
00
1E
3F
71
60
60
E0
E0
60
71
3F
1E
ENDCHAR
STARTCHAR 0107
ENCODING 263
SWIDTH 540 0
DWIDTH 9 0
BBX 7 12 1 0
BITMAP
08
1C
30
00
3E
7E
E0
C0
C0
E0
7E
3E
ENDCHAR
STARTCHAR 0108
ENCODING 264
SWIDTH 540 0
DWIDTH 9 0
BBX 8 15 0 0
BITMAP
04
1E
12
00
1E
3F
71
60
60
E0
E0
60
71
3F
1E
ENDCHAR
STARTCHAR 0109
ENCODING 265
SWIDTH 540 0
DWIDTH 9 0
BBX 7 12 1 0
BITMAP
18
3C
24
00
3E
7E
E0
C0
C0
E0
7E
3E
ENDCHAR
STARTCHAR 010A
ENCODING 266
SWIDTH 540 0
DWIDTH 9 0
BBX 8 14 0 0
BITMAP
0C
0C
00
1E
3F
71
60
60
E0
E0
60
71
3F
1E
ENDCHAR
STARTCHAR 010B
ENCODING 267
SWIDTH 540 0
DWIDTH 9 0
BBX 7 11 1 0
BITMAP
18
18
00
3E
7E
E0
C0
C0
E0
7E
3E
ENDCHAR
STARTCHAR 010C
ENCODING 268
SWIDTH 540 0
DWIDTH 9 0
BBX 8 15 0 0
BITMAP
12
1E
04
00
1E
3F
71
60
60
E0
E0
60
71
3F
1E
ENDCHAR
STARTCHAR 010D
ENCODING 269
SWIDTH 540 0
DWIDTH 9 0
BBX 7 12 1 0
BITMAP
24
3C
08
00
3E
7E
E0
C0
C0
E0
7E
3E
ENDCHAR
STARTCHAR 010E
ENCODING 270
SWIDTH 540 0
DWIDTH 9 0
BBX 7 15 1 0
BITMAP
58
70
20
00
F8
FC
CE
C6
C6
C6
C6
C6
CC
FC
F8
ENDCHAR
STARTCHAR 010F
ENCODING 271
SWIDTH 540 0
DWIDTH 9 0
BBX 9 12 0 0
BITMAP
0D80
0D80
0D80
0D00
7C00
7C00
EC00
CC00
CC00
EC00
7C00
3C00
ENDCHAR
STARTCHAR 0110
ENCODING 272
SWIDTH 540 0
DWIDTH 9 0
BBX 8 11 0 0
BITMAP
7C
7E
67
63
FB
FB
63
63
67
7E
7C
ENDCHAR
STARTCHAR 0111
ENCODING 273
SWIDTH 540 0
DWIDTH 9 0
BBX 8 12 0 0
BITMAP
06
1F
06
06
3E
7E
66
E6
E6
66
7E
3E
ENDCHAR
STARTCHAR 0112
ENCODING 274
SWIDTH 540 0
DWIDTH 9 0
BBX 7 13 1 0
BITMAP
7C
00
FC
FC
C0
C0
FC
FC
C0
C0
C0
FE
FE
ENDCHAR
STARTCHAR 0113
ENCODING 275
SWIDTH 540 0
DWIDTH 9 0
BBX 7 11 1 0
BITMAP
7C
00
00
78
FC
C6
FE
FE
C0
FC
7C
ENDCHAR
STARTCHAR 0114
ENCODING 276
SWIDTH 540 0
DWIDTH 9 0
BBX 7 14 1 0
BITMAP
4C
78
00
FC
FC
C0
C0
FC
FC
C0
C0
C0
FE
FE
ENDCHAR
STARTCHAR 0115
ENCODING 277
SWIDTH 540 0
DWIDTH 9 0
BBX 7 12 1 0
BITMAP
4C
78
00
00
78
FC
C6
FE
FE
C0
FC
7C
ENDCHAR
STARTCHAR 0116
ENCODING 278
SWIDTH 540 0
DWIDTH 9 0
BBX 7 14 1 0
BITMAP
30
30
00
FC
FC
C0
C0
FC
FC
C0
C0
C0
FE
FE
ENDCHAR
STARTCHAR 0117
ENCODING 279
SWIDTH 540 0
DWIDTH 9 0
BBX 7 11 1 0
BITMAP
30
30
00
78
FC
C6
FE
FE
C0
FC
7C
ENDCHAR
STARTCHAR 0118
ENCODING 280
SWIDTH 540 0
DWIDTH 9 0
BBX 7 14 1 -3
BITMAP
FC
FC
C0
C0
FC
FC
C0
C0
C0
FE
FE
04
0C
0E
ENDCHAR
STARTCHAR 0119
ENCODING 281
SWIDTH 540 0
DWIDTH 9 0
BBX 7 11 1 -3
BITMAP
78
FC
C6
FE
FE
C0
FC
7C
0C
18
1C
ENDCHAR
STARTCHAR 011A
ENCODING 282
SWIDTH 540 0
DWIDTH 9 0
BBX 7 15 1 0
BITMAP
48
38
10
00
FC
FC
C0
C0
FC
FC
C0
C0
C0
FE
FE
ENDCHAR
STARTCHAR 011B
ENCODING 283
SWIDTH 540 0
DWIDTH 9 0
BBX 7 12 1 0
BITMAP
48
38
10
00
78
FC
C6
FE
FE
C0
FC
7C
ENDCHAR
STARTCHAR 011C
ENCODING 284
SWIDTH 540 0
DWIDTH 9 0
BBX 8 15 0 0
BITMAP
0C
1E
12
00
1F
3F
71
60
60
E3
E3
63
63
3F
1F
ENDCHAR
STARTCHAR 011D
ENCODING 285
SWIDTH 540 0
DWIDTH 9 0
BBX 6 15 1 -3
BITMAP
10
38
68
00
7C
FC
CC
CC
CC
CC
FC
7C
8C
FC
F8
ENDCHAR
STARTCHAR 011E
ENCODING 286
SWIDTH 540 0
DWIDTH 9 0
BBX 8 14 0 0
BITMAP
12
1E
00
1F
3F
71
60
60
E3
E3
63
63
3F
1F
ENDCHAR
STARTCHAR 011F
ENCODING 287
SWIDTH 540 0
DWIDTH 9 0
BBX 6 15 1 -3
BITMAP
4C
78
00
00
7C
FC
CC
CC
CC
CC
FC
7C
8C
FC
F8
ENDCHAR
STARTCHAR 0120
ENCODING 288
SWIDTH 540 0
DWIDTH 9 0
BBX 8 14 0 0
BITMAP
0C
0C
00
1F
3F
71
60
60
E3
E3
63
63
3F
1F
ENDCHAR
STARTCHAR 0121
ENCODING 289
SWIDTH 540 0
DWIDTH 9 0
BBX 6 14 1 -3
BITMAP
30
30
00
7C
FC
CC
CC
CC
CC
FC
7C
8C
FC
F8
ENDCHAR
STARTCHAR 0122
ENCODING 290
SWIDTH 540 0
DWIDTH 9 0
BBX 8 14 0 -3
BITMAP
1F
3F
71
60
60
E3
E3
63
63
3F
1F
00
0C
18
ENDCHAR
STARTCHAR 0123
ENCODING 291
SWIDTH 540 0
DWIDTH 9 0
BBX 6 15 1 -3
BITMAP
18
18
30
00
7C
FC
CC
CC
CC
CC
FC
7C
8C
FC
F8
ENDCHAR
STARTCHAR 0124
ENCODING 292
SWIDTH 540 0
DWIDTH 9 0
BBX 7 15 1 0
BITMAP
10
38
68
00
C6
C6
C6
C6
FE
FE
C6
C6
C6
C6
C6
ENDCHAR
STARTCHAR 0125
ENCODING 293
SWIDTH 540 0
DWIDTH 9 0
BBX 7 14 1 0
BITMAP
20
F0
90
C0
C0
C0
F8
FC
CC
CC
CE
CE
CE
CE
ENDCHAR
STARTCHAR 0126
ENCODING 294
SWIDTH 540 0
DWIDTH 9 0
BBX 8 11 0 0
BITMAP
66
FF
FF
66
66
7E
7E
66
66
66
66
ENDCHAR
STARTCHAR 0127
ENCODING 295
SWIDTH 540 0
DWIDTH 9 0
BBX 8 12 0 0
BITMAP
60
FC
FC
60
7C
7E
66
66
67
67
67
67
ENDCHAR
STARTCHAR 0128
ENCODING 296
SWIDTH 540 0
DWIDTH 9 0
BBX 7 14 1 0
BITMAP
64
7C
58
FE
FE
30
30
30
30
30
30
30
FE
FE
ENDCHAR
STARTCHAR 0129
ENCODING 297
SWIDTH 540 0
DWIDTH 9 0
BBX 7 12 1 0
BITMAP
68
F8
58
00
F0
F0
30
30
30
32
3E
1E
ENDCHAR
STARTCHAR 012A
ENCODING 298
SWIDTH 540 0
DWIDTH 9 0
BBX 7 13 1 0
BITMAP
7C
00
FE
FE
30
30
30
30
30
30
30
FE
FE
ENDCHAR
STARTCHAR 012B
ENCODING 299
SWIDTH 540 0
DWIDTH 9 0
BBX 7 11 1 0
BITMAP
78
00
00
F0
F0
30
30
30
32
3E
1E
ENDCHAR
STARTCHAR 012C
ENCODING 300
SWIDTH 540 0
DWIDTH 9 0
BBX 7 14 1 0
BITMAP
4C
78
00
FE
FE
30
30
30
30
30
30
30
FE
FE
ENDCHAR
STARTCHAR 012D
ENCODING 301
SWIDTH 540 0
DWIDTH 9 0
BBX 7 12 1 0
BITMAP
48
78
00
00
F0
F0
30
30
30
32
3E
1E
ENDCHAR
STARTCHAR 012E
ENCODING 302
SWIDTH 540 0
DWIDTH 9 0
BBX 7 14 1 -3
BITMAP
FE
FE
30
30
30
30
30
30
30
FE
FE
30
20
38
ENDCHAR
STARTCHAR 012F
ENCODING 303
SWIDTH 540 0
DWIDTH 9 0
BBX 7 15 1 -3
BITMAP
70
70
00
F0
F0
30
30
30
30
30
3E
1E
0C
08
0E
ENDCHAR
STARTCHAR 0130
ENCODING 304
SWIDTH 540 0
DWIDTH 9 0
BBX 7 14 1 0
BITMAP
30
30
00
FE
FE
30
30
30
30
30
30
30
FE
FE
ENDCHAR
STARTCHAR 0131
ENCODING 305
SWIDTH 540 0
DWIDTH 9 0
BBX 7 8 1 0
BITMAP
F0
F0
30
30
30
32
3E
1E
ENDCHAR
STARTCHAR 0132
ENCODING 306
SWIDTH 540 0
DWIDTH 9 0
BBX 8 11 0 0
BITMAP
E3
E3
E3
E3
E3
E3
E3
E3
E3
FF
FE
ENDCHAR
STARTCHAR 0133
ENCODING 307
SWIDTH 540 0
DWIDTH 9 0
BBX 6 15 1 -3
BITMAP
CC
CC
00
CC
CC
CC
CC
CC
CC
CC
CC
CC
0C
3C
38
ENDCHAR
STARTCHAR 0134
ENCODING 308
SWIDTH 540 0
DWIDTH 9 0
BBX 6 15 1 0
BITMAP
08
3C
24
00
7C
7C
0C
0C
0C
0C
0C
0C
8C
FC
78
ENDCHAR
STARTCHAR 0135
ENCODING 309
SWIDTH 540 0
DWIDTH 9 0
BBX 6 15 1 -3
BITMAP
10
38
2C
00
FC
FC
0C
0C
0C
0C
0C
0C
8C
F8
78
ENDCHAR
STARTCHAR 0136
ENCODING 310
SWIDTH 540 0
DWIDTH 9 0
BBX 7 14 1 -3
BITMAP
CE
CC
DC
D8
F0
F0
F8
DC
CC
CE
C6
00
10
70
ENDCHAR
STARTCHAR 0137
ENCODING 311
SWIDTH 540 0
DWIDTH 9 0
BBX 7 15 1 -3
BITMAP
C0
C0
C0
C0
CE
DC
D8
F0
F8
DC
CC
C6
00
10
70
ENDCHAR
STARTCHAR 0138
ENCODING 312
SWIDTH 540 0
DWIDTH 9 0
BBX 7 8 1 0
BITMAP
CE
DC
D8
F0
F8
DC
CC
C6
ENDCHAR
STARTCHAR 0139
ENCODING 313
SWIDTH 540 0
DWIDTH 9 0
BBX 7 15 1 0
BITMAP
10
70
40
00
C0
C0
C0
C0
C0
C0
C0
C0
C0
FE
FE
ENDCHAR
STARTCHAR 013A
ENCODING 314
SWIDTH 540 0
DWIDTH 9 0
BBX 7 14 1 0
BITMAP
08
38
60
F0
F0
30
30
30
30
30
30
30
3E
1E
ENDCHAR
STARTCHAR 013B
ENCODING 315
SWIDTH 540 0
DWIDTH 9 0
BBX 7 14 1 -3
BITMAP
C0
C0
C0
C0
C0
C0
C0
C0
C0
FE
FE
00
18
30
ENDCHAR
STARTCHAR 013C
ENCODING 316
SWIDTH 540 0
DWIDTH 9 0
BBX 7 15 1 -3
BITMAP
F0
F0
30
30
30
30
30
30
30
30
3E
1E
00
08
18
ENDCHAR
STARTCHAR 013D
ENCODING 317
SWIDTH 540 0
DWIDTH 9 0
BBX 7 11 1 0
BITMAP
CC
CC
C8
C8
C0
C0
C0
C0
C0
FE
FE
ENDCHAR
STARTCHAR 013E
ENCODING 318
SWIDTH 540 0
DWIDTH 9 0
BBX 7 12 1 0
BITMAP
F6
F6
36
36
30
30
30
30
30
30
3E
1E
ENDCHAR
STARTCHAR 013F
ENCODING 319
SWIDTH 540 0
DWIDTH 9 0
BBX 7 11 1 0
BITMAP
C0
C0
C0
CE
CE
C0
C0
C0
C0
FE
FE
ENDCHAR
STARTCHAR 0140
ENCODING 320
SWIDTH 540 0
DWIDTH 9 0
BBX 8 12 1 0
BITMAP
F0
F0
30
30
33
33
30
30
30
30
3E
1E
ENDCHAR
STARTCHAR 0141
ENCODING 321
SWIDTH 540 0
DWIDTH 9 0
BBX 8 11 0 0
BITMAP
30
30
30
34
3C
78
F0
30
30
3F
3F
ENDCHAR
STARTCHAR 0142
ENCODING 322
SWIDTH 540 0
DWIDTH 9 0
BBX 7 12 1 0
BITMAP
F0
F0
30
30
3C
70
70
30
30
30
3E
1E
ENDCHAR
STARTCHAR 0143
ENCODING 323
SWIDTH 540 0
DWIDTH 9 0
BBX 7 15 1 0
BITMAP
08
38
20
00
C6
C6
E6
E6
F6
D6
DE
CE
CE
CE
C6
ENDCHAR
STARTCHAR 0144
ENCODING 324
SWIDTH 540 0
DWIDTH 9 0
BBX 7 12 1 0
BITMAP
10
38
20
00
F8
FC
CC
CC
CE
CE
CE
CE
ENDCHAR
STARTCHAR 0145
ENCODING 325
SWIDTH 540 0
DWIDTH 9 0
BBX 7 14 1 -3
BITMAP
C6
C6
E6
E6
F6
D6
DE
CE
CE
CE
C6
00
10
70
ENDCHAR
STARTCHAR 0146
ENCODING 326
SWIDTH 540 0
DWIDTH 9 0
BBX 7 11 1 -3
BITMAP
F8
FC
CC
CC
CE
CE
CE
CE
00
10
70
ENDCHAR
STARTCHAR 0147
ENCODING 327
SWIDTH 540 0
DWIDTH 9 0
BBX 7 15 1 0
BITMAP
48
38
10
00
C6
C6
E6
E6
F6
D6
DE
CE
CE
CE
C6
ENDCHAR
STARTCHAR 0148
ENCODING 328
SWIDTH 540 0
DWIDTH 9 0
BBX 7 12 1 0
BITMAP
48
38
10
00
F8
FC
CC
CC
CE
CE
CE
CE
ENDCHAR
STARTCHAR 0149
ENCODING 329
SWIDTH 540 0
DWIDTH 9 0
BBX 8 13 0 0
BITMAP
C0
C0
C0
80
00
7E
7E
67
63
63
63
63
63
ENDCHAR
STARTCHAR 014A
ENCODING 330
SWIDTH 540 0
DWIDTH 9 0
BBX 7 14 1 -3
BITMAP
C6
C6
E6
E6
F6
D6
DE
CE
CE
CE
C6
06
1C
1C
ENDCHAR
STARTCHAR 014B
ENCODING 331
SWIDTH 540 0
DWIDTH 9 0
BBX 7 11 1 -3
BITMAP
F8
FC
CC
CC
CE
CE
CE
CE
0C
1C
1C
ENDCHAR
STARTCHAR 014C
ENCODING 332
SWIDTH 540 0
DWIDTH 9 0
BBX 8 13 0 0
BITMAP
3E
00
3C
7E
67
63
E3
E3
E3
63
67
7E
3C
ENDCHAR
STARTCHAR 014D
ENCODING 333
SWIDTH 540 0
DWIDTH 9 0
BBX 7 11 1 0
BITMAP
7C
00
00
78
FC
CE
C6
C6
CE
FC
78
ENDCHAR
STARTCHAR 014E
ENCODING 334
SWIDTH 540 0
DWIDTH 9 0
BBX 8 14 0 0
BITMAP
26
3C
00
3C
7E
67
63
E3
E3
E3
63
67
7E
3C
ENDCHAR
STARTCHAR 014F
ENCODING 335
SWIDTH 540 0
DWIDTH 9 0
BBX 7 12 1 0
BITMAP
4C
78
00
00
78
FC
CE
C6
C6
CE
FC
78
ENDCHAR
STARTCHAR 0150
ENCODING 336
SWIDTH 540 0
DWIDTH 9 0
BBX 8 15 0 0
BITMAP
13
3E
24
00
3C
7E
67
63
E3
E3
E3
63
67
7E
3C
ENDCHAR
STARTCHAR 0151
ENCODING 337
SWIDTH 540 0
DWIDTH 9 0
BBX 7 12 1 0
BITMAP
26
7C
48
00
78
FC
CE
C6
C6
CE
FC
78
ENDCHAR
STARTCHAR 0152
ENCODING 338
SWIDTH 540 0
DWIDTH 9 0
BBX 8 11 0 0
BITMAP
3F
7F
6C
CC
CF
CF
CC
CC
6C
7F
3F
ENDCHAR
STARTCHAR 0153
ENCODING 339
SWIDTH 540 0
DWIDTH 9 0
BBX 8 8 0 0
BITMAP
76
7F
D9
CF
CF
D8
7F
77
ENDCHAR
STARTCHAR 0154
ENCODING 340
SWIDTH 540 0
DWIDTH 9 0
BBX 7 15 1 0
BITMAP
10
38
20
00
F8
FC
CC
CE
CE
FC
F8
DC
CC
CE
C6
ENDCHAR
STARTCHAR 0155
ENCODING 341
SWIDTH 540 0
DWIDTH 9 0
BBX 6 12 2 0
BITMAP
10
38
60
00
FC
FC
C0
C0
C0
C0
C0
C0
ENDCHAR
STARTCHAR 0156
ENCODING 342
SWIDTH 540 0
DWIDTH 9 0
BBX 7 14 1 -3
BITMAP
F8
FC
CC
CE
CE
FC
F8
DC
CC
CE
C6
00
10
70
ENDCHAR
STARTCHAR 0157
ENCODING 343
SWIDTH 540 0
DWIDTH 9 0
BBX 7 11 1 -3
BITMAP
7E
7E
60
60
60
60
60
60
00
60
C0
ENDCHAR
STARTCHAR 0158
ENCODING 344
SWIDTH 540 0
DWIDTH 9 0
BBX 7 15 1 0
BITMAP
48
78
30
00
F8
FC
CC
CE
CE
FC
F8
DC
CC
CE
C6
ENDCHAR
STARTCHAR 0159
ENCODING 345
SWIDTH 540 0
DWIDTH 9 0
BBX 6 12 2 0
BITMAP
48
78
20
00
FC
FC
C0
C0
C0
C0
C0
C0
ENDCHAR
STARTCHAR 015A
ENCODING 346
SWIDTH 540 0
DWIDTH 9 0
BBX 7 15 1 0
BITMAP
08
38
20
00
7C
FC
C4
C0
F0
7C
1E
06
86
FC
F8
ENDCHAR
STARTCHAR 015B
ENCODING 347
SWIDTH 540 0
DWIDTH 9 0
BBX 7 12 1 0
BITMAP
08
38
20
00
7C
FC
C0
70
3C
8E
FC
F8
ENDCHAR
STARTCHAR 015C
ENCODING 348
SWIDTH 540 0
DWIDTH 9 0
BBX 7 15 1 0
BITMAP
10
38
68
00
7C
FC
C4
C0
F0
7C
1E
06
86
FC
F8
ENDCHAR
STARTCHAR 015D
ENCODING 349
SWIDTH 540 0
DWIDTH 9 0
BBX 7 12 1 0
BITMAP
10
38
68
00
7C
FC
C0
70
3C
8E
FC
F8
ENDCHAR
STARTCHAR 015E
ENCODING 350
SWIDTH 540 0
DWIDTH 9 0
BBX 7 14 1 -3
BITMAP
7C
FC
C4
C0
F0
7C
1E
06
8E
FC
FC
30
10
70
ENDCHAR
STARTCHAR 015F
ENCODING 351
SWIDTH 540 0
DWIDTH 9 0
BBX 6 11 1 -3
BITMAP
7C
FC
C4
F0
3C
8C
FC
7C
30
18
70
ENDCHAR
STARTCHAR 0160
ENCODING 352
SWIDTH 540 0
DWIDTH 9 0
BBX 7 15 1 0
BITMAP
48
38
10
00
7C
FC
C4
C0
F0
7C
1E
06
86
FC
F8
ENDCHAR
STARTCHAR 0161
ENCODING 353
SWIDTH 540 0
DWIDTH 9 0
BBX 7 12 1 0
BITMAP
48
38
10
00
7C
FC
C0
70
3C
8E
FC
F8
ENDCHAR
STARTCHAR 0162
ENCODING 354
SWIDTH 540 0
DWIDTH 9 0
BBX 8 14 0 -3
BITMAP
FF
FF
18
18
18
18
18
18
18
18
18
18
0C
38
ENDCHAR
STARTCHAR 0163
ENCODING 355
SWIDTH 540 0
DWIDTH 9 0
BBX 7 13 1 -3
BITMAP
70
70
FE
FE
70
70
70
70
3E
3E
18
0C
18
ENDCHAR
STARTCHAR 0164
ENCODING 356
SWIDTH 540 0
DWIDTH 9 0
BBX 8 15 0 0
BITMAP
24
1C
08
00
FF
FF
18
18
18
18
18
18
18
18
18
ENDCHAR
STARTCHAR 0165
ENCODING 357
SWIDTH 540 0
DWIDTH 9 0
BBX 7 12 1 0
BITMAP
04
04
74
70
FE
FE
70
70
70
70
3E
3E
ENDCHAR
STARTCHAR 0166
ENCODING 358
SWIDTH 540 0
DWIDTH 9 0
BBX 8 11 0 0
BITMAP
FF
FF
18
18
18
7E
7E
18
18
18
18
ENDCHAR
STARTCHAR 0167
ENCODING 359
SWIDTH 540 0
DWIDTH 9 0
BBX 7 11 1 0
BITMAP
70
70
FE
FE
70
FE
FE
70
70
3E
3E
ENDCHAR
STARTCHAR 0168
ENCODING 360
SWIDTH 540 0
DWIDTH 9 0
BBX 7 14 1 0
BITMAP
64
7C
58
C6
C6
C6
C6
C6
C6
C6
C6
CE
FC
78
ENDCHAR
STARTCHAR 0169
ENCODING 361
SWIDTH 540 0
DWIDTH 9 0
BBX 6 12 1 0
BITMAP
64
7C
58
00
CC
CC
CC
CC
CC
CC
FC
7C
ENDCHAR
STARTCHAR 016A
ENCODING 362
SWIDTH 540 0
DWIDTH 9 0
BBX 7 13 1 0
BITMAP
7C
00
C6
C6
C6
C6
C6
C6
C6
C6
CE
FC
78
ENDCHAR
STARTCHAR 016B
ENCODING 363
SWIDTH 540 0
DWIDTH 9 0
BBX 6 11 1 0
BITMAP
7C
00
00
CC
CC
CC
CC
CC
CC
FC
7C
ENDCHAR
STARTCHAR 016C
ENCODING 364
SWIDTH 540 0
DWIDTH 9 0
BBX 7 14 1 0
BITMAP
4C
78
00
C6
C6
C6
C6
C6
C6
C6
C6
CE
FC
78
ENDCHAR
STARTCHAR 016D
ENCODING 365
SWIDTH 540 0
DWIDTH 9 0
BBX 6 12 1 0
BITMAP
4C
78
00
00
CC
CC
CC
CC
CC
CC
FC
7C
ENDCHAR
STARTCHAR 016E
ENCODING 366
SWIDTH 540 0
DWIDTH 9 0
BBX 7 14 1 0
BITMAP
38
68
38
C6
C6
C6
C6
C6
C6
C6
C6
CE
FC
78
ENDCHAR
STARTCHAR 016F
ENCODING 367
SWIDTH 540 0
DWIDTH 9 0
BBX 6 12 1 0
BITMAP
38
68
38
00
CC
CC
CC
CC
CC
CC
FC
7C
ENDCHAR
STARTCHAR 0170
ENCODING 368
SWIDTH 540 0
DWIDTH 9 0
BBX 7 15 1 0
BITMAP
26
7C
48
00
C6
C6
C6
C6
C6
C6
C6
C6
CE
FC
78
ENDCHAR
STARTCHAR 0171
ENCODING 369
SWIDTH 540 0
DWIDTH 9 0
BBX 6 12 1 0
BITMAP
24
6C
48
00
CC
CC
CC
CC
CC
CC
FC
7C
ENDCHAR
STARTCHAR 0172
ENCODING 370
SWIDTH 540 0
DWIDTH 9 0
BBX 7 14 1 -3
BITMAP
C6
C6
C6
C6
C6
C6
C6
C6
CE
FC
7C
18
30
18
ENDCHAR
STARTCHAR 0173
ENCODING 371
SWIDTH 540 0
DWIDTH 9 0
BBX 6 11 1 -3
BITMAP
CC
CC
CC
CC
CC
CC
FC
7C
0C
18
1C
ENDCHAR
STARTCHAR 0174
ENCODING 372
SWIDTH 540 0
DWIDTH 9 0
BBX 8 15 0 0
BITMAP
08
1C
34
00
C3
C3
C3
43
5B
5B
5F
77
77
67
63
ENDCHAR
STARTCHAR 0175
ENCODING 373
SWIDTH 540 0
DWIDTH 9 0
BBX 8 12 0 0
BITMAP
08
1C
34
00
C1
C3
DB
5B
5F
57
76
66
ENDCHAR
STARTCHAR 0176
ENCODING 374
SWIDTH 540 0
DWIDTH 9 0
BBX 8 15 0 0
BITMAP
08
1C
34
00
E3
63
66
36
36
1C
18
18
18
18
18
ENDCHAR
STARTCHAR 0177
ENCODING 375
SWIDTH 540 0
DWIDTH 9 0
BBX 8 15 0 -3
BITMAP
08
1C
34
00
63
63
66
36
36
1C
1C
1C
18
78
F0
ENDCHAR
STARTCHAR 0178
ENCODING 376
SWIDTH 540 0
DWIDTH 9 0
BBX 8 14 0 0
BITMAP
36
36
00
E3
63
66
36
36
1C
18
18
18
18
18
ENDCHAR
STARTCHAR 0179
ENCODING 377
SWIDTH 540 0
DWIDTH 9 0
BBX 7 15 1 0
BITMAP
08
38
20
00
FE
FC
0C
18
18
30
60
60
C0
FE
FE
ENDCHAR
STARTCHAR 017A
ENCODING 378
SWIDTH 540 0
DWIDTH 9 0
BBX 6 12 1 0
BITMAP
08
38
20
00
FC
FC
1C
38
30
60
FC
FC
ENDCHAR
STARTCHAR 017B
ENCODING 379
SWIDTH 540 0
DWIDTH 9 0
BBX 7 14 1 0
BITMAP
30
30
00
FE
FC
0C
18
18
30
60
60
C0
FE
FE
ENDCHAR
STARTCHAR 017C
ENCODING 380
SWIDTH 540 0
DWIDTH 9 0
BBX 6 11 1 0
BITMAP
30
30
00
FC
FC
1C
38
30
60
FC
FC
ENDCHAR
STARTCHAR 017D
ENCODING 381
SWIDTH 540 0
DWIDTH 9 0
BBX 7 15 1 0
BITMAP
48
38
10
00
FE
FC
0C
18
18
30
60
60
C0
FE
FE
ENDCHAR
STARTCHAR 017E
ENCODING 382
SWIDTH 540 0
DWIDTH 9 0
BBX 6 12 1 0
BITMAP
48
38
10
00
FC
FC
1C
38
30
60
FC
FC
ENDCHAR
STARTCHAR 017F
ENCODING 383
SWIDTH 540 0
DWIDTH 9 0
BBX 6 12 2 0
BITMAP
3C
7C
E0
C0
C0
C0
C0
C0
C0
C0
C0
C0
ENDCHAR
STARTCHAR 0180
ENCODING 384
SWIDTH 540 0
DWIDTH 9 0
BBX 8 12 0 0
BITMAP
60
FC
60
60
7E
7E
63
63
63
67
7E
7C
ENDCHAR
STARTCHAR 0181
ENCODING 385
SWIDTH 540 0
DWIDTH 9 0
BBX 8 11 0 0
BITMAP
7E
FF
D3
93
1E
1E
13
13
13
1F
1E
ENDCHAR
STARTCHAR 0182
ENCODING 386
SWIDTH 540 0
DWIDTH 9 0
BBX 7 11 1 0
BITMAP
FC
FC
C0
C0
F8
FC
C6
C6
C6
FC
F8
ENDCHAR
STARTCHAR 0183
ENCODING 387
SWIDTH 540 0
DWIDTH 9 0
BBX 7 12 1 0
BITMAP
FC
FC
C0
C0
FC
FC
C6
C6
C6
CE
FC
F8
ENDCHAR
STARTCHAR 0184
ENCODING 388
SWIDTH 540 0
DWIDTH 9 0
BBX 8 12 0 0
BITMAP
60
E0
60
60
7E
7E
67
63
63
67
7E
7C
ENDCHAR
STARTCHAR 0185
ENCODING 389
SWIDTH 540 0
DWIDTH 9 0
BBX 8 11 0 0
BITMAP
60
E0
60
60
7E
7F
63
63
63
7E
7C
ENDCHAR
STARTCHAR 0186
ENCODING 390
SWIDTH 540 0
DWIDTH 9 0
BBX 7 11 1 0
BITMAP
F8
FC
8C
0E
06
06
06
06
8C
FC
F8
ENDCHAR
STARTCHAR 0187
ENCODING 391
SWIDTH 540 0
DWIDTH 9 0
BBX 9 12 0 0
BITMAP
0380
1F80
3E00
7200
6000
6000
E000
E000
6000
6200
3E00
1E00
ENDCHAR
STARTCHAR 0188
ENCODING 392
SWIDTH 540 0
DWIDTH 9 0
BBX 8 9 1 0
BITMAP
07
3F
FC
C0
C0
C0
C0
FC
3C
ENDCHAR
STARTCHAR 0189
ENCODING 393
SWIDTH 540 0
DWIDTH 9 0
BBX 8 11 0 0
BITMAP
7C
7E
67
63
FB
FB
63
63
67
7E
7C
ENDCHAR
STARTCHAR 018A
ENCODING 394
SWIDTH 540 0
DWIDTH 9 0
BBX 8 11 0 0
BITMAP
7C
FE
D3
D3
13
13
13
13
13
1E
1C
ENDCHAR
STARTCHAR 018B
ENCODING 395
SWIDTH 540 0
DWIDTH 9 0
BBX 7 11 1 0
BITMAP
FE
FE
0E
0E
7E
FE
CE
CE
CE
FE
7E
ENDCHAR
STARTCHAR 018C
ENCODING 396
SWIDTH 540 0
DWIDTH 9 0
BBX 7 12 0 0
BITMAP
7E
7E
06
06
3E
7E
66
E6
E6
66
7E
3E
ENDCHAR
STARTCHAR 018D
ENCODING 397
SWIDTH 540 0
DWIDTH 9 0
BBX 7 11 1 -3
BITMAP
78
FC
CE
C6
C6
EC
7C
18
0C
7C
F8
ENDCHAR
STARTCHAR 018E
ENCODING 398
SWIDTH 540 0
DWIDTH 9 0
BBX 7 11 1 0
BITMAP
FE
FE
06
06
7E
7E
06
06
06
FE
FE
ENDCHAR
STARTCHAR 018F
ENCODING 399
SWIDTH 540 0
DWIDTH 9 0
BBX 8 11 0 0
BITMAP
7C
7E
06
03
03
FF
FF
43
66
7E
3C
ENDCHAR
STARTCHAR 0190
ENCODING 400
SWIDTH 540 0
DWIDTH 9 0
BBX 7 11 1 0
BITMAP
7C
FE
C4
C0
7C
7C
C0
C0
C2
FE
7C
ENDCHAR
STARTCHAR 0191
ENCODING 401
SWIDTH 540 0
DWIDTH 9 0
BBX 9 14 -1 -3
BITMAP
3F80
3F80
3000
3000
3000
3F00
3F00
3000
3000
3000
3000
3000
F000
E000
ENDCHAR
STARTCHAR 0192
ENCODING 402
SWIDTH 540 0
DWIDTH 9 0
BBX 8 15 0 -3
BITMAP
0F
1F
38
30
7F
7F
30
30
30
30
30
30
30
F0
E0
ENDCHAR
STARTCHAR 0193
ENCODING 403
SWIDTH 540 0
DWIDTH 9 0
BBX 9 12 0 0
BITMAP
0380
1F80
3E00
7200
6000
6000
E300
E300
6300
6300
3F00
1F00
ENDCHAR
STARTCHAR 0194
ENCODING 404
SWIDTH 540 0
DWIDTH 9 0
BBX 8 14 0 -3
BITMAP
C3
63
66
26
34
1C
1C
1C
3C
36
36
36
3E
1C
ENDCHAR
STARTCHAR 0195
ENCODING 405
SWIDTH 540 0
DWIDTH 9 0
BBX 8 12 0 0
BITMAP
C0
C0
C0
C0
F9
F9
D9
D9
D9
DB
CF
CE
ENDCHAR
STARTCHAR 0196
ENCODING 406
SWIDTH 540 0
DWIDTH 9 0
BBX 7 11 1 0
BITMAP
FC
FC
30
30
30
30
30
30
30
3E
1E
ENDCHAR
STARTCHAR 0197
ENCODING 407
SWIDTH 540 0
DWIDTH 9 0
BBX 7 11 1 0
BITMAP
FE
FE
30
30
7C
7C
30
30
30
FE
FE
ENDCHAR
STARTCHAR 0198
ENCODING 408
SWIDTH 540 0
DWIDTH 9 0
BBX 8 11 1 0
BITMAP
C7
CE
D8
D8
F0
F0
F8
DC
CC
CE
C6
ENDCHAR
STARTCHAR 0199
ENCODING 409
SWIDTH 540 0
DWIDTH 9 0
BBX 7 12 1 0
BITMAP
70
F0
C0
C0
CE
DC
D8
F0
D8
DC
CC
C6
ENDCHAR
STARTCHAR 019A
ENCODING 410
SWIDTH 540 0
DWIDTH 9 0
BBX 7 12 1 0
BITMAP
F0
F0
30
30
30
FE
30
30
30
38
1E
1E
ENDCHAR
STARTCHAR 019B
ENCODING 411
SWIDTH 540 0
DWIDTH 9 0
BBX 8 12 0 0
BITMAP
F0
7E
3C
7C
1C
1C
3E
36
76
66
67
E3
ENDCHAR
STARTCHAR 019C
ENCODING 412
SWIDTH 540 0
DWIDTH 9 0
BBX 8 11 0 0
BITMAP
C1
C1
C1
C1
D9
D9
D9
D9
D9
7F
7F
ENDCHAR
STARTCHAR 019D
ENCODING 413
SWIDTH 540 0
DWIDTH 9 0
BBX 9 14 -1 -3
BITMAP
3180
3180
3980
3980
3D80
3D80
3780
3780
3380
3380
3180
3000
E000
E000
ENDCHAR
STARTCHAR 019E
ENCODING 414
SWIDTH 540 0
DWIDTH 9 0
BBX 7 11 1 -3
BITMAP
F8
FC
CC
CC
CE
CE
CE
CE
0E
0E
0E
ENDCHAR
STARTCHAR 019F
ENCODING 415
SWIDTH 540 0
DWIDTH 9 0
BBX 8 11 0 0
BITMAP
3C
7E
67
63
E3
FF
FF
63
67
7E
3C
ENDCHAR
STARTCHAR 01A0
ENCODING 416
SWIDTH 540 0
DWIDTH 9 0
BBX 8 12 0 0
BITMAP
01
3F
7F
67
63
E3
E3
E3
63
67
7E
3C
ENDCHAR
STARTCHAR 01A1
ENCODING 417
SWIDTH 540 0
DWIDTH 9 0
BBX 7 10 1 0
BITMAP
02
02
7E
FE
CE
C6
C6
CE
FC
78
ENDCHAR
STARTCHAR 01A2
ENCODING 418
SWIDTH 540 0
DWIDTH 9 0
BBX 7 11 1 0
BITMAP
EC
FE
96
96
96
96
96
96
96
F6
66
ENDCHAR
STARTCHAR 01A3
ENCODING 419
SWIDTH 540 0
DWIDTH 9 0
BBX 8 11 0 -3
BITMAP
7E
7B
C9
CD
CD
C9
79
71
01
01
01
ENDCHAR
STARTCHAR 01A4
ENCODING 420
SWIDTH 540 0
DWIDTH 9 0
BBX 8 11 0 0
BITMAP
7E
FF
D3
D3
13
1F
1E
10
10
10
10
ENDCHAR
STARTCHAR 01A5
ENCODING 421
SWIDTH 540 0
DWIDTH 9 0
BBX 7 15 1 -3
BITMAP
70
F0
C0
C0
F8
FC
CE
C6
C6
CE
FC
FC
C0
C0
C0
ENDCHAR
STARTCHAR 01A6
ENCODING 422
SWIDTH 540 0
DWIDTH 9 0
BBX 8 14 1 -2
BITMAP
C0
F8
FC
CC
CE
CE
FC
F8
D8
CC
CC
C6
06
07
ENDCHAR
STARTCHAR 01A7
ENCODING 423
SWIDTH 540 0
DWIDTH 9 0
BBX 7 11 1 0
BITMAP
78
FC
8E
0E
1C
7C
F0
C0
C4
FE
7C
ENDCHAR
STARTCHAR 01A8
ENCODING 424
SWIDTH 540 0
DWIDTH 9 0
BBX 6 8 1 0
BITMAP
F8
7C
0C
7C
F8
C4
FC
7C
ENDCHAR
STARTCHAR 01A9
ENCODING 425
SWIDTH 540 0
DWIDTH 9 0
BBX 8 11 0 0
BITMAP
7F
7F
30
18
18
0C
18
30
20
7F
FF
ENDCHAR
STARTCHAR 01AA
ENCODING 426
SWIDTH 540 0
DWIDTH 9 0
BBX 8 15 0 -3
BITMAP
78
F8
CC
FC
7C
0C
0C
0C
0C
0C
0C
0C
0C
0F
07
ENDCHAR
STARTCHAR 01AB
ENCODING 427
SWIDTH 540 0
DWIDTH 9 0
BBX 7 13 1 -3
BITMAP
60
60
FE
FE
60
60
60
70
3E
3E
06
1E
1C
ENDCHAR
STARTCHAR 01AC
ENCODING 428
SWIDTH 540 0
DWIDTH 9 0
BBX 8 11 0 0
BITMAP
7F
FF
DC
DC
1C
1C
1C
1C
1C
1C
1C
ENDCHAR
STARTCHAR 01AD
ENCODING 429
SWIDTH 540 0
DWIDTH 9 0
BBX 7 12 1 0
BITMAP
1E
3E
70
60
FE
FE
60
60
60
70
3E
3E
ENDCHAR
STARTCHAR 01AE
ENCODING 430
SWIDTH 540 0
DWIDTH 9 0
BBX 8 14 0 -3
BITMAP
FF
FF
18
18
18
18
18
18
18
18
18
18
1E
0E
ENDCHAR
STARTCHAR 01AF
ENCODING 431
SWIDTH 540 0
DWIDTH 9 0
BBX 8 12 1 0
BITMAP
03
CF
CE
CC
CC
CC
CC
CC
CC
CC
FC
78
ENDCHAR
STARTCHAR 01B0
ENCODING 432
SWIDTH 540 0
DWIDTH 9 0
BBX 7 9 1 0
BITMAP
02
CE
CE
CC
CC
CC
CC
FC
7C
ENDCHAR
STARTCHAR 01B1
ENCODING 433
SWIDTH 540 0
DWIDTH 9 0
BBX 8 11 0 0
BITMAP
F7
F7
66
63
C3
C3
C3
E3
67
7E
3C
ENDCHAR
STARTCHAR 01B2
ENCODING 434
SWIDTH 540 0
DWIDTH 9 0
BBX 7 11 1 0
BITMAP
DC
DC
C6
C6
C6
C6
C6
C6
CE
FC
78
ENDCHAR
STARTCHAR 01B3
ENCODING 435
SWIDTH 540 0
DWIDTH 9 0
BBX 9 11 0 0
BITMAP
E380
6700
6600
6400
3C00
3C00
1800
1800
1800
1800
1800
ENDCHAR
STARTCHAR 01B4
ENCODING 436
SWIDTH 540 0
DWIDTH 9 0
BBX 9 11 0 -3
BITMAP
6380
6700
6600
3600
3C00
3C00
1C00
1800
1800
7800
F000
ENDCHAR
STARTCHAR 01B5
ENCODING 437
SWIDTH 540 0
DWIDTH 9 0
BBX 7 11 1 0
BITMAP
FE
FC
0C
18
FE
FE
60
60
C0
FE
FE
ENDCHAR
STARTCHAR 01B6
ENCODING 438
SWIDTH 540 0
DWIDTH 9 0
BBX 6 8 1 0
BITMAP
FC
FC
1C
18
FC
60
FC
FC
ENDCHAR
STARTCHAR 01B7
ENCODING 439
SWIDTH 540 0
DWIDTH 9 0
BBX 7 11 1 0
BITMAP
FE
FE
0C
18
38
3C
06
06
86
FE
FC
ENDCHAR
STARTCHAR 01B8
ENCODING 440
SWIDTH 540 0
DWIDTH 9 0
BBX 7 11 1 0
BITMAP
FE
FE
60
70
38
78
C0
C0
C2
FE
7C
ENDCHAR
STARTCHAR 01B9
ENCODING 441
SWIDTH 540 0
DWIDTH 9 0
BBX 7 11 1 -3
BITMAP
FE
FE
60
30
38
78
C0
C0
C0
FE
7E
ENDCHAR
STARTCHAR 01BA
ENCODING 442
SWIDTH 540 0
DWIDTH 9 0
BBX 7 11 1 -3
BITMAP
FC
FC
1C
38
3C
0E
06
3C
F8
C0
C0
ENDCHAR
STARTCHAR 01BB
ENCODING 443
SWIDTH 540 0
DWIDTH 9 0
BBX 7 11 1 0
BITMAP
78
FC
8C
0C
0C
FE
FE
60
C0
FE
FE
ENDCHAR
STARTCHAR 01BC
ENCODING 444
SWIDTH 540 0
DWIDTH 9 0
BBX 8 11 0 0
BITMAP
FF
FF
30
20
3E
3E
03
03
43
7E
7C
ENDCHAR
STARTCHAR 01BD
ENCODING 445
SWIDTH 540 0
DWIDTH 9 0
BBX 7 8 1 0
BITMAP
FE
FE
40
7C
0E
06
FC
F8
ENDCHAR
STARTCHAR 01BE
ENCODING 446
SWIDTH 540 0
DWIDTH 9 0
BBX 7 11 1 0
BITMAP
60
60
60
FC
FC
60
3C
0E
46
7E
7C
ENDCHAR
STARTCHAR 01BF
ENCODING 447
SWIDTH 540 0
DWIDTH 9 0
BBX 7 11 1 -3
BITMAP
F8
FC
CE
C6
C6
CE
DC
F8
E0
C0
C0
ENDCHAR
STARTCHAR 01C0
ENCODING 448
SWIDTH 540 0
DWIDTH 9 0
BBX 2 15 3 -3
BITMAP
C0
C0
C0
C0
C0
C0
C0
C0
C0
C0
C0
C0
C0
C0
C0
ENDCHAR
STARTCHAR 01C1
ENCODING 449
SWIDTH 540 0
DWIDTH 9 0
BBX 5 15 2 -3
BITMAP
D8
D8
D8
D8
D8
D8
D8
D8
D8
D8
D8
D8
D8
D8
D8
ENDCHAR
STARTCHAR 01C2
ENCODING 450
SWIDTH 540 0
DWIDTH 9 0
BBX 8 15 0 -3
BITMAP
18
18
18
18
18
FF
FF
18
FF
FF
18
18
18
18
18
ENDCHAR
STARTCHAR 01C3
ENCODING 451
SWIDTH 540 0
DWIDTH 9 0
BBX 2 11 3 0
BITMAP
C0
C0
C0
C0
C0
C0
C0
C0
00
C0
C0
ENDCHAR
STARTCHAR 01C4
ENCODING 452
SWIDTH 540 0
DWIDTH 9 0
BBX 9 14 0 0
BITMAP
0480
0300
0000
E700
F700
D900
DB00
DA00
DA00
DA00
DE00
DE00
F700
E700
ENDCHAR
STARTCHAR 01C5
ENCODING 453
SWIDTH 540 0
DWIDTH 9 0
BBX 9 12 0 0
BITMAP
0480
E300
F000
D800
DF00
DF00
D900
DA00
DA00
DA00
F700
E700
ENDCHAR
STARTCHAR 01C6
ENCODING 454
SWIDTH 540 0
DWIDTH 9 0
BBX 9 12 0 0
BITMAP
1480
1300
1000
1000
7700
F700
D100
D200
D200
D200
7700
7700
ENDCHAR
STARTCHAR 01C7
ENCODING 455
SWIDTH 540 0
DWIDTH 9 0
BBX 8 11 0 0
BITMAP
C1
C1
C1
C1
C1
C1
C1
C1
C1
F7
F6
ENDCHAR
STARTCHAR 01C8
ENCODING 456
SWIDTH 540 0
DWIDTH 9 0
BBX 7 14 1 -3
BITMAP
86
86
80
86
86
86
86
86
86
F6
F6
06
1E
1C
ENDCHAR
STARTCHAR 01C9
ENCODING 457
SWIDTH 540 0
DWIDTH 9 0
BBX 7 15 1 -3
BITMAP
80
86
86
80
86
86
86
86
86
C6
E6
66
06
1C
1C
ENDCHAR
STARTCHAR 01CA
ENCODING 458
SWIDTH 540 0
DWIDTH 9 0
BBX 8 11 0 0
BITMAP
D9
D9
D9
F9
F9
F9
F9
D9
D9
DF
DE
ENDCHAR
STARTCHAR 01CB
ENCODING 459
SWIDTH 540 0
DWIDTH 9 0
BBX 8 14 0 -3
BITMAP
DB
DB
D8
FB
FB
FB
FB
DB
DB
DB
DB
03
0E
0E
ENDCHAR
STARTCHAR 01CC
ENCODING 460
SWIDTH 540 0
DWIDTH 9 0
BBX 8 14 0 -3
BITMAP
03
03
00
FB
FB
CB
CB
CB
CB
CB
CB
03
0F
0E
ENDCHAR
STARTCHAR 01CD
ENCODING 461
SWIDTH 540 0
DWIDTH 9 0
BBX 8 15 0 0
BITMAP
24
1C
08
00
1C
1C
3C
34
36
26
7E
7F
63
63
C3
ENDCHAR
STARTCHAR 01CE
ENCODING 462
SWIDTH 540 0
DWIDTH 9 0
BBX 7 12 1 0
BITMAP
48
38
10
00
78
7C
0C
7E
FE
CE
FE
7E
ENDCHAR
STARTCHAR 01CF
ENCODING 463
SWIDTH 540 0
DWIDTH 9 0
BBX 7 15 1 0
BITMAP
48
38
10
00
FE
FE
30
30
30
30
30
30
30
FE
FE
ENDCHAR
STARTCHAR 01D0
ENCODING 464
SWIDTH 540 0
DWIDTH 9 0
BBX 7 12 1 0
BITMAP
48
78
30
00
F0
F0
30
30
30
32
3E
1E
ENDCHAR
STARTCHAR 01D1
ENCODING 465
SWIDTH 540 0
DWIDTH 9 0
BBX 8 15 0 0
BITMAP
24
1C
08
00
3C
7E
67
63
E3
E3
E3
63
67
7E
3C
ENDCHAR
STARTCHAR 01D2
ENCODING 466
SWIDTH 540 0
DWIDTH 9 0
BBX 7 12 1 0
BITMAP
48
38
10
00
78
FC
CE
C6
C6
CE
FC
78
ENDCHAR
STARTCHAR 01D3
ENCODING 467
SWIDTH 540 0
DWIDTH 9 0
BBX 7 15 1 0
BITMAP
48
38
10
00
C6
C6
C6
C6
C6
C6
C6
C6
CE
FC
78
ENDCHAR
STARTCHAR 01D4
ENCODING 468
SWIDTH 540 0
DWIDTH 9 0
BBX 6 12 1 0
BITMAP
48
38
10
00
CC
CC
CC
CC
CC
CC
FC
7C
ENDCHAR
STARTCHAR 01D5
ENCODING 469
SWIDTH 540 0
DWIDTH 9 0
BBX 7 14 1 0
BITMAP
78
6C
6C
00
C6
C6
C6
C6
C6
C6
C6
CE
FC
78
ENDCHAR
STARTCHAR 01D6
ENCODING 470
SWIDTH 540 0
DWIDTH 9 0
BBX 6 13 1 0
BITMAP
78
00
6C
6C
00
CC
CC
CC
CC
CC
CC
FC
7C
ENDCHAR
STARTCHAR 01D7
ENCODING 471
SWIDTH 540 0
DWIDTH 9 0
BBX 7 14 1 0
BITMAP
10
DC
CC
00
C6
C6
C6
C6
C6
C6
C6
CE
FC
78
ENDCHAR
STARTCHAR 01D8
ENCODING 472
SWIDTH 540 0
DWIDTH 9 0
BBX 6 13 1 0
BITMAP
08
18
DC
CC
00
CC
CC
CC
CC
CC
CC
FC
7C
ENDCHAR
STARTCHAR 01D9
ENCODING 473
SWIDTH 540 0
DWIDTH 9 0
BBX 7 14 1 0
BITMAP
30
FC
DC
00
C6
C6
C6
C6
C6
C6
C6
CE
FC
78
ENDCHAR
STARTCHAR 01DA
ENCODING 474
SWIDTH 540 0
DWIDTH 9 0
BBX 6 13 1 0
BITMAP
48
38
DC
CC
00
CC
CC
CC
CC
CC
CC
FC
7C
ENDCHAR
STARTCHAR 01DB
ENCODING 475
SWIDTH 540 0
DWIDTH 9 0
BBX 7 14 1 0
BITMAP
20
DC
CC
00
C6
C6
C6
C6
C6
C6
C6
CE
FC
78
ENDCHAR
STARTCHAR 01DC
ENCODING 476
SWIDTH 540 0
DWIDTH 9 0
BBX 6 13 1 0
BITMAP
20
30
DC
CC
00
CC
CC
CC
CC
CC
CC
FC
7C
ENDCHAR
STARTCHAR 01DD
ENCODING 477
SWIDTH 540 0
DWIDTH 9 0
BBX 7 8 1 0
BITMAP
F8
FC
06
FE
FE
C6
FC
78
ENDCHAR
STARTCHAR 01DE
ENCODING 478
SWIDTH 540 0
DWIDTH 9 0
BBX 8 14 0 0
BITMAP
3C
36
36
00
1C
1C
3C
36
36
66
7E
7F
63
C3
ENDCHAR
STARTCHAR 01DF
ENCODING 479
SWIDTH 540 0
DWIDTH 9 0
BBX 7 13 1 0
BITMAP
78
00
6C
6C
00
78
7C
0C
7E
FE
CE
FE
7E
ENDCHAR
STARTCHAR 01E0
ENCODING 480
SWIDTH 540 0
DWIDTH 9 0
BBX 8 14 0 0
BITMAP
3C
18
18
00
1C
1C
3C
36
36
66
7E
7F
63
C3
ENDCHAR
STARTCHAR 01E1
ENCODING 481
SWIDTH 540 0
DWIDTH 9 0
BBX 7 13 1 0
BITMAP
78
00
30
30
00
78
7C
0C
7E
FE
CE
FE
7E
ENDCHAR
STARTCHAR 01E2
ENCODING 482
SWIDTH 540 0
DWIDTH 9 0
BBX 8 13 0 0
BITMAP
1F
00
1F
1F
1C
3C
3F
2F
7C
7C
6C
6F
CF
ENDCHAR
STARTCHAR 01E3
ENCODING 483
SWIDTH 540 0
DWIDTH 9 0
BBX 8 11 0 0
BITMAP
3E
00
00
76
7F
09
7F
7F
C8
7F
77
ENDCHAR
STARTCHAR 01E4
ENCODING 484
SWIDTH 540 0
DWIDTH 9 0
BBX 8 11 0 0
BITMAP
1E
3E
72
60
60
E6
E6
6F
66
7E
1E
ENDCHAR
STARTCHAR 01E5
ENCODING 485
SWIDTH 540 0
DWIDTH 9 0
BBX 7 11 1 -3
BITMAP
7C
FC
CC
DE
CC
CC
FC
7C
8C
FC
F8
ENDCHAR
STARTCHAR 01E6
ENCODING 486
SWIDTH 540 0
DWIDTH 9 0
BBX 8 15 0 0
BITMAP
12
1E
08
00
1F
3F
71
60
60
E3
E3
63
63
3F
1F
ENDCHAR
STARTCHAR 01E7
ENCODING 487
SWIDTH 540 0
DWIDTH 9 0
BBX 6 15 1 -3
BITMAP
68
38
10
00
7C
FC
CC
CC
CC
CC
FC
7C
8C
FC
F8
ENDCHAR
STARTCHAR 01E8
ENCODING 488
SWIDTH 540 0
DWIDTH 9 0
BBX 7 15 1 0
BITMAP
48
38
10
00
CE
CC
DC
D8
F0
F0
F8
DC
CC
CE
C6
ENDCHAR
STARTCHAR 01E9
ENCODING 489
SWIDTH 540 0
DWIDTH 9 0
BBX 7 14 1 0
BITMAP
90
F0
20
C0
C0
C0
CE
DC
D8
F0
D8
DC
CC
C6
ENDCHAR
STARTCHAR 01EA
ENCODING 490
SWIDTH 540 0
DWIDTH 9 0
BBX 8 14 0 -3
BITMAP
3C
7E
67
63
E3
E3
E3
63
67
7E
3C
18
18
1C
ENDCHAR
STARTCHAR 01EB
ENCODING 491
SWIDTH 540 0
DWIDTH 9 0
BBX 7 11 1 -3
BITMAP
78
FC
CE
C6
C6
CE
FC
7C
38
30
38
ENDCHAR
STARTCHAR 01EC
ENCODING 492
SWIDTH 540 0
DWIDTH 9 0
BBX 8 16 0 -3
BITMAP
3E
00
3C
7E
67
63
E3
E3
E3
63
67
7E
3C
18
18
1C
ENDCHAR
STARTCHAR 01ED
ENCODING 493
SWIDTH 540 0
DWIDTH 9 0
BBX 7 14 1 -3
BITMAP
7C
00
00
78
FC
CE
C6
C6
CE
FC
7C
38
30
38
ENDCHAR
STARTCHAR 01EE
ENCODING 494
SWIDTH 540 0
DWIDTH 9 0
BBX 7 15 1 0
BITMAP
48
38
10
00
FE
FE
0C
18
38
3C
06
06
86
FE
FC
ENDCHAR
STARTCHAR 01EF
ENCODING 495
SWIDTH 540 0
DWIDTH 9 0
BBX 7 15 1 -3
BITMAP
48
38
10
00
FC
FC
08
10
38
7C
0C
0E
0C
FC
F8
ENDCHAR
STARTCHAR 01F0
ENCODING 496
SWIDTH 540 0
DWIDTH 9 0
BBX 6 15 1 -3
BITMAP
48
38
10
00
FC
FC
0C
0C
0C
0C
0C
0C
8C
F8
78
ENDCHAR
STARTCHAR 01F1
ENCODING 497
SWIDTH 540 0
DWIDTH 9 0
BBX 8 11 0 0
BITMAP
E7
F7
D9
DB
DA
DA
DA
DE
DE
F7
E7
ENDCHAR
STARTCHAR 01F2
ENCODING 498
SWIDTH 540 0
DWIDTH 9 0
BBX 8 11 0 0
BITMAP
E0
F0
D8
DF
DF
D9
DA
DA
DA
F7
E7
ENDCHAR
STARTCHAR 01F3
ENCODING 499
SWIDTH 540 0
DWIDTH 9 0
BBX 8 12 0 0
BITMAP
08
10
10
10
77
F7
D1
D2
D2
D2
77
77
ENDCHAR
STARTCHAR 01F4
ENCODING 500
SWIDTH 540 0
DWIDTH 9 0
BBX 8 15 0 0
BITMAP
04
1C
18
00
1F
3F
71
60
60
E3
E3
63
63
3F
1F
ENDCHAR
STARTCHAR 01F5
ENCODING 501
SWIDTH 540 0
DWIDTH 9 0
BBX 6 15 1 -3
BITMAP
08
38
20
00
7C
FC
CC
CC
CC
CC
FC
7C
8C
FC
F8
ENDCHAR
STARTCHAR 01F6
ENCODING 502
SWIDTH 540 0
DWIDTH 9 0
BBX 7 11 1 0
BITMAP
90
90
90
96
F6
F6
96
96
96
9E
9C
ENDCHAR
STARTCHAR 01F7
ENCODING 503
SWIDTH 540 0
DWIDTH 9 0
BBX 7 14 1 -3
BITMAP
F8
FC
CE
C6
C6
C6
C6
CC
DC
F8
E0
C0
C0
C0
ENDCHAR
STARTCHAR 01F8
ENCODING 504
SWIDTH 540 0
DWIDTH 9 0
BBX 7 15 1 0
BITMAP
20
70
18
00
C6
C6
E6
E6
F6
D6
DE
CE
CE
CE
C6
ENDCHAR
STARTCHAR 01F9
ENCODING 505
SWIDTH 540 0
DWIDTH 9 0
BBX 7 12 1 0
BITMAP
20
70
10
00
F8
FC
CC
CC
CE
CE
CE
CE
ENDCHAR
STARTCHAR 01FA
ENCODING 506
SWIDTH 540 0
DWIDTH 9 0
BBX 8 14 0 0
BITMAP
08
18
18
14
1C
1C
3C
36
36
66
7E
7F
63
C3
ENDCHAR
STARTCHAR 01FB
ENCODING 507
SWIDTH 540 0
DWIDTH 9 0
BBX 7 14 1 0
BITMAP
10
30
00
30
28
30
78
7C
0C
7E
FE
CE
FE
7E
ENDCHAR
STARTCHAR 01FC
ENCODING 508
SWIDTH 540 0
DWIDTH 9 0
BBX 8 15 0 0
BITMAP
02
0E
0C
00
1F
1F
1C
3C
3F
2F
7C
7C
6C
6F
CF
ENDCHAR
STARTCHAR 01FD
ENCODING 509
SWIDTH 540 0
DWIDTH 9 0
BBX 8 12 0 0
BITMAP
04
1E
18
00
76
7F
09
7F
7F
C8
7F
77
ENDCHAR
STARTCHAR 01FE
ENCODING 510
SWIDTH 540 0
DWIDTH 9 0
BBX 8 15 0 -1
BITMAP
04
1C
10
3E
7E
67
6F
EF
FB
FB
73
67
7E
7C
40
ENDCHAR
STARTCHAR 01FF
ENCODING 511
SWIDTH 540 0
DWIDTH 9 0
BBX 7 12 1 0
BITMAP
08
38
20
00
7E
FC
CE
D6
E6
EE
FC
F8
ENDCHAR
STARTCHAR 0200
ENCODING 512
SWIDTH 540 0
DWIDTH 9 0
BBX 8 15 0 0
BITMAP
24
6C
16
00
1C
1C
3C
34
36
26
7E
7F
63
63
C3
ENDCHAR
STARTCHAR 0201
ENCODING 513
SWIDTH 540 0
DWIDTH 9 0
BBX 7 12 1 0
BITMAP
48
68
24
00
78
7C
0C
7E
FE
CE
FE
7E
ENDCHAR
STARTCHAR 0202
ENCODING 514
SWIDTH 540 0
DWIDTH 9 0
BBX 8 14 0 0
BITMAP
3C
26
00
1C
1C
3C
34
36
26
7E
7F
63
63
C3
ENDCHAR
STARTCHAR 0203
ENCODING 515
SWIDTH 540 0
DWIDTH 9 0
BBX 7 11 1 0
BITMAP
78
4C
00
78
7C
0C
7E
FE
CE
FE
7E
ENDCHAR
STARTCHAR 0204
ENCODING 516
SWIDTH 540 0
DWIDTH 9 0
BBX 7 15 1 0
BITMAP
48
D8
2C
00
FC
FC
C0
C0
FC
FC
C0
C0
C0
FE
FE
ENDCHAR
STARTCHAR 0205
ENCODING 517
SWIDTH 540 0
DWIDTH 9 0
BBX 7 12 1 0
BITMAP
48
68
24
00
78
FC
C6
FE
FE
C0
FC
7C
ENDCHAR
STARTCHAR 0206
ENCODING 518
SWIDTH 540 0
DWIDTH 9 0
BBX 7 14 1 0
BITMAP
38
6C
00
FC
FC
C0
C0
FC
FC
C0
C0
C0
FE
FE
ENDCHAR
STARTCHAR 0207
ENCODING 519
SWIDTH 540 0
DWIDTH 9 0
BBX 7 11 1 0
BITMAP
78
4C
00
78
FC
C6
FE
FE
C0
FC
7C
ENDCHAR
STARTCHAR 0208
ENCODING 520
SWIDTH 540 0
DWIDTH 9 0
BBX 7 15 1 0
BITMAP
48
D8
2C
00
FE
FE
30
30
30
30
30
30
30
FE
FE
ENDCHAR
STARTCHAR 0209
ENCODING 521
SWIDTH 540 0
DWIDTH 9 0
BBX 7 12 1 0
BITMAP
90
D8
48
00
F0
F0
30
30
30
32
3E
1E
ENDCHAR
STARTCHAR 020A
ENCODING 522
SWIDTH 540 0
DWIDTH 9 0
BBX 7 14 1 0
BITMAP
78
4C
00
FE
FE
30
30
30
30
30
30
30
FE
FE
ENDCHAR
STARTCHAR 020B
ENCODING 523
SWIDTH 540 0
DWIDTH 9 0
BBX 7 11 1 0
BITMAP
70
D8
00
F0
F0
30
30
30
32
3E
1E
ENDCHAR
STARTCHAR 020C
ENCODING 524
SWIDTH 540 0
DWIDTH 9 0
BBX 8 15 0 0
BITMAP
24
6C
16
00
3C
7E
67
63
E3
E3
E3
63
67
7E
3C
ENDCHAR
STARTCHAR 020D
ENCODING 525
SWIDTH 540 0
DWIDTH 9 0
BBX 7 12 1 0
BITMAP
48
D8
2C
00
78
FC
CE
C6
C6
CE
FC
78
ENDCHAR
STARTCHAR 020E
ENCODING 526
SWIDTH 540 0
DWIDTH 9 0
BBX 8 14 0 0
BITMAP
3C
26
00
3C
7E
67
63
E3
E3
E3
63
67
7E
3C
ENDCHAR
STARTCHAR 020F
ENCODING 527
SWIDTH 540 0
DWIDTH 9 0
BBX 7 11 1 0
BITMAP
78
4C
00
78
FC
CE
C6
C6
CE
FC
78
ENDCHAR
STARTCHAR 0210
ENCODING 528
SWIDTH 540 0
DWIDTH 9 0
BBX 7 15 1 0
BITMAP
90
D8
48
00
F8
FC
CC
CE
CE
FC
F8
DC
CC
CE
C6
ENDCHAR
STARTCHAR 0211
ENCODING 529
SWIDTH 540 0
DWIDTH 9 0
BBX 6 12 2 0
BITMAP
90
D8
48
00
FC
FC
C0
C0
C0
C0
C0
C0
ENDCHAR
STARTCHAR 0212
ENCODING 530
SWIDTH 540 0
DWIDTH 9 0
BBX 7 14 1 0
BITMAP
78
48
00
F8
FC
CC
CE
CE
FC
F8
DC
CC
CE
C6
ENDCHAR
STARTCHAR 0213
ENCODING 531
SWIDTH 540 0
DWIDTH 9 0
BBX 6 11 2 0
BITMAP
70
C8
00
FC
FC
C0
C0
C0
C0
C0
C0
ENDCHAR
STARTCHAR 0214
ENCODING 532
SWIDTH 540 0
DWIDTH 9 0
BBX 7 15 1 0
BITMAP
48
D8
2C
00
C6
C6
C6
C6
C6
C6
C6
C6
CE
FC
78
ENDCHAR
STARTCHAR 0215
ENCODING 533
SWIDTH 540 0
DWIDTH 9 0
BBX 6 12 1 0
BITMAP
48
D8
2C
00
CC
CC
CC
CC
CC
CC
FC
7C
ENDCHAR
STARTCHAR 0216
ENCODING 534
SWIDTH 540 0
DWIDTH 9 0
BBX 7 14 1 0
BITMAP
78
4C
00
C6
C6
C6
C6
C6
C6
C6
C6
CE
FC
78
ENDCHAR
STARTCHAR 0217
ENCODING 535
SWIDTH 540 0
DWIDTH 9 0
BBX 6 11 1 0
BITMAP
78
4C
00
CC
CC
CC
CC
CC
CC
FC
7C
ENDCHAR
STARTCHAR 0218
ENCODING 536
SWIDTH 540 0
DWIDTH 9 0
BBX 7 14 1 -3
BITMAP
7C
FC
C4
C0
F0
7C
1E
06
86
FC
F8
00
30
70
ENDCHAR
STARTCHAR 0219
ENCODING 537
SWIDTH 540 0
DWIDTH 9 0
BBX 7 11 1 -3
BITMAP
7C
FC
C0
70
3C
8E
FC
F8
00
30
70
ENDCHAR
STARTCHAR 021A
ENCODING 538
SWIDTH 540 0
DWIDTH 9 0
BBX 8 14 0 -3
BITMAP
FF
FF
18
18
18
18
18
18
18
18
18
00
08
38
ENDCHAR
STARTCHAR 021B
ENCODING 539
SWIDTH 540 0
DWIDTH 9 0
BBX 7 13 1 -3
BITMAP
70
70
FE
FE
70
70
70
70
3E
3E
00
08
38
ENDCHAR
STARTCHAR 021C
ENCODING 540
SWIDTH 540 0
DWIDTH 9 0
BBX 7 14 1 -3
BITMAP
F8
FC
8C
0C
0C
7C
7C
0C
06
06
06
0C
FC
F0
ENDCHAR
STARTCHAR 021D
ENCODING 541
SWIDTH 540 0
DWIDTH 9 0
BBX 7 11 1 -3
BITMAP
F8
7C
0C
0C
38
3C
0C
0E
1C
FC
F0
ENDCHAR
STARTCHAR 021E
ENCODING 542
SWIDTH 540 0
DWIDTH 9 0
BBX 7 15 1 0
BITMAP
48
38
10
00
C6
C6
C6
C6
FE
FE
C6
C6
C6
C6
C6
ENDCHAR
STARTCHAR 021F
ENCODING 543
SWIDTH 540 0
DWIDTH 9 0
BBX 7 14 1 0
BITMAP
90
F0
20
C0
C0
C0
F8
FC
CC
CC
CE
CE
CE
CE
ENDCHAR
STARTCHAR 0220
ENCODING 544
SWIDTH 540 0
DWIDTH 9 0
BBX 7 14 1 -3
BITMAP
F8
FC
CE
C6
C6
C6
C6
C6
C6
C6
C6
06
06
06
ENDCHAR
STARTCHAR 0221
ENCODING 545
SWIDTH 540 0
DWIDTH 9 0
BBX 9 15 0 -3
BITMAP
0400
0C00
0C00
0C00
7C00
7C00
CC00
CC00
CC00
CC00
7C00
3F00
0D80
1D80
1700
ENDCHAR
STARTCHAR 0222
ENCODING 546
SWIDTH 540 0
DWIDTH 9 0
BBX 8 11 0 0
BITMAP
66
66
66
66
3E
7E
63
E3
63
7F
3E
ENDCHAR
STARTCHAR 0223
ENCODING 547
SWIDTH 540 0
DWIDTH 9 0
BBX 8 12 0 0
BITMAP
66
67
67
66
3E
3E
67
63
E3
67
7E
3C
ENDCHAR
STARTCHAR 0224
ENCODING 548
SWIDTH 540 0
DWIDTH 9 0
BBX 7 14 1 -3
BITMAP
FE
FE
0C
18
18
30
70
60
C0
FE
FE
06
1E
1C
ENDCHAR
STARTCHAR 0225
ENCODING 549
SWIDTH 540 0
DWIDTH 9 0
BBX 6 11 1 -3
BITMAP
FC
FC
18
38
30
60
FC
FC
04
1C
1C
ENDCHAR
STARTCHAR 0226
ENCODING 550
SWIDTH 540 0
DWIDTH 9 0
BBX 8 14 0 0
BITMAP
18
18
00
1C
1C
3C
34
36
26
7E
7F
63
63
C3
ENDCHAR
STARTCHAR 0227
ENCODING 551
SWIDTH 540 0
DWIDTH 9 0
BBX 7 11 1 0
BITMAP
30
30
00
78
7C
0C
7E
FE
CE
FE
7E
ENDCHAR
STARTCHAR 0228
ENCODING 552
SWIDTH 540 0
DWIDTH 9 0
BBX 7 14 1 -3
BITMAP
FC
FC
C0
C0
FC
FC
C0
C0
C0
FE
FE
10
08
38
ENDCHAR
STARTCHAR 0229
ENCODING 553
SWIDTH 540 0
DWIDTH 9 0
BBX 7 11 1 -3
BITMAP
78
FC
CE
C6
FE
C0
FC
7C
18
08
38
ENDCHAR
STARTCHAR 022A
ENCODING 554
SWIDTH 540 0
DWIDTH 9 0
BBX 8 14 0 0
BITMAP
3C
36
36
00
3C
7E
67
63
E3
E3
63
67
7E
3C
ENDCHAR
STARTCHAR 022B
ENCODING 555
SWIDTH 540 0
DWIDTH 9 0
BBX 7 13 1 0
BITMAP
78
00
6C
6C
00
78
FC
CE
C6
C6
CE
FC
78
ENDCHAR
STARTCHAR 022C
ENCODING 556
SWIDTH 540 0
DWIDTH 9 0
BBX 8 14 0 0
BITMAP
3C
32
3C
00
3C
7E
67
63
E3
E3
63
67
7E
3C
ENDCHAR
STARTCHAR 022D
ENCODING 557
SWIDTH 540 0
DWIDTH 9 0
BBX 7 12 1 0
BITMAP
78
64
58
00
78
FC
CE
C6
C6
CE
FC
78
ENDCHAR
STARTCHAR 022E
ENCODING 558
SWIDTH 540 0
DWIDTH 9 0
BBX 8 14 0 0
BITMAP
18
18
00
3C
7E
67
63
E3
E3
E3
63
67
7E
3C
ENDCHAR
STARTCHAR 022F
ENCODING 559
SWIDTH 540 0
DWIDTH 9 0
BBX 7 11 1 0
BITMAP
30
30
00
78
FC
CE
C6
C6
CE
FC
78
ENDCHAR
STARTCHAR 0230
ENCODING 560
SWIDTH 540 0
DWIDTH 9 0
BBX 8 14 0 0
BITMAP
3C
18
18
00
3C
7E
67
63
E3
E3
63
67
7E
3C
ENDCHAR
STARTCHAR 0231
ENCODING 561
SWIDTH 540 0
DWIDTH 9 0
BBX 7 13 1 0
BITMAP
78
00
30
30
00
78
FC
CE
C6
C6
CE
FC
78
ENDCHAR
STARTCHAR 0232
ENCODING 562
SWIDTH 540 0
DWIDTH 9 0
BBX 8 13 0 0
BITMAP
3E
00
E3
63
66
36
36
1C
18
18
18
18
18
ENDCHAR
STARTCHAR 0233
ENCODING 563
SWIDTH 540 0
DWIDTH 9 0
BBX 8 14 0 -3
BITMAP
3E
00
00
63
63
66
36
36
1C
1C
1C
18
78
F0
ENDCHAR
STARTCHAR 0234
ENCODING 564
SWIDTH 540 0
DWIDTH 9 0
BBX 7 15 1 -3
BITMAP
F0
F0
30
30
30
30
30
30
30
3C
3E
32
72
DE
5C
ENDCHAR
STARTCHAR 0235
ENCODING 565
SWIDTH 540 0
DWIDTH 9 0
BBX 9 11 0 -3
BITMAP
F800
FC00
CC00
CC00
CC00
CC00
CF00
CD80
0D80
1D80
1300
ENDCHAR
STARTCHAR 0236
ENCODING 566
SWIDTH 540 0
DWIDTH 9 0
BBX 7 14 1 -3
BITMAP
70
70
70
FE
FE
70
70
70
7C
7E
76
76
FE
BC
ENDCHAR
STARTCHAR 0237
ENCODING 567
SWIDTH 540 0
DWIDTH 9 0
BBX 6 11 1 -3
BITMAP
FC
FC
0C
0C
0C
0C
0C
0C
8C
F8
78
ENDCHAR
STARTCHAR 0238
ENCODING 568
SWIDTH 540 0
DWIDTH 9 0
BBX 8 12 0 0
BITMAP
18
18
18
18
7E
7F
5B
DB
DB
5B
7F
3E
ENDCHAR
STARTCHAR 0239
ENCODING 569
SWIDTH 540 0
DWIDTH 9 0
BBX 8 11 0 -3
BITMAP
3E
7F
5B
DB
DB
5B
7F
7E
18
18
18
ENDCHAR
STARTCHAR 023A
ENCODING 570
SWIDTH 540 0
DWIDTH 9 0
BBX 8 13 0 -1
BITMAP
04
1C
1C
3C
3C
3E
2E
7E
7F
73
73
D3
10
ENDCHAR
STARTCHAR 023B
ENCODING 571
SWIDTH 540 0
DWIDTH 9 0
BBX 8 14 0 -2
BITMAP
03
1E
3F
77
66
64
EC
EC
68
79
7F
3E
30
30
ENDCHAR
STARTCHAR 023C
ENCODING 572
SWIDTH 540 0
DWIDTH 9 0
BBX 7 11 1 -2
BITMAP
04
3E
7E
E8
D8
D0
D0
FE
7E
20
20
ENDCHAR
STARTCHAR 023D
ENCODING 573
SWIDTH 540 0
DWIDTH 9 0
BBX 8 11 0 0
BITMAP
30
30
30
30
FC
FC
30
30
30
3F
3F
ENDCHAR
STARTCHAR 023E
ENCODING 574
SWIDTH 540 0
DWIDTH 9 0
BBX 8 14 0 -2
BITMAP
01
FF
FF
1E
1E
1C
18
18
18
38
78
58
C0
80
ENDCHAR
STARTCHAR 023F
ENCODING 575
SWIDTH 540 0
DWIDTH 9 0
BBX 6 11 1 -3
BITMAP
7C
FC
C0
F0
3C
0C
FC
FC
E0
3C
1C
ENDCHAR
STARTCHAR 0240
ENCODING 576
SWIDTH 540 0
DWIDTH 9 0
BBX 7 11 1 -3
BITMAP
FC
FC
18
18
30
60
C0
F0
38
1E
0E
ENDCHAR
STARTCHAR 0241
ENCODING 577
SWIDTH 540 0
DWIDTH 9 0
BBX 7 11 1 0
BITMAP
78
FC
8E
06
0C
3C
30
30
30
30
30
ENDCHAR
STARTCHAR 0242
ENCODING 578
SWIDTH 540 0
DWIDTH 9 0
BBX 7 8 1 0
BITMAP
7C
FC
8E
0C
38
30
30
30
ENDCHAR
STARTCHAR 0243
ENCODING 579
SWIDTH 540 0
DWIDTH 9 0
BBX 8 11 0 0
BITMAP
7C
7E
66
66
7E
7E
63
FB
63
7F
7C
ENDCHAR
STARTCHAR 0244
ENCODING 580
SWIDTH 540 0
DWIDTH 9 0
BBX 8 11 0 0
BITMAP
66
66
66
66
FF
FF
66
66
66
7E
3C
ENDCHAR
STARTCHAR 0245
ENCODING 581
SWIDTH 540 0
DWIDTH 9 0
BBX 8 11 0 0
BITMAP
1C
1C
3C
34
36
26
66
67
63
63
C3
ENDCHAR
STARTCHAR 0246
ENCODING 582
SWIDTH 540 0
DWIDTH 9 0
BBX 7 14 1 -2
BITMAP
02
FE
FC
C4
CC
FC
FC
D8
D0
F0
FE
FE
20
60
ENDCHAR
STARTCHAR 0247
ENCODING 583
SWIDTH 540 0
DWIDTH 9 0
BBX 8 11 0 -2
BITMAP
04
3E
7F
6B
FF
F8
70
7E
3E
20
20
ENDCHAR
STARTCHAR 0248
ENCODING 584
SWIDTH 540 0
DWIDTH 9 0
BBX 7 11 1 0
BITMAP
7C
7C
0C
0C
3E
3E
0C
0C
8C
F8
F0
ENDCHAR
STARTCHAR 0249
ENCODING 585
SWIDTH 540 0
DWIDTH 9 0
BBX 7 15 1 -3
BITMAP
18
18
00
00
FC
FC
0C
FE
0C
0C
0C
0C
8C
F8
78
ENDCHAR
STARTCHAR 024A
ENCODING 586
SWIDTH 540 0
DWIDTH 9 0
BBX 9 14 0 -3
BITMAP
3C00
7E00
6600
6600
E600
E600
E600
6600
6600
7E00
3A00
0300
0380
0380
ENDCHAR
STARTCHAR 024B
ENCODING 587
SWIDTH 540 0
DWIDTH 9 0
BBX 8 11 1 -3
BITMAP
7C
FC
CC
CC
CC
CC
FC
7C
0C
0E
07
ENDCHAR
STARTCHAR 024C
ENCODING 588
SWIDTH 540 0
DWIDTH 9 0
BBX 8 11 0 0
BITMAP
3C
3E
37
37
37
FE
FC
3E
36
37
33
ENDCHAR
STARTCHAR 024D
ENCODING 589
SWIDTH 540 0
DWIDTH 9 0
BBX 8 8 0 0
BITMAP
3F
7F
60
60
FC
60
60
60
ENDCHAR
STARTCHAR 024E
ENCODING 590
SWIDTH 540 0
DWIDTH 9 0
BBX 8 11 0 0
BITMAP
63
63
FF
36
34
1C
18
18
18
18
18
ENDCHAR
STARTCHAR 024F
ENCODING 591
SWIDTH 540 0
DWIDTH 9 0
BBX 8 11 0 -3
BITMAP
63
66
FF
36
34
1C
1C
1C
18
78
F0
ENDCHAR
STARTCHAR 0292
ENCODING 658
SWIDTH 540 0
DWIDTH 9 0
BBX 7 11 1 -3
BITMAP
FC
FC
08
10
38
7C
0C
0E
0C
FC
F8
ENDCHAR
STARTCHAR 02BC
ENCODING 700
SWIDTH 540 0
DWIDTH 9 0
BBX 2 4 3 8
BITMAP
40
40
C0
C0
ENDCHAR
STARTCHAR 02C6
ENCODING 710
SWIDTH 540 0
DWIDTH 9 0
BBX 4 3 2 9
BITMAP
20
70
D0
ENDCHAR
STARTCHAR 02C7
ENCODING 711
SWIDTH 540 0
DWIDTH 9 0
BBX 4 3 2 9
BITMAP
90
70
20
ENDCHAR
STARTCHAR 02C9
ENCODING 713
SWIDTH 540 0
DWIDTH 9 0
BBX 5 2 2 9
BITMAP
F8
F8
ENDCHAR
STARTCHAR 02D8
ENCODING 728
SWIDTH 540 0
DWIDTH 9 0
BBX 5 2 2 10
BITMAP
98
F0
ENDCHAR
STARTCHAR 02D9
ENCODING 729
SWIDTH 540 0
DWIDTH 9 0
BBX 2 2 3 9
BITMAP
C0
C0
ENDCHAR
STARTCHAR 02DA
ENCODING 730
SWIDTH 540 0
DWIDTH 9 0
BBX 4 3 2 9
BITMAP
70
D0
70
ENDCHAR
STARTCHAR 02DB
ENCODING 731
SWIDTH 540 0
DWIDTH 9 0
BBX 3 3 3 -3
BITMAP
C0
C0
E0
ENDCHAR
STARTCHAR 02DC
ENCODING 732
SWIDTH 540 0
DWIDTH 9 0
BBX 5 3 2 8
BITMAP
C8
F8
B0
ENDCHAR
STARTCHAR 02DD
ENCODING 733
SWIDTH 540 0
DWIDTH 9 0
BBX 6 3 1 9
BITMAP
24
6C
C8
ENDCHAR
STARTCHAR 0311
ENCODING 785
SWIDTH 540 0
DWIDTH 9 0
BBX 5 2 2 9
BITMAP
F0
98
ENDCHAR
STARTCHAR 0384
ENCODING 900
SWIDTH 540 0
DWIDTH 9 0
BBX 3 4 3 9
BITMAP
40
60
C0
80
ENDCHAR
STARTCHAR 0385
ENCODING 901
SWIDTH 540 0
DWIDTH 9 0
BBX 7 4 1 9
BITMAP
10
10
F6
E6
ENDCHAR
STARTCHAR 0386
ENCODING 902
SWIDTH 540 0
DWIDTH 9 0
BBX 8 11 0 0
BITMAP
DC
DC
FC
B4
36
26
7E
7F
63
63
C3
ENDCHAR
STARTCHAR 0388
ENCODING 904
SWIDTH 540 0
DWIDTH 9 0
BBX 10 11 -2 0
BITMAP
DF80
DF80
D800
9800
1F80
1F80
1800
1800
1800
1FC0
1FC0
ENDCHAR
STARTCHAR 0389
ENCODING 905
SWIDTH 540 0
DWIDTH 9 0
BBX 11 11 -3 0
BITMAP
6C60
6C60
4C60
CC60
0FE0
0FE0
0C60
0C60
0C60
0C60
0C60
ENDCHAR
STARTCHAR 038A
ENCODING 906
SWIDTH 540 0
DWIDTH 9 0
BBX 10 11 -2 0
BITMAP
DFC0
DFC0
C600
8600
0600
0600
0600
0600
0600
1FC0
1FC0
ENDCHAR
STARTCHAR 038C
ENCODING 908
SWIDTH 540 0
DWIDTH 9 0
BBX 10 11 -2 0
BITMAP
4F00
DF80
D9C0
98C0
38C0
38C0
38C0
18C0
19C0
1F80
0F00
ENDCHAR
STARTCHAR 038E
ENCODING 910
SWIDTH 540 0
DWIDTH 9 0
BBX 11 11 -3 0
BITMAP
7C60
6C60
CCC0
C6C0
06C0
0380
0300
0300
0300
0300
0300
ENDCHAR
STARTCHAR 038F
ENCODING 911
SWIDTH 540 0
DWIDTH 9 0
BBX 10 11 -2 0
BITMAP
4F00
DF80
D9C0
B8C0
30C0
30C0
30C0
18C0
1980
3DC0
3DC0
ENDCHAR
STARTCHAR 0390
ENCODING 912
SWIDTH 540 0
DWIDTH 9 0
BBX 7 13 1 0
BITMAP
10
10
F6
E6
00
F0
F0
30
30
30
30
3E
1E
ENDCHAR
STARTCHAR 0391
ENCODING 913
SWIDTH 540 0
DWIDTH 9 0
BBX 8 11 0 0
BITMAP
1C
1C
3C
34
36
26
7E
7F
63
63
C3
ENDCHAR
STARTCHAR 0392
ENCODING 914
SWIDTH 540 0
DWIDTH 9 0
BBX 7 11 1 0
BITMAP
F8
FC
CC
CC
FC
FC
C6
C6
C6
FC
F8
ENDCHAR
STARTCHAR 0393
ENCODING 915
SWIDTH 540 0
DWIDTH 9 0
BBX 7 11 1 0
BITMAP
7E
7E
60
60
60
60
60
60
60
FC
FC
ENDCHAR
STARTCHAR 0394
ENCODING 916
SWIDTH 540 0
DWIDTH 9 0
BBX 8 11 0 0
BITMAP
1C
1C
3C
34
36
26
66
67
63
7F
FF
ENDCHAR
STARTCHAR 0395
ENCODING 917
SWIDTH 540 0
DWIDTH 9 0
BBX 7 11 1 0
BITMAP
FC
FC
C0
C0
FC
FC
C0
C0
C0
FE
FE
ENDCHAR
STARTCHAR 0396
ENCODING 918
SWIDTH 540 0
DWIDTH 9 0
BBX 7 11 1 0
BITMAP
FE
FC
0C
18
18
30
60
60
C0
FE
FE
ENDCHAR
STARTCHAR 0397
ENCODING 919
SWIDTH 540 0
DWIDTH 9 0
BBX 7 11 1 0
BITMAP
C6
C6
C6
C6
FE
FE
C6
C6
C6
C6
C6
ENDCHAR
STARTCHAR 0398
ENCODING 920
SWIDTH 540 0
DWIDTH 9 0
BBX 8 11 0 0
BITMAP
3C
7E
67
63
C3
DB
DB
63
67
7E
3C
ENDCHAR
STARTCHAR 0399
ENCODING 921
SWIDTH 540 0
DWIDTH 9 0
BBX 7 11 1 0
BITMAP
FE
FE
30
30
30
30
30
30
30
FE
FE
ENDCHAR
STARTCHAR 039A
ENCODING 922
SWIDTH 540 0
DWIDTH 9 0
BBX 7 11 1 0
BITMAP
CE
CC
DC
D8
F0
F0
F8
DC
CC
CE
C6
ENDCHAR
STARTCHAR 039B
ENCODING 923
SWIDTH 540 0
DWIDTH 9 0
BBX 8 11 0 0
BITMAP
1C
1C
3C
34
36
26
66
67
63
63
C3
ENDCHAR
STARTCHAR 039C
ENCODING 924
SWIDTH 540 0
DWIDTH 9 0
BBX 8 11 0 0
BITMAP
63
67
77
57
5F
5B
5B
43
C3
C3
C3
ENDCHAR
STARTCHAR 039D
ENCODING 925
SWIDTH 540 0
DWIDTH 9 0
BBX 7 11 1 0
BITMAP
C6
C6
E6
E6
F6
D6
DE
CE
CE
CE
C6
ENDCHAR
STARTCHAR 039E
ENCODING 926
SWIDTH 540 0
DWIDTH 9 0
BBX 7 11 1 0
BITMAP
FE
FE
00
00
FC
FC
00
00
00
FE
FE
ENDCHAR
STARTCHAR 039F
ENCODING 927
SWIDTH 540 0
DWIDTH 9 0
BBX 8 11 0 0
BITMAP
3C
7E
67
63
E3
E3
E3
63
67
7E
3C
ENDCHAR
STARTCHAR 03A0
ENCODING 928
SWIDTH 540 0
DWIDTH 9 0
BBX 7 11 1 0
BITMAP
FE
FE
C6
C6
C6
C6
C6
C6
C6
C6
C6
ENDCHAR
STARTCHAR 03A1
ENCODING 929
SWIDTH 540 0
DWIDTH 9 0
BBX 7 11 1 0
BITMAP
F8
FE
C6
C6
C6
FE
F8
C0
C0
C0
C0
ENDCHAR
STARTCHAR 03A3
ENCODING 931
SWIDTH 540 0
DWIDTH 9 0
BBX 8 11 0 0
BITMAP
7F
7F
30
18
18
0C
18
30
20
7F
FF
ENDCHAR
STARTCHAR 03A4
ENCODING 932
SWIDTH 540 0
DWIDTH 9 0
BBX 8 11 0 0
BITMAP
FF
FF
18
18
18
18
18
18
18
18
18
ENDCHAR
STARTCHAR 03A5
ENCODING 933
SWIDTH 540 0
DWIDTH 9 0
BBX 8 11 0 0
BITMAP
E3
63
66
36
36
1C
18
18
18
18
18
ENDCHAR
STARTCHAR 03A6
ENCODING 934
SWIDTH 540 0
DWIDTH 9 0
BBX 8 11 0 0
BITMAP
18
3C
7A
5B
DB
DB
DB
5B
7A
3C
18
ENDCHAR
STARTCHAR 03A7
ENCODING 935
SWIDTH 540 0
DWIDTH 9 0
BBX 8 11 0 0
BITMAP
63
66
36
3C
1C
1C
3C
36
76
67
E3
ENDCHAR
STARTCHAR 03A8
ENCODING 936
SWIDTH 540 0
DWIDTH 9 0
BBX 8 11 0 0
BITMAP
C3
C3
C3
DB
DB
5B
7B
7E
18
18
18
ENDCHAR
STARTCHAR 03A9
ENCODING 937
SWIDTH 540 0
DWIDTH 9 0
BBX 8 11 0 0
BITMAP
3C
7E
67
E3
C3
C3
C3
63
66
F7
F7
ENDCHAR
STARTCHAR 03AA
ENCODING 938
SWIDTH 540 0
DWIDTH 9 0
BBX 7 14 1 0
BITMAP
6C
6C
00
FE
FE
30
30
30
30
30
30
30
FE
FE
ENDCHAR
STARTCHAR 03AB
ENCODING 939
SWIDTH 540 0
DWIDTH 9 0
BBX 8 14 0 0
BITMAP
36
36
00
E3
63
66
36
36
1C
18
18
18
18
18
ENDCHAR
STARTCHAR 03AC
ENCODING 940
SWIDTH 540 0
DWIDTH 9 0
BBX 7 13 1 0
BITMAP
10
18
30
20
00
7C
FC
CC
CC
CC
CC
FE
7E
ENDCHAR
STARTCHAR 03AD
ENCODING 941
SWIDTH 540 0
DWIDTH 9 0
BBX 7 13 1 0
BITMAP
08
18
30
10
00
7C
FC
C0
78
78
C0
FC
7E
ENDCHAR
STARTCHAR 03AE
ENCODING 942
SWIDTH 540 0
DWIDTH 9 0
BBX 7 16 1 -3
BITMAP
10
18
30
20
00
F8
FC
CC
CC
CE
CE
CE
CE
0E
0E
0E
ENDCHAR
STARTCHAR 03AF
ENCODING 943
SWIDTH 540 0
DWIDTH 9 0
BBX 7 13 1 0
BITMAP
10
38
30
20
00
F0
F0
30
30
30
30
3E
1E
ENDCHAR
STARTCHAR 03B0
ENCODING 944
SWIDTH 540 0
DWIDTH 9 0
BBX 7 13 1 0
BITMAP
10
10
F6
E6
00
CE
CE
CE
CE
CE
CE
FC
78
ENDCHAR
STARTCHAR 03B1
ENCODING 945
SWIDTH 540 0
DWIDTH 9 0
BBX 7 8 1 0
BITMAP
7C
FC
CC
CC
CC
CC
FE
7E
ENDCHAR
STARTCHAR 03B2
ENCODING 946
SWIDTH 540 0
DWIDTH 9 0
BBX 7 15 1 -3
BITMAP
78
FC
CC
CC
CC
D8
DC
C6
C6
C6
FE
FC
C0
C0
C0
ENDCHAR
STARTCHAR 03B3
ENCODING 947
SWIDTH 540 0
DWIDTH 9 0
BBX 8 11 0 -3
BITMAP
E3
63
67
76
36
3C
3C
18
18
18
18
ENDCHAR
STARTCHAR 03B4
ENCODING 948
SWIDTH 540 0
DWIDTH 9 0
BBX 7 12 1 0
BITMAP
3C
7C
64
70
38
FC
CE
C6
C6
CE
FC
78
ENDCHAR
STARTCHAR 03B5
ENCODING 949
SWIDTH 540 0
DWIDTH 9 0
BBX 7 8 1 0
BITMAP
7C
FC
C0
78
78
C0
FC
7E
ENDCHAR
STARTCHAR 03B6
ENCODING 950
SWIDTH 540 0
DWIDTH 9 0
BBX 7 15 1 -3
BITMAP
FE
FC
18
30
60
60
C0
C0
C0
E0
78
1E
06
06
04
ENDCHAR
STARTCHAR 03B7
ENCODING 951
SWIDTH 540 0
DWIDTH 9 0
BBX 7 11 1 -3
BITMAP
F8
FC
CC
CC
CE
CE
CE
CE
0E
0E
0E
ENDCHAR
STARTCHAR 03B8
ENCODING 952
SWIDTH 540 0
DWIDTH 9 0
BBX 7 12 1 0
BITMAP
78
7C
CC
C6
C6
FE
FE
C6
C6
CC
7C
78
ENDCHAR
STARTCHAR 03B9
ENCODING 953
SWIDTH 540 0
DWIDTH 9 0
BBX 7 8 1 0
BITMAP
F0
F0
30
30
30
30
3E
1E
ENDCHAR
STARTCHAR 03BA
ENCODING 954
SWIDTH 540 0
DWIDTH 9 0
BBX 7 8 1 0
BITMAP
CE
DC
D8
F0
F8
DC
CC
C6
ENDCHAR
STARTCHAR 03BB
ENCODING 955
SWIDTH 540 0
DWIDTH 9 0
BBX 8 12 0 0
BITMAP
70
78
18
18
1C
1C
3E
36
36
66
67
E3
ENDCHAR
STARTCHAR 03BC
ENCODING 956
SWIDTH 540 0
DWIDTH 9 0
BBX 6 11 1 -3
BITMAP
CC
CC
CC
CC
CC
CC
FC
FC
C0
C0
C0
ENDCHAR
STARTCHAR 03BD
ENCODING 957
SWIDTH 540 0
DWIDTH 9 0
BBX 8 8 0 0
BITMAP
E3
63
66
66
36
3C
1C
18
ENDCHAR
STARTCHAR 03BE
ENCODING 958
SWIDTH 540 0
DWIDTH 9 0
BBX 7 15 1 -3
BITMAP
3E
7C
60
60
60
3C
7C
C0
C0
C0
78
3E
06
06
04
ENDCHAR
STARTCHAR 03BF
ENCODING 959
SWIDTH 540 0
DWIDTH 9 0
BBX 7 8 1 0
BITMAP
78
FC
CE
C6
C6
CE
FC
78
ENDCHAR
STARTCHAR 03C0
ENCODING 960
SWIDTH 540 0
DWIDTH 9 0
BBX 6 8 1 0
BITMAP
FC
FC
CC
CC
CC
CC
CC
CC
ENDCHAR
STARTCHAR 03C1
ENCODING 961
SWIDTH 540 0
DWIDTH 9 0
BBX 7 11 1 -3
BITMAP
38
7C
C6
C6
C6
CE
FC
F8
C0
C0
C0
ENDCHAR
STARTCHAR 03C2
ENCODING 962
SWIDTH 540 0
DWIDTH 9 0
BBX 7 11 1 -3
BITMAP
3E
7E
E0
C0
C0
C0
F8
3E
06
06
04
ENDCHAR
STARTCHAR 03C3
ENCODING 963
SWIDTH 540 0
DWIDTH 9 0
BBX 7 8 1 0
BITMAP
7E
FE
CC
CE
C6
CE
FC
78
ENDCHAR
STARTCHAR 03C4
ENCODING 964
SWIDTH 540 0
DWIDTH 9 0
BBX 7 8 1 0
BITMAP
FE
FE
60
60
60
70
3E
3E
ENDCHAR
STARTCHAR 03C5
ENCODING 965
SWIDTH 540 0
DWIDTH 9 0
BBX 7 8 1 0
BITMAP
CE
CE
CE
CE
CE
CE
FC
78
ENDCHAR
STARTCHAR 03C6
ENCODING 966
SWIDTH 540 0
DWIDTH 9 0
BBX 8 11 0 -3
BITMAP
3C
7E
5B
DB
DB
5B
7F
3E
18
18
18
ENDCHAR
STARTCHAR 03C7
ENCODING 967
SWIDTH 540 0
DWIDTH 9 0
BBX 7 8 1 0
BITMAP
C6
EC
78
38
38
7C
CC
C6
ENDCHAR
STARTCHAR 03C8
ENCODING 968
SWIDTH 540 0
DWIDTH 9 0
BBX 8 11 0 -3
BITMAP
C3
DB
DB
DB
DB
5B
7F
3E
18
18
18
ENDCHAR
STARTCHAR 03C9
ENCODING 969
SWIDTH 540 0
DWIDTH 9 0
BBX 8 8 0 0
BITMAP
22
62
63
DB
DB
DB
7F
76
ENDCHAR
STARTCHAR 03CA
ENCODING 970
SWIDTH 540 0
DWIDTH 9 0
BBX 7 12 1 0
BITMAP
6C
6C
00
00
F0
F0
30
30
30
30
3E
1E
ENDCHAR
STARTCHAR 03CB
ENCODING 971
SWIDTH 540 0
DWIDTH 9 0
BBX 7 12 1 0
BITMAP
6C
6C
00
00
CE
CE
CE
CE
CE
CE
FC
78
ENDCHAR
STARTCHAR 03CC
ENCODING 972
SWIDTH 540 0
DWIDTH 9 0
BBX 7 13 1 0
BITMAP
10
18
30
20
00
78
FC
CE
C6
C6
CE
FC
78
ENDCHAR
STARTCHAR 03CD
ENCODING 973
SWIDTH 540 0
DWIDTH 9 0
BBX 7 13 1 0
BITMAP
10
18
30
20
00
CE
CE
CE
CE
CE
CE
FC
78
ENDCHAR
STARTCHAR 03CE
ENCODING 974
SWIDTH 540 0
DWIDTH 9 0
BBX 8 13 0 0
BITMAP
08
0C
18
10
00
22
62
63
DB
DB
DB
7F
76
ENDCHAR
STARTCHAR 0400
ENCODING 1024
SWIDTH 540 0
DWIDTH 9 0
BBX 7 15 1 0
BITMAP
20
38
08
00
FC
FC
C0
C0
FC
FC
C0
C0
C0
FE
FE
ENDCHAR
STARTCHAR 0401
ENCODING 1025
SWIDTH 540 0
DWIDTH 9 0
BBX 7 14 1 0
BITMAP
6C
6C
00
FC
FC
C0
C0
FC
FC
C0
C0
C0
FE
FE
ENDCHAR
STARTCHAR 0402
ENCODING 1026
SWIDTH 540 0
DWIDTH 9 0
BBX 8 11 0 0
BITMAP
FE
FE
30
30
3E
3F
33
33
33
37
36
ENDCHAR
STARTCHAR 0403
ENCODING 1027
SWIDTH 540 0
DWIDTH 9 0
BBX 7 15 1 0
BITMAP
04
1C
10
00
7E
7E
60
60
60
60
60
60
60
FC
FC
ENDCHAR
STARTCHAR 0404
ENCODING 1028
SWIDTH 540 0
DWIDTH 9 0
BBX 8 11 0 0
BITMAP
1E
3F
61
60
7C
FC
E0
60
71
3F
1E
ENDCHAR
STARTCHAR 0405
ENCODING 1029
SWIDTH 540 0
DWIDTH 9 0
BBX 7 11 1 0
BITMAP
7C
FC
C4
C0
F0
7C
1E
06
86
FC
F8
ENDCHAR
STARTCHAR 0406
ENCODING 1030
SWIDTH 540 0
DWIDTH 9 0
BBX 7 11 1 0
BITMAP
FE
FE
30
30
30
30
30
30
30
FE
FE
ENDCHAR
STARTCHAR 0407
ENCODING 1031
SWIDTH 540 0
DWIDTH 9 0
BBX 7 14 1 0
BITMAP
6C
6C
00
FE
FE
30
30
30
30
30
30
30
FE
FE
ENDCHAR
STARTCHAR 0408
ENCODING 1032
SWIDTH 540 0
DWIDTH 9 0
BBX 6 11 1 0
BITMAP
7C
7C
0C
0C
0C
0C
0C
0C
8C
FC
78
ENDCHAR
STARTCHAR 0409
ENCODING 1033
SWIDTH 540 0
DWIDTH 9 0
BBX 8 11 0 0
BITMAP
78
68
68
68
6E
6B
6B
6B
6B
CB
8E
ENDCHAR
STARTCHAR 040A
ENCODING 1034
SWIDTH 540 0
DWIDTH 9 0
BBX 7 11 1 0
BITMAP
90
90
90
90
FC
96
96
96
96
96
9C
ENDCHAR
STARTCHAR 040B
ENCODING 1035
SWIDTH 540 0
DWIDTH 9 0
BBX 8 11 0 0
BITMAP
FE
FE
30
30
3E
3E
37
33
33
33
33
ENDCHAR
STARTCHAR 040C
ENCODING 1036
SWIDTH 540 0
DWIDTH 9 0
BBX 7 15 1 0
BITMAP
08
38
20
00
CE
CC
DC
D8
F0
F0
F8
DC
CC
CE
C6
ENDCHAR
STARTCHAR 040D
ENCODING 1037
SWIDTH 540 0
DWIDTH 9 0
BBX 7 15 1 0
BITMAP
20
38
08
00
C6
CE
CE
DE
D6
F6
E6
E6
E6
C6
C6
ENDCHAR
STARTCHAR 040E
ENCODING 1038
SWIDTH 540 0
DWIDTH 9 0
BBX 8 15 0 0
BITMAP
26
3E
1C
00
E3
63
67
36
36
1E
1C
0C
18
78
F0
ENDCHAR
STARTCHAR 040F
ENCODING 1039
SWIDTH 540 0
DWIDTH 9 0
BBX 7 14 1 -3
BITMAP
C6
C6
C6
C6
C6
C6
C6
C6
C6
FE
FE
30
30
30
ENDCHAR
STARTCHAR 0410
ENCODING 1040
SWIDTH 540 0
DWIDTH 9 0
BBX 8 11 0 0
BITMAP
1C
1C
3C
34
36
26
7E
7F
63
63
C3
ENDCHAR
STARTCHAR 0411
ENCODING 1041
SWIDTH 540 0
DWIDTH 9 0
BBX 7 11 1 0
BITMAP
FC
FC
C0
C0
F8
FC
C6
C6
C6
FC
F8
ENDCHAR
STARTCHAR 0412
ENCODING 1042
SWIDTH 540 0
DWIDTH 9 0
BBX 7 11 1 0
BITMAP
F8
FC
CC
CC
FC
FC
C6
C6
C6
FC
F8
ENDCHAR
STARTCHAR 0413
ENCODING 1043
SWIDTH 540 0
DWIDTH 9 0
BBX 7 11 1 0
BITMAP
7E
7E
60
60
60
60
60
60
60
FC
FC
ENDCHAR
STARTCHAR 0414
ENCODING 1044
SWIDTH 540 0
DWIDTH 9 0
BBX 8 14 0 -3
BITMAP
3F
3F
37
37
37
37
37
67
67
FF
FF
C3
C3
C3
ENDCHAR
STARTCHAR 0415
ENCODING 1045
SWIDTH 540 0
DWIDTH 9 0
BBX 7 11 1 0
BITMAP
FC
FC
C0
C0
FC
FC
C0
C0
C0
FE
FE
ENDCHAR
STARTCHAR 0416
ENCODING 1046
SWIDTH 540 0
DWIDTH 9 0
BBX 8 11 0 0
BITMAP
DB
5B
7A
3E
3C
3C
3E
7A
5B
DB
D9
ENDCHAR
STARTCHAR 0417
ENCODING 1047
SWIDTH 540 0
DWIDTH 9 0
BBX 7 11 1 0
BITMAP
78
FC
8E
0E
7C
7C
06
06
86
FE
F8
ENDCHAR
STARTCHAR 0418
ENCODING 1048
SWIDTH 540 0
DWIDTH 9 0
BBX 7 11 1 0
BITMAP
C6
CE
CE
DE
D6
F6
E6
E6
E6
C6
C6
ENDCHAR
STARTCHAR 0419
ENCODING 1049
SWIDTH 540 0
DWIDTH 9 0
BBX 7 15 1 0
BITMAP
4C
7C
38
00
C6
CE
CE
DE
D6
F6
E6
E6
E6
C6
C6
ENDCHAR
STARTCHAR 041A
ENCODING 1050
SWIDTH 540 0
DWIDTH 9 0
BBX 7 11 1 0
BITMAP
CE
CC
DC
D8
F0
F0
F8
DC
CC
CE
C6
ENDCHAR
STARTCHAR 041B
ENCODING 1051
SWIDTH 540 0
DWIDTH 9 0
BBX 8 11 0 0
BITMAP
3F
3F
33
33
33
33
33
33
63
E3
C3
ENDCHAR
STARTCHAR 041C
ENCODING 1052
SWIDTH 540 0
DWIDTH 9 0
BBX 8 11 0 0
BITMAP
63
67
77
57
5F
5B
5B
43
C3
C3
C3
ENDCHAR
STARTCHAR 041D
ENCODING 1053
SWIDTH 540 0
DWIDTH 9 0
BBX 7 11 1 0
BITMAP
C6
C6
C6
C6
FE
FE
C6
C6
C6
C6
C6
ENDCHAR
STARTCHAR 041E
ENCODING 1054
SWIDTH 540 0
DWIDTH 9 0
BBX 8 11 0 0
BITMAP
3C
7E
67
63
E3
E3
E3
63
67
7E
3C
ENDCHAR
STARTCHAR 041F
ENCODING 1055
SWIDTH 540 0
DWIDTH 9 0
BBX 7 11 1 0
BITMAP
FE
FE
C6
C6
C6
C6
C6
C6
C6
C6
C6
ENDCHAR
STARTCHAR 0420
ENCODING 1056
SWIDTH 540 0
DWIDTH 9 0
BBX 7 11 1 0
BITMAP
F8
FE
C6
C6
C6
FE
F8
C0
C0
C0
C0
ENDCHAR
STARTCHAR 0421
ENCODING 1057
SWIDTH 540 0
DWIDTH 9 0
BBX 8 11 0 0
BITMAP
1E
3F
71
60
60
E0
E0
60
71
3F
1E
ENDCHAR
STARTCHAR 0422
ENCODING 1058
SWIDTH 540 0
DWIDTH 9 0
BBX 8 11 0 0
BITMAP
FF
FF
18
18
18
18
18
18
18
18
18
ENDCHAR
STARTCHAR 0423
ENCODING 1059
SWIDTH 540 0
DWIDTH 9 0
BBX 8 11 0 0
BITMAP
E3
63
67
36
36
1E
1C
0C
18
78
F0
ENDCHAR
STARTCHAR 0424
ENCODING 1060
SWIDTH 540 0
DWIDTH 9 0
BBX 8 11 0 0
BITMAP
18
3C
7A
5B
DB
DB
DB
5B
7A
3C
18
ENDCHAR
STARTCHAR 0425
ENCODING 1061
SWIDTH 540 0
DWIDTH 9 0
BBX 8 11 0 0
BITMAP
63
66
36
3C
1C
1C
3C
36
76
67
E3
ENDCHAR
STARTCHAR 0426
ENCODING 1062
SWIDTH 540 0
DWIDTH 9 0
BBX 7 14 1 -3
BITMAP
CC
CC
CC
CC
CC
CC
CC
CC
CC
FE
FE
06
06
06
ENDCHAR
STARTCHAR 0427
ENCODING 1063
SWIDTH 540 0
DWIDTH 9 0
BBX 7 11 1 0
BITMAP
C6
C6
C6
C6
C6
FE
7E
06
06
06
06
ENDCHAR
STARTCHAR 0428
ENCODING 1064
SWIDTH 540 0
DWIDTH 9 0
BBX 8 11 0 0
BITMAP
C3
C3
C3
C3
DB
DB
DB
DB
DB
FF
FF
ENDCHAR
STARTCHAR 0429
ENCODING 1065
SWIDTH 540 0
DWIDTH 9 0
BBX 8 14 0 -3
BITMAP
C3
C3
C3
C3
DB
DB
DB
DB
DB
FF
FF
01
01
01
ENDCHAR
STARTCHAR 042A
ENCODING 1066
SWIDTH 540 0
DWIDTH 9 0
BBX 8 11 0 0
BITMAP
F0
F0
30
30
3C
3E
33
33
33
3E
3C
ENDCHAR
STARTCHAR 042B
ENCODING 1067
SWIDTH 540 0
DWIDTH 9 0
BBX 7 11 1 0
BITMAP
86
86
86
E6
F6
9E
9E
9E
9E
F6
E6
ENDCHAR
STARTCHAR 042C
ENCODING 1068
SWIDTH 540 0
DWIDTH 9 0
BBX 7 11 1 0
BITMAP
C0
C0
C0
C0
F8
FC
CE
C6
CE
FC
F8
ENDCHAR
STARTCHAR 042D
ENCODING 1069
SWIDTH 540 0
DWIDTH 9 0
BBX 7 11 1 0
BITMAP
78
FC
8E
06
3E
3E
06
06
8E
FC
F8
ENDCHAR
STARTCHAR 042E
ENCODING 1070
SWIDTH 540 0
DWIDTH 9 0
BBX 7 11 1 0
BITMAP
9C
9E
B6
B6
F6
F6
B6
B6
B6
9E
9C
ENDCHAR
STARTCHAR 042F
ENCODING 1071
SWIDTH 540 0
DWIDTH 9 0
BBX 7 11 1 0
BITMAP
3E
7E
E6
C6
E6
7E
3E
66
E6
C6
C6
ENDCHAR
STARTCHAR 0430
ENCODING 1072
SWIDTH 540 0
DWIDTH 9 0
BBX 7 8 1 0
BITMAP
78
7C
0C
7E
FE
CE
FE
7E
ENDCHAR
STARTCHAR 0431
ENCODING 1073
SWIDTH 540 0
DWIDTH 9 0
BBX 7 12 1 0
BITMAP
0E
3E
70
C0
F8
FC
CE
C6
C6
CE
FC
78
ENDCHAR
STARTCHAR 0432
ENCODING 1074
SWIDTH 540 0
DWIDTH 9 0
BBX 7 8 1 0
BITMAP
FC
FC
CC
FC
FE
C6
FE
FC
ENDCHAR
STARTCHAR 0433
ENCODING 1075
SWIDTH 540 0
DWIDTH 9 0
BBX 6 8 2 0
BITMAP
FC
FC
C0
C0
C0
C0
C0
C0
ENDCHAR
STARTCHAR 0434
ENCODING 1076
SWIDTH 540 0
DWIDTH 9 0
BBX 8 10 0 -2
BITMAP
3E
3E
36
36
36
66
FF
FF
C3
C3
ENDCHAR
STARTCHAR 0435
ENCODING 1077
SWIDTH 540 0
DWIDTH 9 0
BBX 7 8 1 0
BITMAP
78
FC
C6
FE
FE
C0
FC
7C
ENDCHAR
STARTCHAR 0436
ENCODING 1078
SWIDTH 540 0
DWIDTH 9 0
BBX 8 8 0 0
BITMAP
DB
7A
3E
3C
3E
7A
5B
DB
ENDCHAR
STARTCHAR 0437
ENCODING 1079
SWIDTH 540 0
DWIDTH 9 0
BBX 6 8 1 0
BITMAP
F8
FC
0C
7C
7C
0C
FC
F8
ENDCHAR
STARTCHAR 0438
ENCODING 1080
SWIDTH 540 0
DWIDTH 9 0
BBX 6 8 1 0
BITMAP
CC
CC
DC
F4
F4
E4
E4
C4
ENDCHAR
STARTCHAR 0439
ENCODING 1081
SWIDTH 540 0
DWIDTH 9 0
BBX 6 12 1 0
BITMAP
4C
7C
38
00
CC
CC
DC
F4
F4
E4
E4
C4
ENDCHAR
STARTCHAR 043A
ENCODING 1082
SWIDTH 540 0
DWIDTH 9 0
BBX 7 8 1 0
BITMAP
CE
DC
D8
F0
D8
DC
CC
C6
ENDCHAR
STARTCHAR 043B
ENCODING 1083
SWIDTH 540 0
DWIDTH 9 0
BBX 7 8 0 0
BITMAP
3E
3E
36
36
36
76
E6
C6
ENDCHAR
STARTCHAR 043C
ENCODING 1084
SWIDTH 540 0
DWIDTH 9 0
BBX 8 8 0 0
BITMAP
63
67
77
5F
5F
5B
C3
C3
ENDCHAR
STARTCHAR 043D
ENCODING 1085
SWIDTH 540 0
DWIDTH 9 0
BBX 6 8 1 0
BITMAP
CC
CC
CC
FC
FC
CC
CC
CC
ENDCHAR
STARTCHAR 043E
ENCODING 1086
SWIDTH 540 0
DWIDTH 9 0
BBX 7 8 1 0
BITMAP
78
FC
CE
C6
C6
CE
FC
78
ENDCHAR
STARTCHAR 043F
ENCODING 1087
SWIDTH 540 0
DWIDTH 9 0
BBX 6 8 1 0
BITMAP
FC
FC
CC
CC
CC
CC
CC
CC
ENDCHAR
STARTCHAR 0440
ENCODING 1088
SWIDTH 540 0
DWIDTH 9 0
BBX 7 11 1 -3
BITMAP
F8
FC
CE
C6
C6
CE
FC
FC
C0
C0
C0
ENDCHAR
STARTCHAR 0441
ENCODING 1089
SWIDTH 540 0
DWIDTH 9 0
BBX 7 8 1 0
BITMAP
3E
7E
E0
C0
C0
E0
7E
3E
ENDCHAR
STARTCHAR 0442
ENCODING 1090
SWIDTH 540 0
DWIDTH 9 0
BBX 7 8 1 0
BITMAP
FE
FE
30
30
30
30
30
30
ENDCHAR
STARTCHAR 0443
ENCODING 1091
SWIDTH 540 0
DWIDTH 9 0
BBX 8 11 0 -3
BITMAP
63
63
66
36
36
1C
1C
1C
18
78
F0
ENDCHAR
STARTCHAR 0444
ENCODING 1092
SWIDTH 540 0
DWIDTH 9 0
BBX 8 15 0 -3
BITMAP
18
18
18
18
3E
7A
5B
DB
DB
5B
7B
3E
18
18
18
ENDCHAR
STARTCHAR 0445
ENCODING 1093
SWIDTH 540 0
DWIDTH 9 0
BBX 7 8 1 0
BITMAP
C6
EC
78
38
38
7C
CC
C6
ENDCHAR
STARTCHAR 0446
ENCODING 1094
SWIDTH 540 0
DWIDTH 9 0
BBX 7 10 1 -2
BITMAP
CC
CC
CC
CC
CC
CC
FE
FE
06
06
ENDCHAR
STARTCHAR 0447
ENCODING 1095
SWIDTH 540 0
DWIDTH 9 0
BBX 6 8 1 0
BITMAP
CC
CC
CC
FC
7C
0C
0C
0C
ENDCHAR
STARTCHAR 0448
ENCODING 1096
SWIDTH 540 0
DWIDTH 9 0
BBX 7 8 1 0
BITMAP
86
86
B6
B6
B6
B6
FE
FE
ENDCHAR
STARTCHAR 0449
ENCODING 1097
SWIDTH 540 0
DWIDTH 9 0
BBX 7 10 1 -2
BITMAP
86
86
B6
B6
B6
B6
FE
FE
02
02
ENDCHAR
STARTCHAR 044A
ENCODING 1098
SWIDTH 540 0
DWIDTH 9 0
BBX 8 8 0 0
BITMAP
F0
F0
30
3E
3F
33
3F
3E
ENDCHAR
STARTCHAR 044B
ENCODING 1099
SWIDTH 540 0
DWIDTH 9 0
BBX 7 8 1 0
BITMAP
86
86
F6
F6
9E
9E
F6
F6
ENDCHAR
STARTCHAR 044C
ENCODING 1100
SWIDTH 540 0
DWIDTH 9 0
BBX 7 8 1 0
BITMAP
C0
C0
FC
FE
C6
C6
FE
FC
ENDCHAR
STARTCHAR 044D
ENCODING 1101
SWIDTH 540 0
DWIDTH 9 0
BBX 8 8 0 0
BITMAP
7C
7E
07
3F
3F
07
7E
FC
ENDCHAR
STARTCHAR 044E
ENCODING 1102
SWIDTH 540 0
DWIDTH 9 0
BBX 8 8 0 0
BITMAP
CE
DF
DB
F9
F9
DB
DF
CE
ENDCHAR
STARTCHAR 044F
ENCODING 1103
SWIDTH 540 0
DWIDTH 9 0
BBX 7 8 1 0
BITMAP
7E
FE
C6
C6
7E
7E
E6
C6
ENDCHAR
STARTCHAR 0450
ENCODING 1104
SWIDTH 540 0
DWIDTH 9 0
BBX 7 12 1 0
BITMAP
20
70
18
00
78
FC
C6
FE
FE
C0
FC
7C
ENDCHAR
STARTCHAR 0451
ENCODING 1105
SWIDTH 540 0
DWIDTH 9 0
BBX 7 12 1 0
BITMAP
6C
6C
00
00
78
FC
C6
FE
FE
C0
FC
7C
ENDCHAR
STARTCHAR 0452
ENCODING 1106
SWIDTH 540 0
DWIDTH 9 0
BBX 8 15 0 -3
BITMAP
60
FC
60
60
7C
7E
66
66
67
67
67
67
06
1E
1C
ENDCHAR
STARTCHAR 0453
ENCODING 1107
SWIDTH 540 0
DWIDTH 9 0
BBX 6 12 2 0
BITMAP
10
38
20
00
FC
FC
C0
C0
C0
C0
C0
C0
ENDCHAR
STARTCHAR 0454
ENCODING 1108
SWIDTH 540 0
DWIDTH 9 0
BBX 7 8 1 0
BITMAP
3E
FE
C0
F8
F8
C0
FE
3E
ENDCHAR
STARTCHAR 0455
ENCODING 1109
SWIDTH 540 0
DWIDTH 9 0
BBX 7 8 1 0
BITMAP
7C
FC
C0
70
3C
8E
FC
F8
ENDCHAR
STARTCHAR 0456
ENCODING 1110
SWIDTH 540 0
DWIDTH 9 0
BBX 7 12 1 0
BITMAP
70
70
00
F0
F0
30
30
30
30
30
3E
1E
ENDCHAR
STARTCHAR 0457
ENCODING 1111
SWIDTH 540 0
DWIDTH 9 0
BBX 7 12 1 0
BITMAP
CC
CC
00
00
F0
F0
30
30
30
32
3E
1E
ENDCHAR
STARTCHAR 0458
ENCODING 1112
SWIDTH 540 0
DWIDTH 9 0
BBX 6 15 1 -3
BITMAP
18
18
00
FC
FC
0C
0C
0C
0C
0C
0C
0C
8C
F8
78
ENDCHAR
STARTCHAR 0459
ENCODING 1113
SWIDTH 540 0
DWIDTH 9 0
BBX 8 8 0 0
BITMAP
78
78
68
6E
6B
69
CB
CE
ENDCHAR
STARTCHAR 045A
ENCODING 1114
SWIDTH 540 0
DWIDTH 9 0
BBX 7 8 1 0
BITMAP
90
90
90
FC
96
92
96
9C
ENDCHAR
STARTCHAR 045B
ENCODING 1115
SWIDTH 540 0
DWIDTH 9 0
BBX 8 12 0 0
BITMAP
60
FC
FC
60
7C
7E
66
66
67
67
67
67
ENDCHAR
STARTCHAR 045C
ENCODING 1116
SWIDTH 540 0
DWIDTH 9 0
BBX 7 12 1 0
BITMAP
08
38
30
00
CE
DC
D8
F0
D8
DC
CC
C6
ENDCHAR
STARTCHAR 045D
ENCODING 1117
SWIDTH 540 0
DWIDTH 9 0
BBX 6 12 1 0
BITMAP
20
70
18
00
CC
CC
DC
F4
F4
E4
E4
C4
ENDCHAR
STARTCHAR 045E
ENCODING 1118
SWIDTH 540 0
DWIDTH 9 0
BBX 8 15 0 -3
BITMAP
26
3E
1C
00
63
63
66
36
36
1C
1C
1C
18
78
F0
ENDCHAR
STARTCHAR 045F
ENCODING 1119
SWIDTH 540 0
DWIDTH 9 0
BBX 6 10 1 -2
BITMAP
CC
CC
CC
CC
CC
CC
FC
FC
30
30
ENDCHAR
STARTCHAR 0462
ENCODING 1122
SWIDTH 540 0
DWIDTH 9 0
BBX 8 11 0 0
BITMAP
70
FC
FC
70
7E
7F
77
73
73
7E
7C
ENDCHAR
STARTCHAR 0463
ENCODING 1123
SWIDTH 540 0
DWIDTH 9 0
BBX 8 12 0 0
BITMAP
70
70
70
70
FC
F0
7E
7F
73
73
7F
7E
ENDCHAR
STARTCHAR 0472
ENCODING 1138
SWIDTH 540 0
DWIDTH 9 0
BBX 8 11 0 0
BITMAP
3C
7E
67
63
FB
FF
EF
63
67
7E
3C
ENDCHAR
STARTCHAR 0473
ENCODING 1139
SWIDTH 540 0
DWIDTH 9 0
BBX 7 8 1 0
BITMAP
78
FC
CE
E6
DE
CE
FC
78
ENDCHAR
STARTCHAR 0474
ENCODING 1140
SWIDTH 540 0
DWIDTH 9 0
BBX 9 11 0 0
BITMAP
C380
C700
6600
6600
6600
6400
6C00
2C00
3C00
3800
1800
ENDCHAR
STARTCHAR 0475
ENCODING 1141
SWIDTH 540 0
DWIDTH 9 0
BBX 9 8 0 0
BITMAP
E780
6700
6600
6C00
3C00
3C00
3800
1800
ENDCHAR
STARTCHAR 048A
ENCODING 1162
SWIDTH 540 0
DWIDTH 9 0
BBX 7 17 1 -3
BITMAP
4C
7C
38
C6
CE
CE
DE
DE
F6
F6
E6
E6
C6
C6
06
0C
04
ENDCHAR
STARTCHAR 048B
ENCODING 1163
SWIDTH 540 0
DWIDTH 9 0
BBX 7 15 1 -3
BITMAP
4C
7C
38
00
CC
CC
DC
F4
F4
E4
E6
C6
06
0C
04
ENDCHAR
STARTCHAR 048C
ENCODING 1164
SWIDTH 540 0
DWIDTH 9 0
BBX 8 11 0 0
BITMAP
60
F8
F8
60
7C
7F
67
63
67
7E
7C
ENDCHAR
STARTCHAR 048D
ENCODING 1165
SWIDTH 540 0
DWIDTH 9 0
BBX 8 8 0 0
BITMAP
60
FC
60
7E
7F
63
7F
7E
ENDCHAR
STARTCHAR 048E
ENCODING 1166
SWIDTH 540 0
DWIDTH 9 0
BBX 7 11 1 0
BITMAP
F8
FE
C6
C6
DE
FE
FC
C6
C4
C0
C0
ENDCHAR
STARTCHAR 048F
ENCODING 1167
SWIDTH 540 0
DWIDTH 9 0
BBX 7 11 1 -3
BITMAP
F8
FC
CE
C6
C6
DE
FE
FC
C4
C4
C0
ENDCHAR
STARTCHAR 0490
ENCODING 1168
SWIDTH 540 0
DWIDTH 9 0
BBX 7 13 1 0
BITMAP
06
06
7E
7E
60
60
60
60
60
60
60
FC
FC
ENDCHAR
STARTCHAR 0491
ENCODING 1169
SWIDTH 540 0
DWIDTH 9 0
BBX 6 10 2 0
BITMAP
0C
0C
FC
FC
C0
C0
C0
C0
C0
C0
ENDCHAR
STARTCHAR 0492
ENCODING 1170
SWIDTH 540 0
DWIDTH 9 0
BBX 7 11 1 0
BITMAP
7E
7E
60
60
60
FC
FC
60
60
FC
FC
ENDCHAR
STARTCHAR 0493
ENCODING 1171
SWIDTH 540 0
DWIDTH 9 0
BBX 8 8 0 0
BITMAP
3F
3F
30
30
FC
30
30
30
ENDCHAR
STARTCHAR 0494
ENCODING 1172
SWIDTH 540 0
DWIDTH 9 0
BBX 7 14 1 -3
BITMAP
FC
FC
C0
C0
F8
FC
CE
C6
C6
C6
C6
0E
3C
38
ENDCHAR
STARTCHAR 0495
ENCODING 1173
SWIDTH 540 0
DWIDTH 9 0
BBX 7 11 1 -3
BITMAP
FC
FC
C0
F8
FC
C6
C6
C6
06
1C
38
ENDCHAR
STARTCHAR 0496
ENCODING 1174
SWIDTH 540 0
DWIDTH 9 0
BBX 8 14 0 -3
BITMAP
DB
5B
7A
3E
3C
3C
3E
7A
5B
DB
DB
01
01
01
ENDCHAR
STARTCHAR 0497
ENCODING 1175
SWIDTH 540 0
DWIDTH 9 0
BBX 8 10 0 -2
BITMAP
DB
7B
3E
3C
3E
7A
7B
DB
01
01
ENDCHAR
STARTCHAR 0498
ENCODING 1176
SWIDTH 540 0
DWIDTH 9 0
BBX 7 14 1 -3
BITMAP
78
FC
8E
0E
7C
7C
06
06
86
FE
FC
30
18
70
ENDCHAR
STARTCHAR 0499
ENCODING 1177
SWIDTH 540 0
DWIDTH 9 0
BBX 6 11 1 -3
BITMAP
F8
FC
0C
7C
7C
0C
FC
F8
30
18
70
ENDCHAR
STARTCHAR 049A
ENCODING 1178
SWIDTH 540 0
DWIDTH 9 0
BBX 7 14 1 -3
BITMAP
CC
CC
D8
D8
F0
F0
F8
D8
CC
CE
CE
06
06
06
ENDCHAR
STARTCHAR 049B
ENCODING 1179
SWIDTH 540 0
DWIDTH 9 0
BBX 7 10 1 -2
BITMAP
CC
D8
D8
F0
F8
D8
CE
CE
06
06
ENDCHAR
STARTCHAR 049C
ENCODING 1180
SWIDTH 540 0
DWIDTH 9 0
BBX 8 11 0 0
BITMAP
C3
C3
D6
D6
FC
FC
DC
D6
C6
C3
C3
ENDCHAR
STARTCHAR 049D
ENCODING 1181
SWIDTH 540 0
DWIDTH 9 0
BBX 8 8 0 0
BITMAP
E3
F6
F6
FC
FE
F6
E3
E3
ENDCHAR
STARTCHAR 049E
ENCODING 1182
SWIDTH 540 0
DWIDTH 9 0
BBX 8 11 0 0
BITMAP
73
F7
76
7C
7C
78
7C
76
76
73
73
ENDCHAR
STARTCHAR 049F
ENCODING 1183
SWIDTH 540 0
DWIDTH 9 0
BBX 8 9 0 0
BITMAP
60
F7
66
6C
78
7C
6E
66
63
ENDCHAR
STARTCHAR 04A0
ENCODING 1184
SWIDTH 540 0
DWIDTH 9 0
BBX 8 11 0 0
BITMAP
F3
F7
36
3E
3C
3C
3C
36
36
33
33
ENDCHAR
STARTCHAR 04A1
ENCODING 1185
SWIDTH 540 0
DWIDTH 9 0
BBX 8 8 0 0
BITMAP
F7
F6
3C
38
3C
36
36
33
ENDCHAR
STARTCHAR 04A2
ENCODING 1186
SWIDTH 540 0
DWIDTH 9 0
BBX 7 14 1 -3
BITMAP
CC
CC
CC
CC
FC
FC
CC
CC
CC
CE
CE
06
06
06
ENDCHAR
STARTCHAR 04A3
ENCODING 1187
SWIDTH 540 0
DWIDTH 9 0
BBX 7 10 1 -2
BITMAP
CC
CC
CC
FC
FC
CC
CE
CE
06
06
ENDCHAR
STARTCHAR 04A4
ENCODING 1188
SWIDTH 540 0
DWIDTH 9 0
BBX 7 11 1 0
BITMAP
CE
CE
CC
CC
FC
FC
CC
CC
CC
CC
CC
ENDCHAR
STARTCHAR 04A5
ENCODING 1189
SWIDTH 540 0
DWIDTH 9 0
BBX 7 8 1 0
BITMAP
CE
CE
CC
FC
FC
CC
CC
CC
ENDCHAR
STARTCHAR 04A6
ENCODING 1190
SWIDTH 540 0
DWIDTH 9 0
BBX 7 14 1 -3
BITMAP
F0
F0
B0
B0
BC
BE
B6
B6
B6
B6
B6
06
0E
0C
ENDCHAR
STARTCHAR 04A7
ENCODING 1191
SWIDTH 540 0
DWIDTH 9 0
BBX 7 11 1 -3
BITMAP
F0
F0
B0
BC
BE
B6
B6
B6
06
0E
0C
ENDCHAR
STARTCHAR 04A8
ENCODING 1192
SWIDTH 540 0
DWIDTH 9 0
BBX 8 14 0 -3
BITMAP
1E
3E
60
6E
CF
DB
D9
5B
7B
7E
3C
0C
07
02
ENDCHAR
STARTCHAR 04A9
ENCODING 1193
SWIDTH 540 0
DWIDTH 9 0
BBX 8 10 0 -2
BITMAP
3C
7C
60
CF
DF
79
7B
3E
0F
03
ENDCHAR
STARTCHAR 04AA
ENCODING 1194
SWIDTH 540 0
DWIDTH 9 0
BBX 8 14 0 -3
BITMAP
1E
3F
71
60
60
E0
E0
60
71
7F
1E
0C
04
1C
ENDCHAR
STARTCHAR 04AB
ENCODING 1195
SWIDTH 540 0
DWIDTH 9 0
BBX 7 11 1 -3
BITMAP
3E
7C
E0
C0
C0
E0
FE
3E
18
08
38
ENDCHAR
STARTCHAR 04AC
ENCODING 1196
SWIDTH 540 0
DWIDTH 9 0
BBX 8 14 0 -3
BITMAP
FF
FF
18
18
18
18
18
18
18
1C
1C
0C
0C
0C
ENDCHAR
STARTCHAR 04AD
ENCODING 1197
SWIDTH 540 0
DWIDTH 9 0
BBX 7 10 1 -2
BITMAP
FE
FE
30
30
30
30
3C
3C
0C
0C
ENDCHAR
STARTCHAR 04AE
ENCODING 1198
SWIDTH 540 0
DWIDTH 9 0
BBX 8 11 0 0
BITMAP
E3
63
66
36
36
1C
18
18
18
18
18
ENDCHAR
STARTCHAR 04AF
ENCODING 1199
SWIDTH 540 0
DWIDTH 9 0
BBX 8 11 0 -3
BITMAP
E3
63
66
66
36
3C
3C
18
18
18
18
ENDCHAR
STARTCHAR 04B0
ENCODING 1200
SWIDTH 540 0
DWIDTH 9 0
BBX 8 11 0 0
BITMAP
E3
63
66
36
36
3C
1C
7E
18
18
18
ENDCHAR
STARTCHAR 04B1
ENCODING 1201
SWIDTH 540 0
DWIDTH 9 0
BBX 8 11 0 -3
BITMAP
E3
63
66
66
36
3C
3C
7E
18
18
18
ENDCHAR
STARTCHAR 04B2
ENCODING 1202
SWIDTH 540 0
DWIDTH 9 0
BBX 8 14 0 -3
BITMAP
63
66
36
3C
1C
18
3C
3C
66
67
E3
03
03
03
ENDCHAR
STARTCHAR 04B3
ENCODING 1203
SWIDTH 540 0
DWIDTH 9 0
BBX 7 10 1 -2
BITMAP
CC
CC
78
30
78
7C
CE
CE
06
06
ENDCHAR
STARTCHAR 04B4
ENCODING 1204
SWIDTH 540 0
DWIDTH 9 0
BBX 8 14 0 -3
BITMAP
FB
FB
73
73
73
73
73
73
73
7F
7F
03
03
03
ENDCHAR
STARTCHAR 04B5
ENCODING 1205
SWIDTH 540 0
DWIDTH 9 0
BBX 8 10 0 -2
BITMAP
FA
FA
22
22
22
22
3F
3F
03
03
ENDCHAR
STARTCHAR 04B6
ENCODING 1206
SWIDTH 540 0
DWIDTH 9 0
BBX 7 14 1 -3
BITMAP
CC
CC
CC
CC
CC
FC
7C
0C
0C
0E
0E
06
06
06
ENDCHAR
STARTCHAR 04B7
ENCODING 1207
SWIDTH 540 0
DWIDTH 9 0
BBX 7 10 1 -2
BITMAP
CC
CC
CC
FC
7C
0C
0E
0E
06
06
ENDCHAR
STARTCHAR 04B8
ENCODING 1208
SWIDTH 540 0
DWIDTH 9 0
BBX 8 11 0 0
BITMAP
E3
E3
E3
EB
6B
7F
3F
0B
0B
03
03
ENDCHAR
STARTCHAR 04B9
ENCODING 1209
SWIDTH 540 0
DWIDTH 9 0
BBX 7 8 1 0
BITMAP
C6
C6
D6
FE
7E
16
16
06
ENDCHAR
STARTCHAR 04BA
ENCODING 1210
SWIDTH 540 0
DWIDTH 9 0
BBX 7 11 1 0
BITMAP
C0
C0
C0
C0
FC
FC
CE
C6
C6
C6
C6
ENDCHAR
STARTCHAR 04BB
ENCODING 1211
SWIDTH 540 0
DWIDTH 9 0
BBX 7 12 1 0
BITMAP
C0
C0
C0
C0
F8
FC
CC
CC
CE
CE
CE
CE
ENDCHAR
STARTCHAR 04BC
ENCODING 1212
SWIDTH 540 0
DWIDTH 9 0
BBX 8 11 0 0
BITMAP
0E
1F
1B
D3
DF
7F
10
10
19
1F
0F
ENDCHAR
STARTCHAR 04BD
ENCODING 1213
SWIDTH 540 0
DWIDTH 9 0
BBX 8 8 0 0
BITMAP
0E
DE
F3
73
3F
30
1E
0E
ENDCHAR
STARTCHAR 04BE
ENCODING 1214
SWIDTH 540 0
DWIDTH 9 0
BBX 8 13 0 -2
BITMAP
0E
1F
1B
D3
FF
7F
10
10
19
1F
0F
04
04
ENDCHAR
STARTCHAR 04BF
ENCODING 1215
SWIDTH 540 0
DWIDTH 9 0
BBX 8 10 0 -2
BITMAP
0E
DE
F3
7F
3F
30
1E
0E
04
04
ENDCHAR
STARTCHAR 04C0
ENCODING 1216
SWIDTH 540 0
DWIDTH 9 0
BBX 7 11 1 0
BITMAP
FE
FE
30
30
30
30
30
30
30
FE
FE
ENDCHAR
STARTCHAR 04C1
ENCODING 1217
SWIDTH 540 0
DWIDTH 9 0
BBX 8 15 0 0
BITMAP
26
3E
1C
00
DB
5B
7A
3E
3C
3C
3E
7A
5B
DB
D9
ENDCHAR
STARTCHAR 04C2
ENCODING 1218
SWIDTH 540 0
DWIDTH 9 0
BBX 8 12 0 0
BITMAP
26
3E
1C
00
DB
7A
3E
3C
3E
7A
5B
DB
ENDCHAR
STARTCHAR 04C3
ENCODING 1219
SWIDTH 540 0
DWIDTH 9 0
BBX 7 14 1 -3
BITMAP
C6
CC
D8
F0
F8
FC
CE
C6
C6
C6
C6
0E
3C
38
ENDCHAR
STARTCHAR 04C4
ENCODING 1220
SWIDTH 540 0
DWIDTH 9 0
BBX 7 11 1 -3
BITMAP
CE
DC
D8
F8
FC
CE
C6
C6
06
3C
38
ENDCHAR
STARTCHAR 04C5
ENCODING 1221
SWIDTH 540 0
DWIDTH 9 0
BBX 8 14 0 -3
BITMAP
3E
3E
36
36
36
36
36
36
76
E7
C7
03
06
04
ENDCHAR
STARTCHAR 04C6
ENCODING 1222
SWIDTH 540 0
DWIDTH 9 0
BBX 8 11 0 -3
BITMAP
3E
3E
36
36
36
76
E7
47
03
06
06
ENDCHAR
STARTCHAR 04C7
ENCODING 1223
SWIDTH 540 0
DWIDTH 9 0
BBX 7 14 1 -3
BITMAP
C6
C6
C6
C6
FE
FE
C6
C6
C6
C6
C6
0E
1C
3C
ENDCHAR
STARTCHAR 04C8
ENCODING 1224
SWIDTH 540 0
DWIDTH 9 0
BBX 6 11 1 -3
BITMAP
CC
CC
CC
FC
FC
CC
CC
CC
0C
3C
38
ENDCHAR
STARTCHAR 04C9
ENCODING 1225
SWIDTH 540 0
DWIDTH 9 0
BBX 7 14 1 -3
BITMAP
CC
CC
CC
CC
FC
FC
CC
CC
CC
CE
CE
06
0C
08
ENDCHAR
STARTCHAR 04CA
ENCODING 1226
SWIDTH 540 0
DWIDTH 9 0
BBX 7 11 1 -3
BITMAP
CC
CC
CC
FC
FC
CC
CE
CE
06
0C
04
ENDCHAR
STARTCHAR 04CB
ENCODING 1227
SWIDTH 540 0
DWIDTH 9 0
BBX 7 14 1 -3
BITMAP
C6
C6
C6
C6
C6
FE
7E
06
06
1E
1E
18
18
18
ENDCHAR
STARTCHAR 04CC
ENCODING 1228
SWIDTH 540 0
DWIDTH 9 0
BBX 6 10 1 -2
BITMAP
CC
CC
CC
FC
7C
0C
1C
1C
18
18
ENDCHAR
STARTCHAR 04CD
ENCODING 1229
SWIDTH 540 0
DWIDTH 9 0
BBX 8 14 0 -3
BITMAP
66
66
66
5E
5B
5B
5B
43
C3
C3
C3
03
02
02
ENDCHAR
STARTCHAR 04CE
ENCODING 1230
SWIDTH 540 0
DWIDTH 9 0
BBX 8 11 0 -3
BITMAP
66
66
66
5F
5B
5B
DB
C3
03
03
02
ENDCHAR
STARTCHAR 04CF
ENCODING 1231
SWIDTH 540 0
DWIDTH 9 0
BBX 7 11 1 0
BITMAP
FE
FE
30
30
30
30
30
30
30
FE
FE
ENDCHAR
STARTCHAR 04D0
ENCODING 1232
SWIDTH 540 0
DWIDTH 9 0
BBX 8 15 0 0
BITMAP
26
3E
1C
00
1C
1C
3C
34
36
26
7E
7F
63
63
C3
ENDCHAR
STARTCHAR 04D1
ENCODING 1233
SWIDTH 540 0
DWIDTH 9 0
BBX 7 12 1 0
BITMAP
4C
7C
38
00
78
7C
0C
7E
FE
CE
FE
7E
ENDCHAR
STARTCHAR 04D2
ENCODING 1234
SWIDTH 540 0
DWIDTH 9 0
BBX 8 14 0 0
BITMAP
36
36
00
1C
1C
3C
34
36
26
7E
7F
63
63
C3
ENDCHAR
STARTCHAR 04D3
ENCODING 1235
SWIDTH 540 0
DWIDTH 9 0
BBX 7 12 1 0
BITMAP
6C
6C
00
00
78
7C
0C
7E
FE
CE
FE
7E
ENDCHAR
STARTCHAR 04D4
ENCODING 1236
SWIDTH 540 0
DWIDTH 9 0
BBX 8 11 0 0
BITMAP
1F
1F
1C
3C
3F
2F
7C
7C
6C
6F
CF
ENDCHAR
STARTCHAR 04D5
ENCODING 1237
SWIDTH 540 0
DWIDTH 9 0
BBX 8 8 0 0
BITMAP
76
7F
09
7F
7F
C8
7F
77
ENDCHAR
STARTCHAR 04D6
ENCODING 1238
SWIDTH 540 0
DWIDTH 9 0
BBX 7 15 1 0
BITMAP
64
7C
38
00
FC
FC
C0
C0
FC
FC
C0
C0
C0
FE
FE
ENDCHAR
STARTCHAR 04D7
ENCODING 1239
SWIDTH 540 0
DWIDTH 9 0
BBX 7 12 1 0
BITMAP
6C
7C
38
00
78
FC
C6
FE
FE
C0
FC
7C
ENDCHAR
STARTCHAR 04D8
ENCODING 1240
SWIDTH 540 0
DWIDTH 9 0
BBX 8 11 0 0
BITMAP
7C
7E
06
03
03
FF
FF
43
66
7E
3C
ENDCHAR
STARTCHAR 04D9
ENCODING 1241
SWIDTH 540 0
DWIDTH 9 0
BBX 7 8 1 0
BITMAP
F8
FC
06
FE
FE
C6
FC
78
ENDCHAR
STARTCHAR 04DA
ENCODING 1242
SWIDTH 540 0
DWIDTH 9 0
BBX 8 14 0 0
BITMAP
66
66
00
7C
7E
06
03
03
FF
FF
43
66
7E
3C
ENDCHAR
STARTCHAR 04DB
ENCODING 1243
SWIDTH 540 0
DWIDTH 9 0
BBX 7 12 1 0
BITMAP
CC
CC
00
00
F8
FC
06
FE
FE
C6
FC
78
ENDCHAR
STARTCHAR 04DC
ENCODING 1244
SWIDTH 540 0
DWIDTH 9 0
BBX 8 14 0 0
BITMAP
36
36
00
DB
5B
7A
3E
3C
3C
3E
7A
5B
DB
D9
ENDCHAR
STARTCHAR 04DD
ENCODING 1245
SWIDTH 540 0
DWIDTH 9 0
BBX 8 12 0 0
BITMAP
36
36
00
00
DB
7A
3E
3C
3E
7A
5B
DB
ENDCHAR
STARTCHAR 04DE
ENCODING 1246
SWIDTH 540 0
DWIDTH 9 0
BBX 7 14 1 0
BITMAP
6C
6C
00
78
FC
8E
0E
7C
7C
06
06
86
FE
F8
ENDCHAR
STARTCHAR 04DF
ENCODING 1247
SWIDTH 540 0
DWIDTH 9 0
BBX 6 12 1 0
BITMAP
CC
CC
00
00
F8
FC
0C
7C
7C
0C
FC
F8
ENDCHAR
STARTCHAR 04E0
ENCODING 1248
SWIDTH 540 0
DWIDTH 9 0
BBX 7 11 1 0
BITMAP
FE
FE
0C
18
38
3C
06
06
86
FE
FC
ENDCHAR
STARTCHAR 04E1
ENCODING 1249
SWIDTH 540 0
DWIDTH 9 0
BBX 7 11 1 -3
BITMAP
FC
FC
08
10
38
7C
0C
0E
0C
FC
F8
ENDCHAR
STARTCHAR 04E2
ENCODING 1250
SWIDTH 540 0
DWIDTH 9 0
BBX 7 13 1 0
BITMAP
7C
00
C6
CE
CE
DE
D6
F6
E6
E6
E6
C6
C6
ENDCHAR
STARTCHAR 04E3
ENCODING 1251
SWIDTH 540 0
DWIDTH 9 0
BBX 6 11 1 0
BITMAP
7C
00
00
CC
CC
DC
F4
F4
E4
E4
C4
ENDCHAR
STARTCHAR 04E4
ENCODING 1252
SWIDTH 540 0
DWIDTH 9 0
BBX 7 14 1 0
BITMAP
6C
6C
00
C6
CE
CE
DE
D6
F6
E6
E6
E6
C6
C6
ENDCHAR
STARTCHAR 04E5
ENCODING 1253
SWIDTH 540 0
DWIDTH 9 0
BBX 6 12 1 0
BITMAP
6C
6C
00
00
CC
CC
DC
F4
F4
E4
E4
C4
ENDCHAR
STARTCHAR 04E6
ENCODING 1254
SWIDTH 540 0
DWIDTH 9 0
BBX 8 14 0 0
BITMAP
36
36
00
3C
7E
67
63
E3
E3
E3
63
67
7E
3C
ENDCHAR
STARTCHAR 04E7
ENCODING 1255
SWIDTH 540 0
DWIDTH 9 0
BBX 7 12 1 0
BITMAP
6C
6C
00
00
78
FC
CE
C6
C6
CE
FC
78
ENDCHAR
STARTCHAR 04E8
ENCODING 1256
SWIDTH 540 0
DWIDTH 9 0
BBX 8 11 0 0
BITMAP
3C
7E
67
63
FF
FF
E3
63
67
7E
3C
ENDCHAR
STARTCHAR 04E9
ENCODING 1257
SWIDTH 540 0
DWIDTH 9 0
BBX 7 8 1 0
BITMAP
78
FC
CE
C6
FE
C6
FC
78
ENDCHAR
STARTCHAR 04EA
ENCODING 1258
SWIDTH 540 0
DWIDTH 9 0
BBX 8 14 0 0
BITMAP
36
36
00
3C
7E
67
63
FF
FF
E3
63
67
7E
3C
ENDCHAR
STARTCHAR 04EB
ENCODING 1259
SWIDTH 540 0
DWIDTH 9 0
BBX 7 12 1 0
BITMAP
6C
6C
00
00
78
FC
CE
C6
FE
C6
FC
78
ENDCHAR
STARTCHAR 04EC
ENCODING 1260
SWIDTH 540 0
DWIDTH 9 0
BBX 7 14 1 0
BITMAP
CC
CC
00
78
FC
8E
06
3E
3E
06
06
8E
FC
F8
ENDCHAR
STARTCHAR 04ED
ENCODING 1261
SWIDTH 540 0
DWIDTH 9 0
BBX 8 12 0 0
BITMAP
66
66
00
00
7C
7E
07
3F
3F
07
7E
FC
ENDCHAR
STARTCHAR 04EE
ENCODING 1262
SWIDTH 540 0
DWIDTH 9 0
BBX 8 13 0 0
BITMAP
3E
00
E3
63
67
36
36
1E
1C
0C
18
78
F0
ENDCHAR
STARTCHAR 04EF
ENCODING 1263
SWIDTH 540 0
DWIDTH 9 0
BBX 8 14 0 -3
BITMAP
3E
00
00
63
63
66
36
36
1C
1C
1C
18
78
F0
ENDCHAR
STARTCHAR 04F0
ENCODING 1264
SWIDTH 540 0
DWIDTH 9 0
BBX 8 14 0 0
BITMAP
36
36
00
E3
63
67
36
36
1E
1C
0C
18
78
F0
ENDCHAR
STARTCHAR 04F1
ENCODING 1265
SWIDTH 540 0
DWIDTH 9 0
BBX 8 15 0 -3
BITMAP
36
36
00
00
63
63
66
36
36
1C
1C
1C
18
78
F0
ENDCHAR
STARTCHAR 04F2
ENCODING 1266
SWIDTH 540 0
DWIDTH 9 0
BBX 8 15 0 0
BITMAP
13
3E
24
00
E3
63
67
36
36
1E
1C
0C
18
78
F0
ENDCHAR
STARTCHAR 04F3
ENCODING 1267
SWIDTH 540 0
DWIDTH 9 0
BBX 8 15 0 -3
BITMAP
13
3E
24
00
63
63
66
36
36
1C
1C
1C
18
78
F0
ENDCHAR
STARTCHAR 04F4
ENCODING 1268
SWIDTH 540 0
DWIDTH 9 0
BBX 7 14 1 0
BITMAP
6C
6C
00
C6
C6
C6
C6
C6
FE
7E
06
06
06
06
ENDCHAR
STARTCHAR 04F5
ENCODING 1269
SWIDTH 540 0
DWIDTH 9 0
BBX 6 12 1 0
BITMAP
6C
6C
00
00
CC
CC
CC
FC
7C
0C
0C
0C
ENDCHAR
STARTCHAR 04F6
ENCODING 1270
SWIDTH 540 0
DWIDTH 9 0
BBX 7 13 1 -2
BITMAP
7E
7E
60
60
60
60
60
60
60
FC
FC
0C
0C
ENDCHAR
STARTCHAR 04F7
ENCODING 1271
SWIDTH 540 0
DWIDTH 9 0
BBX 6 10 2 -2
BITMAP
FC
FC
C0
C0
C0
C0
E0
E0
60
60
ENDCHAR
STARTCHAR 04F8
ENCODING 1272
SWIDTH 540 0
DWIDTH 9 0
BBX 7 14 1 0
BITMAP
6C
6C
00
86
86
86
E6
F6
9E
9E
9E
9E
F6
E6
ENDCHAR
STARTCHAR 04F9
ENCODING 1273
SWIDTH 540 0
DWIDTH 9 0
BBX 7 12 1 0
BITMAP
6C
6C
00
00
86
86
F6
F6
9E
9E
F6
F6
ENDCHAR
STARTCHAR 1E80
ENCODING 7808
SWIDTH 540 0
DWIDTH 9 0
BBX 8 15 0 0
BITMAP
10
38
08
00
C3
C3
C3
43
5B
5B
5F
77
77
67
63
ENDCHAR
STARTCHAR 1E81
ENCODING 7809
SWIDTH 540 0
DWIDTH 9 0
BBX 8 12 0 0
BITMAP
10
38
08
00
C1
C3
DB
5B
5F
57
76
66
ENDCHAR
STARTCHAR 1E82
ENCODING 7810
SWIDTH 540 0
DWIDTH 9 0
BBX 8 15 0 0
BITMAP
04
1C
10
00
C3
C3
C3
43
5B
5B
5F
77
77
67
63
ENDCHAR
STARTCHAR 1E83
ENCODING 7811
SWIDTH 540 0
DWIDTH 9 0
BBX 8 12 0 0
BITMAP
04
1C
10
00
C1
C3
DB
5B
5F
57
76
66
ENDCHAR
STARTCHAR 1E84
ENCODING 7812
SWIDTH 540 0
DWIDTH 9 0
BBX 8 14 0 0
BITMAP
36
36
00
C3
C3
C3
43
5B
5B
5F
77
77
67
63
ENDCHAR
STARTCHAR 1E85
ENCODING 7813
SWIDTH 540 0
DWIDTH 9 0
BBX 8 12 0 0
BITMAP
36
36
00
00
C1
C3
DB
5B
5F
57
76
66
ENDCHAR
STARTCHAR 1EF2
ENCODING 7922
SWIDTH 540 0
DWIDTH 9 0
BBX 8 15 0 0
BITMAP
10
38
08
00
E3
63
66
36
36
1C
18
18
18
18
18
ENDCHAR
STARTCHAR 1EF3
ENCODING 7923
SWIDTH 540 0
DWIDTH 9 0
BBX 8 15 0 -3
BITMAP
10
38
08
00
63
63
66
36
36
1C
1C
1C
18
78
F0
ENDCHAR
STARTCHAR 1F00
ENCODING 7936
SWIDTH 540 0
DWIDTH 9 0
BBX 7 13 1 0
BITMAP
30
38
10
20
00
7C
FC
CC
CC
CC
CC
FE
7E
ENDCHAR
STARTCHAR 1F01
ENCODING 7937
SWIDTH 540 0
DWIDTH 9 0
BBX 7 13 1 0
BITMAP
30
30
30
10
00
7C
FC
CC
CC
CC
CC
FE
7E
ENDCHAR
STARTCHAR 1F02
ENCODING 7938
SWIDTH 540 0
DWIDTH 9 0
BBX 7 13 1 0
BITMAP
68
6C
64
44
00
7C
FC
CC
CC
CC
CC
FE
7E
ENDCHAR
STARTCHAR 1F03
ENCODING 7939
SWIDTH 540 0
DWIDTH 9 0
BBX 7 13 1 0
BITMAP
C8
D8
4C
24
00
7C
FC
CC
CC
CC
CC
FE
7E
ENDCHAR
STARTCHAR 1F04
ENCODING 7940
SWIDTH 540 0
DWIDTH 9 0
BBX 7 13 1 0
BITMAP
64
6C
68
48
00
7C
FC
CC
CC
CC
CC
FE
7E
ENDCHAR
STARTCHAR 1F05
ENCODING 7941
SWIDTH 540 0
DWIDTH 9 0
BBX 7 13 1 0
BITMAP
64
6C
4C
28
00
7C
FC
CC
CC
CC
CC
FE
7E
ENDCHAR
STARTCHAR 1F06
ENCODING 7942
SWIDTH 540 0
DWIDTH 9 0
BBX 7 14 1 0
BITMAP
38
4C
30
30
20
00
7C
FC
CC
CC
CC
CC
FE
7E
ENDCHAR
STARTCHAR 1F07
ENCODING 7943
SWIDTH 540 0
DWIDTH 9 0
BBX 7 14 1 0
BITMAP
38
4C
30
30
10
00
7C
FC
CC
CC
CC
CC
FE
7E
ENDCHAR
STARTCHAR 1F08
ENCODING 7944
SWIDTH 540 0
DWIDTH 9 0
BBX 8 11 0 0
BITMAP
DC
DC
FC
B4
36
26
7E
7F
63
63
C3
ENDCHAR
STARTCHAR 1F09
ENCODING 7945
SWIDTH 540 0
DWIDTH 9 0
BBX 9 11 -1 0
BITMAP
CE00
CE00
5E00
7A00
1B00
1300
3F00
3F80
3180
3180
6180
ENDCHAR
STARTCHAR 1F0A
ENCODING 7946
SWIDTH 540 0
DWIDTH 9 0
BBX 12 11 -4 0
BITMAP
D1C0
D9C0
CBC0
8740
0360
0260
07E0
07F0
0630
0630
0C30
ENDCHAR
STARTCHAR 1F0B
ENCODING 7947
SWIDTH 540 0
DWIDTH 9 0
BBX 12 11 -4 0
BITMAP
D1C0
D9C0
CBC0
4B40
0360
0260
07E0
07F0
0630
0630
0C30
ENDCHAR
STARTCHAR 1F0C
ENCODING 7948
SWIDTH 540 0
DWIDTH 9 0
BBX 11 11 -3 0
BITMAP
CB80
DB80
D780
9680
06C0
04C0
0FC0
0FE0
0C60
0C60
1860
ENDCHAR
STARTCHAR 1F0D
ENCODING 7949
SWIDTH 540 0
DWIDTH 9 0
BBX 12 11 -4 0
BITMAP
C5C0
CDC0
4BC0
2B40
0360
0260
07E0
07F0
0630
0630
0C30
ENDCHAR
STARTCHAR 1F0E
ENCODING 7950
SWIDTH 540 0
DWIDTH 9 0
BBX 10 12 -2 0
BITMAP
F000
9700
6700
6F00
4D00
0D80
0980
1F80
1FC0
18C0
18C0
30C0
ENDCHAR
STARTCHAR 1F0F
ENCODING 7951
SWIDTH 540 0
DWIDTH 9 0
BBX 10 12 -2 0
BITMAP
F000
9700
6700
6F00
2D00
0D80
0980
1F80
1FC0
18C0
18C0
30C0
ENDCHAR
STARTCHAR 1F10
ENCODING 7952
SWIDTH 540 0
DWIDTH 9 0
BBX 7 13 1 0
BITMAP
18
18
10
30
00
7C
FC
C0
78
78
C0
FC
7E
ENDCHAR
STARTCHAR 1F11
ENCODING 7953
SWIDTH 540 0
DWIDTH 9 0
BBX 7 13 1 0
BITMAP
30
30
30
10
00
7C
FC
C0
78
78
C0
FC
7E
ENDCHAR
STARTCHAR 1F12
ENCODING 7954
SWIDTH 540 0
DWIDTH 9 0
BBX 7 13 1 0
BITMAP
68
6C
64
44
00
7C
FC
C0
78
78
C0
FC
7E
ENDCHAR
STARTCHAR 1F13
ENCODING 7955
SWIDTH 540 0
DWIDTH 9 0
BBX 7 13 1 0
BITMAP
C8
D8
4C
24
00
7C
FC
C0
78
78
C0
FC
7E
ENDCHAR
STARTCHAR 1F14
ENCODING 7956
SWIDTH 540 0
DWIDTH 9 0
BBX 7 13 1 0
BITMAP
64
6C
68
48
00
7C
FC
C0
78
78
C0
FC
7E
ENDCHAR
STARTCHAR 1F15
ENCODING 7957
SWIDTH 540 0
DWIDTH 9 0
BBX 7 13 1 0
BITMAP
64
6C
4C
28
00
7C
FC
C0
78
78
C0
FC
7E
ENDCHAR
STARTCHAR 1F18
ENCODING 7960
SWIDTH 540 0
DWIDTH 9 0
BBX 10 11 -2 0
BITMAP
DF80
DF80
D800
9800
1F80
1F80
1800
1800
1800
1FC0
1FC0
ENDCHAR
STARTCHAR 1F19
ENCODING 7961
SWIDTH 540 0
DWIDTH 9 0
BBX 10 11 -2 0
BITMAP
DF80
DF80
D800
5800
1F80
1F80
1800
1800
1800
1FC0
1FC0
ENDCHAR
STARTCHAR 1F1A
ENCODING 7962
SWIDTH 540 0
DWIDTH 9 0
BBX 14 11 -6 0
BITMAP
69F8
69F8
4D80
8580
01F8
01F8
0180
0180
0180
01FC
01FC
ENDCHAR
STARTCHAR 1F1B
ENCODING 7963
SWIDTH 540 0
DWIDTH 9 0
BBX 13 11 -5 0
BITMAP
D3F0
D3F0
9B00
4B00
03F0
03F0
0300
0300
0300
03F8
03F8
ENDCHAR
STARTCHAR 1F1C
ENCODING 7964
SWIDTH 540 0
DWIDTH 9 0
BBX 13 11 -5 0
BITMAP
CBF0
DBF0
D300
9300
03F0
03F0
0300
0300
0300
03F8
03F8
ENDCHAR
STARTCHAR 1F1D
ENCODING 7965
SWIDTH 540 0
DWIDTH 9 0
BBX 14 11 -6 0
BITMAP
C5F8
CDF8
4980
2980
01F8
01F8
0180
0180
0180
01FC
01FC
ENDCHAR
STARTCHAR 1F20
ENCODING 7968
SWIDTH 540 0
DWIDTH 9 0
BBX 7 16 1 -3
BITMAP
30
38
10
20
00
F8
FC
CC
CC
CE
CE
CE
CE
0E
0E
0E
ENDCHAR
STARTCHAR 1F21
ENCODING 7969
SWIDTH 540 0
DWIDTH 9 0
BBX 7 16 1 -3
BITMAP
30
30
30
10
00
F8
FC
CC
CC
CE
CE
CE
CE
0E
0E
0E
ENDCHAR
STARTCHAR 1F22
ENCODING 7970
SWIDTH 540 0
DWIDTH 9 0
BBX 7 16 1 -3
BITMAP
68
6C
64
44
00
F8
FC
CC
CC
CE
CE
CE
CE
0E
0E
0E
ENDCHAR
STARTCHAR 1F23
ENCODING 7971
SWIDTH 540 0
DWIDTH 9 0
BBX 7 16 1 -3
BITMAP
C8
D8
4C
24
00
F8
FC
CC
CC
CE
CE
CE
CE
0E
0E
0E
ENDCHAR
STARTCHAR 1F24
ENCODING 7972
SWIDTH 540 0
DWIDTH 9 0
BBX 7 16 1 -3
BITMAP
64
6C
68
48
00
F8
FC
CC
CC
CE
CE
CE
CE
0E
0E
0E
ENDCHAR
STARTCHAR 1F25
ENCODING 7973
SWIDTH 540 0
DWIDTH 9 0
BBX 7 16 1 -3
BITMAP
64
6C
4C
28
00
F8
FC
CC
CC
CE
CE
CE
CE
0E
0E
0E
ENDCHAR
STARTCHAR 1F26
ENCODING 7974
SWIDTH 540 0
DWIDTH 9 0
BBX 7 17 1 -3
BITMAP
38
4C
30
30
20
00
F8
FC
CC
CC
CE
CE
CE
CE
0E
0E
0E
ENDCHAR
STARTCHAR 1F27
ENCODING 7975
SWIDTH 540 0
DWIDTH 9 0
BBX 7 17 1 -3
BITMAP
38
4C
30
30
10
00
F8
FC
CC
CC
CE
CE
CE
CE
0E
0E
0E
ENDCHAR
STARTCHAR 1F28
ENCODING 7976
SWIDTH 540 0
DWIDTH 9 0
BBX 11 11 -3 0
BITMAP
6C60
6C60
4C60
CC60
0FE0
0FE0
0C60
0C60
0C60
0C60
0C60
ENDCHAR
STARTCHAR 1F29
ENCODING 7977
SWIDTH 540 0
DWIDTH 9 0
BBX 11 11 -3 0
BITMAP
4C60
EC60
4C60
2C60
0FE0
0FE0
0C60
0C60
0C60
0C60
0C60
ENDCHAR
STARTCHAR 1F2A
ENCODING 7978
SWIDTH 540 0
DWIDTH 9 0
BBX 14 11 -6 0
BITMAP
C98C
D98C
4D8C
858C
01FC
01FC
018C
018C
018C
018C
018C
ENDCHAR
STARTCHAR 1F2B
ENCODING 7979
SWIDTH 540 0
DWIDTH 9 0
BBX 14 11 -6 0
BITMAP
C98C
D98C
4D8C
658C
01FC
01FC
018C
018C
018C
018C
018C
ENDCHAR
STARTCHAR 1F2C
ENCODING 7980
SWIDTH 540 0
DWIDTH 9 0
BBX 14 11 -6 0
BITMAP
698C
6D8C
598C
D18C
01FC
01FC
018C
018C
018C
018C
018C
ENDCHAR
STARTCHAR 1F2D
ENCODING 7981
SWIDTH 540 0
DWIDTH 9 0
BBX 14 11 -6 0
BITMAP
C98C
CD8C
D98C
518C
01FC
01FC
018C
018C
018C
018C
018C
ENDCHAR
STARTCHAR 1F2E
ENCODING 7982
SWIDTH 540 0
DWIDTH 9 0
BBX 12 12 -4 0
BITMAP
F000
9630
6630
6630
4630
07F0
07F0
0630
0630
0630
0630
0630
ENDCHAR
STARTCHAR 1F2F
ENCODING 7983
SWIDTH 540 0
DWIDTH 9 0
BBX 12 12 -4 0
BITMAP
F000
9630
6630
4630
2630
07F0
07F0
0630
0630
0630
0630
0630
ENDCHAR
STARTCHAR 1F30
ENCODING 7984
SWIDTH 540 0
DWIDTH 9 0
BBX 7 13 1 0
BITMAP
30
38
10
20
00
F0
F0
30
30
30
30
3E
1E
ENDCHAR
STARTCHAR 1F31
ENCODING 7985
SWIDTH 540 0
DWIDTH 9 0
BBX 7 13 1 0
BITMAP
30
30
30
10
00
F0
F0
30
30
30
30
3E
1E
ENDCHAR
STARTCHAR 1F32
ENCODING 7986
SWIDTH 540 0
DWIDTH 9 0
BBX 7 13 1 0
BITMAP
68
6C
64
44
00
F0
F0
30
30
30
30
3E
1E
ENDCHAR
STARTCHAR 1F33
ENCODING 7987
SWIDTH 540 0
DWIDTH 9 0
BBX 7 13 1 0
BITMAP
C8
D8
4C
24
00
F0
F0
30
30
30
30
3E
1E
ENDCHAR
STARTCHAR 1F34
ENCODING 7988
SWIDTH 540 0
DWIDTH 9 0
BBX 7 13 1 0
BITMAP
64
6C
68
48
00
F0
F0
30
30
30
30
3E
1E
ENDCHAR
STARTCHAR 1F35
ENCODING 7989
SWIDTH 540 0
DWIDTH 9 0
BBX 7 13 1 0
BITMAP
64
6C
4C
28
00
F0
F0
30
30
30
30
3E
1E
ENDCHAR
STARTCHAR 1F36
ENCODING 7990
SWIDTH 540 0
DWIDTH 9 0
BBX 7 14 1 0
BITMAP
38
4C
30
30
20
00
F0
F0
30
30
30
30
3E
1E
ENDCHAR
STARTCHAR 1F37
ENCODING 7991
SWIDTH 540 0
DWIDTH 9 0
BBX 7 14 1 0
BITMAP
38
4C
30
30
10
00
F0
F0
30
30
30
30
3E
1E
ENDCHAR
STARTCHAR 1F38
ENCODING 7992
SWIDTH 540 0
DWIDTH 9 0
BBX 10 11 -2 0
BITMAP
DFC0
DFC0
C600
8600
0600
0600
0600
0600
0600
1FC0
1FC0
ENDCHAR
STARTCHAR 1F39
ENCODING 7993
SWIDTH 540 0
DWIDTH 9 0
BBX 11 11 -3 0
BITMAP
CFE0
CFE0
4300
2300
0300
0300
0300
0300
0300
0FE0
0FE0
ENDCHAR
STARTCHAR 1F3A
ENCODING 7994
SWIDTH 540 0
DWIDTH 9 0
BBX 14 11 -6 0
BITMAP
49FC
D9FC
4C60
8460
0060
0060
0060
0060
0060
01FC
01FC
ENDCHAR
STARTCHAR 1F3B
ENCODING 7995
SWIDTH 540 0
DWIDTH 9 0
BBX 14 11 -6 0
BITMAP
49FC
D9FC
4C60
2460
0060
0060
0060
0060
0060
01FC
01FC
ENDCHAR
STARTCHAR 1F3C
ENCODING 7996
SWIDTH 540 0
DWIDTH 9 0
BBX 13 11 -5 0
BITMAP
CBF8
DBF8
D0C0
A0C0
00C0
00C0
00C0
00C0
00C0
03F8
03F8
ENDCHAR
STARTCHAR 1F3D
ENCODING 7997
SWIDTH 540 0
DWIDTH 9 0
BBX 14 11 -6 0
BITMAP
C5FC
CDFC
5860
7060
0060
0060
0060
0060
0060
01FC
01FC
ENDCHAR
STARTCHAR 1F3E
ENCODING 7998
SWIDTH 540 0
DWIDTH 9 0
BBX 12 12 -4 0
BITMAP
F000
97F0
67F0
6180
4180
0180
0180
0180
0180
0180
07F0
07F0
ENDCHAR
STARTCHAR 1F3F
ENCODING 7999
SWIDTH 540 0
DWIDTH 9 0
BBX 12 12 -4 0
BITMAP
F000
97F0
67F0
6180
2180
0180
0180
0180
0180
0180
07F0
07F0
ENDCHAR
STARTCHAR 1F40
ENCODING 8000
SWIDTH 540 0
DWIDTH 9 0
BBX 7 13 1 0
BITMAP
30
38
10
20
00
78
FC
CE
C6
C6
CE
FC
78
ENDCHAR
STARTCHAR 1F41
ENCODING 8001
SWIDTH 540 0
DWIDTH 9 0
BBX 7 13 1 0
BITMAP
30
30
30
10
00
78
FC
CE
C6
C6
CE
FC
78
ENDCHAR
STARTCHAR 1F42
ENCODING 8002
SWIDTH 540 0
DWIDTH 9 0
BBX 7 13 1 0
BITMAP
68
6C
64
44
00
78
FC
CE
C6
C6
CE
FC
78
ENDCHAR
STARTCHAR 1F43
ENCODING 8003
SWIDTH 540 0
DWIDTH 9 0
BBX 7 13 1 0
BITMAP
C8
D8
4C
24
00
78
FC
CE
C6
C6
CE
FC
78
ENDCHAR
STARTCHAR 1F44
ENCODING 8004
SWIDTH 540 0
DWIDTH 9 0
BBX 7 13 1 0
BITMAP
64
6C
68
48
00
78
FC
CE
C6
C6
CE
FC
78
ENDCHAR
STARTCHAR 1F45
ENCODING 8005
SWIDTH 540 0
DWIDTH 9 0
BBX 7 13 1 0
BITMAP
64
6C
4C
28
00
78
FC
CE
C6
C6
CE
FC
78
ENDCHAR
STARTCHAR 1F48
ENCODING 8008
SWIDTH 540 0
DWIDTH 9 0
BBX 10 11 -2 0
BITMAP
CF00
DF80
59C0
98C0
38C0
38C0
38C0
18C0
19C0
1F80
0F00
ENDCHAR
STARTCHAR 1F49
ENCODING 8009
SWIDTH 540 0
DWIDTH 9 0
BBX 11 11 -3 0
BITMAP
C780
CFC0
4CE0
2C60
1C60
1C60
1C60
0C60
0CE0
0FC0
0780
ENDCHAR
STARTCHAR 1F4A
ENCODING 8010
SWIDTH 540 0
DWIDTH 9 0
BBX 14 11 -6 0
BITMAP
48F0
D9F8
4D9C
858C
038C
038C
038C
018C
019C
01F8
00F0
ENDCHAR
STARTCHAR 1F4B
ENCODING 8011
SWIDTH 540 0
DWIDTH 9 0
BBX 14 11 -6 0
BITMAP
48F0
D9F8
4D9C
258C
038C
038C
038C
018C
019C
01F8
00F0
ENDCHAR
STARTCHAR 1F4C
ENCODING 8012
SWIDTH 540 0
DWIDTH 9 0
BBX 13 11 -5 0
BITMAP
C9E0
DBF0
5B38
9318
0718
0718
0718
0318
0338
03F0
01E0
ENDCHAR
STARTCHAR 1F4D
ENCODING 8013
SWIDTH 540 0
DWIDTH 9 0
BBX 14 11 -6 0
BITMAP
44F0
CDF8
499C
298C
038C
038C
038C
018C
019C
01F8
00F0
ENDCHAR
STARTCHAR 1F50
ENCODING 8016
SWIDTH 540 0
DWIDTH 9 0
BBX 7 13 1 0
BITMAP
30
38
10
20
00
CE
CE
CE
CE
CE
CE
FC
78
ENDCHAR
STARTCHAR 1F51
ENCODING 8017
SWIDTH 540 0
DWIDTH 9 0
BBX 7 13 1 0
BITMAP
30
30
30
10
00
CE
CE
CE
CE
CE
CE
FC
78
ENDCHAR
STARTCHAR 1F52
ENCODING 8018
SWIDTH 540 0
DWIDTH 9 0
BBX 7 13 1 0
BITMAP
68
6C
64
44
00
CE
CE
CE
CE
CE
CE
FC
78
ENDCHAR
STARTCHAR 1F53
ENCODING 8019
SWIDTH 540 0
DWIDTH 9 0
BBX 7 13 1 0
BITMAP
C8
D8
4C
24
00
CE
CE
CE
CE
CE
CE
FC
78
ENDCHAR
STARTCHAR 1F54
ENCODING 8020
SWIDTH 540 0
DWIDTH 9 0
BBX 7 13 1 0
BITMAP
64
6C
68
48
00
CE
CE
CE
CE
CE
CE
FC
78
ENDCHAR
STARTCHAR 1F55
ENCODING 8021
SWIDTH 540 0
DWIDTH 9 0
BBX 7 13 1 0
BITMAP
64
6C
4C
28
00
CE
CE
CE
CE
CE
CE
FC
78
ENDCHAR
STARTCHAR 1F56
ENCODING 8022
SWIDTH 540 0
DWIDTH 9 0
BBX 7 14 1 0
BITMAP
38
4C
30
30
20
00
CE
CE
CE
CE
CE
CE
FC
78
ENDCHAR
STARTCHAR 1F57
ENCODING 8023
SWIDTH 540 0
DWIDTH 9 0
BBX 7 14 1 0
BITMAP
38
4C
30
30
10
00
CE
CE
CE
CE
CE
CE
FC
78
ENDCHAR
STARTCHAR 1F59
ENCODING 8025
SWIDTH 540 0
DWIDTH 9 0
BBX 10 11 -2 0
BITMAP
F8C0
D8C0
9980
4D80
0D80
0700
0600
0600
0600
0600
0600
ENDCHAR
STARTCHAR 1F5B
ENCODING 8027
SWIDTH 540 0
DWIDTH 9 0
BBX 13 11 -5 0
BITMAP
D718
DB18
9B30
49B0
01B0
00E0
00C0
00C0
00C0
00C0
00C0
ENDCHAR
STARTCHAR 1F5D
ENCODING 8029
SWIDTH 540 0
DWIDTH 9 0
BBX 14 11 -6 0
BITMAP
CB8C
CD8C
D998
50D8
00D8
0070
0060
0060
0060
0060
0060
ENDCHAR
STARTCHAR 1F5F
ENCODING 8031
SWIDTH 540 0
DWIDTH 9 0
BBX 13 12 -5 0
BITMAP
7000
9F18
2318
2330
21B0
01B0
00E0
00C0
00C0
00C0
00C0
00C0
ENDCHAR
STARTCHAR 1F60
ENCODING 8032
SWIDTH 540 0
DWIDTH 9 0
BBX 8 13 0 0
BITMAP
18
1C
08
10
00
22
62
63
DB
DB
DB
7F
76
ENDCHAR
STARTCHAR 1F61
ENCODING 8033
SWIDTH 540 0
DWIDTH 9 0
BBX 8 13 0 0
BITMAP
18
18
18
08
00
22
62
63
DB
DB
DB
7F
76
ENDCHAR
STARTCHAR 1F62
ENCODING 8034
SWIDTH 540 0
DWIDTH 9 0
BBX 8 13 0 0
BITMAP
34
36
32
22
00
22
62
63
DB
DB
DB
7F
76
ENDCHAR
STARTCHAR 1F63
ENCODING 8035
SWIDTH 540 0
DWIDTH 9 0
BBX 8 13 0 0
BITMAP
64
6C
26
12
00
22
62
63
DB
DB
DB
7F
76
ENDCHAR
STARTCHAR 1F64
ENCODING 8036
SWIDTH 540 0
DWIDTH 9 0
BBX 8 13 0 0
BITMAP
32
36
34
24
00
22
62
63
DB
DB
DB
7F
76
ENDCHAR
STARTCHAR 1F65
ENCODING 8037
SWIDTH 540 0
DWIDTH 9 0
BBX 8 13 0 0
BITMAP
32
36
26
14
00
22
62
63
DB
DB
DB
7F
76
ENDCHAR
STARTCHAR 1F66
ENCODING 8038
SWIDTH 540 0
DWIDTH 9 0
BBX 8 14 0 0
BITMAP
1C
26
18
18
10
00
22
62
63
DB
DB
DB
7F
76
ENDCHAR
STARTCHAR 1F67
ENCODING 8039
SWIDTH 540 0
DWIDTH 9 0
BBX 8 14 0 0
BITMAP
1C
26
18
18
08
00
22
62
63
DB
DB
DB
7F
76
ENDCHAR
STARTCHAR 1F68
ENCODING 8040
SWIDTH 540 0
DWIDTH 9 0
BBX 10 11 -2 0
BITMAP
CF00
DF80
D9C0
B8C0
30C0
30C0
30C0
18C0
1980
3DC0
3DC0
ENDCHAR
STARTCHAR 1F69
ENCODING 8041
SWIDTH 540 0
DWIDTH 9 0
BBX 11 11 -3 0
BITMAP
C780
CFC0
CCE0
5C60
1860
1860
1860
0C60
0CC0
1EE0
1EE0
ENDCHAR
STARTCHAR 1F6A
ENCODING 8042
SWIDTH 540 0
DWIDTH 9 0
BBX 14 11 -6 0
BITMAP
D0F0
D9F8
C99C
8B8C
030C
030C
030C
018C
0198
03DC
03DC
ENDCHAR
STARTCHAR 1F6B
ENCODING 8043
SWIDTH 540 0
DWIDTH 9 0
BBX 14 11 -6 0
BITMAP
D0F0
D9F8
C99C
4B8C
030C
030C
030C
018C
0198
03DC
03DC
ENDCHAR
STARTCHAR 1F6C
ENCODING 8044
SWIDTH 540 0
DWIDTH 9 0
BBX 13 11 -5 0
BITMAP
C9E0
DBF0
5B38
9718
0618
0618
0618
0318
0330
07B8
07B8
ENDCHAR
STARTCHAR 1F6D
ENCODING 8045
SWIDTH 540 0
DWIDTH 9 0
BBX 13 11 -5 0
BITMAP
89E0
DBF0
9338
5718
0618
0618
0618
0318
0330
07B8
07B8
ENDCHAR
STARTCHAR 1F6E
ENCODING 8046
SWIDTH 540 0
DWIDTH 9 0
BBX 12 12 -4 0
BITMAP
F000
93C0
67E0
6670
4E30
0C30
0C30
0C30
0630
0660
0F70
0F70
ENDCHAR
STARTCHAR 1F6F
ENCODING 8047
SWIDTH 540 0
DWIDTH 9 0
BBX 12 12 -4 0
BITMAP
F000
93C0
67E0
6670
2E30
0C30
0C30
0C30
0630
0660
0F70
0F70
ENDCHAR
STARTCHAR 1F70
ENCODING 8048
SWIDTH 540 0
DWIDTH 9 0
BBX 7 12 1 0
BITMAP
20
38
08
00
7C
FC
CC
CC
CC
CC
FE
7E
ENDCHAR
STARTCHAR 1F71
ENCODING 8049
SWIDTH 540 0
DWIDTH 9 0
BBX 7 12 1 0
BITMAP
08
38
20
00
7C
FC
CC
CC
CC
CC
FE
7E
ENDCHAR
STARTCHAR 1F72
ENCODING 8050
SWIDTH 540 0
DWIDTH 9 0
BBX 7 12 1 0
BITMAP
20
38
08
00
7C
FC
C0
78
78
C0
FC
7E
ENDCHAR
STARTCHAR 1F73
ENCODING 8051
SWIDTH 540 0
DWIDTH 9 0
BBX 7 12 1 0
BITMAP
08
38
20
00
7C
FC
C0
78
78
C0
FC
7E
ENDCHAR
STARTCHAR 1F74
ENCODING 8052
SWIDTH 540 0
DWIDTH 9 0
BBX 7 15 1 -3
BITMAP
20
38
08
00
F8
FC
CC
CC
CE
CE
CE
CE
0E
0E
0E
ENDCHAR
STARTCHAR 1F75
ENCODING 8053
SWIDTH 540 0
DWIDTH 9 0
BBX 7 15 1 -3
BITMAP
08
38
20
00
F8
FC
CC
CC
CE
CE
CE
CE
0E
0E
0E
ENDCHAR
STARTCHAR 1F76
ENCODING 8054
SWIDTH 540 0
DWIDTH 9 0
BBX 7 12 1 0
BITMAP
20
38
08
00
F0
F0
30
30
30
30
3E
1E
ENDCHAR
STARTCHAR 1F77
ENCODING 8055
SWIDTH 540 0
DWIDTH 9 0
BBX 7 12 1 0
BITMAP
08
38
20
00
F0
F0
30
30
30
30
3E
1E
ENDCHAR
STARTCHAR 1F78
ENCODING 8056
SWIDTH 540 0
DWIDTH 9 0
BBX 7 12 1 0
BITMAP
20
38
08
00
78
FC
CE
C6
C6
CE
FC
78
ENDCHAR
STARTCHAR 1F79
ENCODING 8057
SWIDTH 540 0
DWIDTH 9 0
BBX 7 12 1 0
BITMAP
08
38
20
00
78
FC
CE
C6
C6
CE
FC
78
ENDCHAR
STARTCHAR 1F7A
ENCODING 8058
SWIDTH 540 0
DWIDTH 9 0
BBX 7 12 1 0
BITMAP
20
38
08
00
CE
CE
CE
CE
CE
CE
FC
78
ENDCHAR
STARTCHAR 1F7B
ENCODING 8059
SWIDTH 540 0
DWIDTH 9 0
BBX 7 12 1 0
BITMAP
08
38
20
00
CE
CE
CE
CE
CE
CE
FC
78
ENDCHAR
STARTCHAR 1F7C
ENCODING 8060
SWIDTH 540 0
DWIDTH 9 0
BBX 8 12 0 0
BITMAP
10
1C
04
00
22
62
63
DB
DB
DB
7F
76
ENDCHAR
STARTCHAR 1F7D
ENCODING 8061
SWIDTH 540 0
DWIDTH 9 0
BBX 8 12 0 0
BITMAP
04
1C
10
00
22
62
63
DB
DB
DB
7F
76
ENDCHAR
STARTCHAR 1F80
ENCODING 8064
SWIDTH 540 0
DWIDTH 9 0
BBX 7 16 1 -3
BITMAP
30
38
10
20
00
7C
FC
CC
CC
CC
CC
FE
7E
00
30
38
ENDCHAR
STARTCHAR 1F81
ENCODING 8065
SWIDTH 540 0
DWIDTH 9 0
BBX 7 16 1 -3
BITMAP
30
30
30
10
00
7C
FC
CC
CC
CC
CC
FE
7E
00
30
38
ENDCHAR
STARTCHAR 1F82
ENCODING 8066
SWIDTH 540 0
DWIDTH 9 0
BBX 7 16 1 -3
BITMAP
68
6C
64
44
00
7C
FC
CC
CC
CC
CC
FE
7E
00
30
38
ENDCHAR
STARTCHAR 1F83
ENCODING 8067
SWIDTH 540 0
DWIDTH 9 0
BBX 7 16 1 -3
BITMAP
C8
D8
4C
24
00
7C
FC
CC
CC
CC
CC
FE
7E
00
30
38
ENDCHAR
STARTCHAR 1F84
ENCODING 8068
SWIDTH 540 0
DWIDTH 9 0
BBX 7 16 1 -3
BITMAP
64
6C
68
48
00
7C
FC
CC
CC
CC
CC
FE
7E
00
30
38
ENDCHAR
STARTCHAR 1F85
ENCODING 8069
SWIDTH 540 0
DWIDTH 9 0
BBX 7 16 1 -3
BITMAP
64
6C
4C
28
00
7C
FC
CC
CC
CC
CC
FE
7E
00
30
38
ENDCHAR
STARTCHAR 1F86
ENCODING 8070
SWIDTH 540 0
DWIDTH 9 0
BBX 7 17 1 -3
BITMAP
38
4C
30
30
20
00
7C
FC
CC
CC
CC
CC
FE
7E
00
30
38
ENDCHAR
STARTCHAR 1F87
ENCODING 8071
SWIDTH 540 0
DWIDTH 9 0
BBX 7 17 1 -3
BITMAP
38
4C
30
30
10
00
7C
FC
CC
CC
CC
CC
FE
7E
00
30
38
ENDCHAR
STARTCHAR 1F88
ENCODING 8072
SWIDTH 540 0
DWIDTH 9 0
BBX 10 11 -1 0
BITMAP
D800
DC00
DC00
BD80
3D80
3580
2580
3F80
2780
67C0
6680
ENDCHAR
STARTCHAR 1F89
ENCODING 8073
SWIDTH 540 0
DWIDTH 9 0
BBX 11 11 -2 0
BITMAP
4C00
CE00
4E00
3EC0
1EC0
1AC0
12C0
1FC0
13C0
33E0
3340
ENDCHAR
STARTCHAR 1F8A
ENCODING 8074
SWIDTH 540 0
DWIDTH 9 0
BBX 14 11 -5 0
BITMAP
D180
D9C0
CDC0
87D8
03D8
0358
0258
03F8
0278
067C
0668
ENDCHAR
STARTCHAR 1F8B
ENCODING 8075
SWIDTH 540 0
DWIDTH 9 0
BBX 14 11 -5 0
BITMAP
D180
D9C0
4DC0
67D8
03D8
0358
0258
03F8
0278
067C
0668
ENDCHAR
STARTCHAR 1F8C
ENCODING 8076
SWIDTH 540 0
DWIDTH 9 0
BBX 13 11 -4 0
BITMAP
CB00
DB80
D380
97B0
07B0
06B0
04B0
07F0
04F0
0CF8
0CD0
ENDCHAR
STARTCHAR 1F8D
ENCODING 8077
SWIDTH 540 0
DWIDTH 9 0
BBX 14 11 -5 0
BITMAP
C580
CDC0
49C0
2BD8
03D8
0358
0258
03F8
0278
067C
0668
ENDCHAR
STARTCHAR 1F8E
ENCODING 8078
SWIDTH 540 0
DWIDTH 9 0
BBX 12 12 -3 0
BITMAP
E000
9600
6700
6700
4F60
0F60
0D60
0960
0FE0
09E0
19F0
19A0
ENDCHAR
STARTCHAR 1F8F
ENCODING 8079
SWIDTH 540 0
DWIDTH 9 0
BBX 12 12 -3 0
BITMAP
E000
9600
6700
4700
2F60
0F60
0D60
0960
0FE0
09E0
19F0
19A0
ENDCHAR
STARTCHAR 1F90
ENCODING 8080
SWIDTH 540 0
DWIDTH 9 0
BBX 7 16 1 -3
BITMAP
30
38
10
20
00
F8
FC
CC
CC
CE
CE
CE
CE
0E
CE
6E
ENDCHAR
STARTCHAR 1F91
ENCODING 8081
SWIDTH 540 0
DWIDTH 9 0
BBX 7 16 1 -3
BITMAP
30
30
30
10
00
F8
FC
CC
CC
CE
CE
CE
CE
0E
CE
6E
ENDCHAR
STARTCHAR 1F92
ENCODING 8082
SWIDTH 540 0
DWIDTH 9 0
BBX 7 16 1 -3
BITMAP
68
6C
64
44
00
F8
FC
CC
CC
CE
CE
CE
CE
0E
CE
6E
ENDCHAR
STARTCHAR 1F93
ENCODING 8083
SWIDTH 540 0
DWIDTH 9 0
BBX 7 16 1 -3
BITMAP
C8
D8
4C
24
00
F8
FC
CC
CC
CE
CE
CE
CE
0E
CE
6E
ENDCHAR
STARTCHAR 1F94
ENCODING 8084
SWIDTH 540 0
DWIDTH 9 0
BBX 7 16 1 -3
BITMAP
64
6C
68
48
00
F8
FC
CC
CC
CE
CE
CE
CE
0E
CE
6E
ENDCHAR
STARTCHAR 1F95
ENCODING 8085
SWIDTH 540 0
DWIDTH 9 0
BBX 7 16 1 -3
BITMAP
64
6C
4C
28
00
F8
FC
CC
CC
CE
CE
CE
CE
0E
CE
6E
ENDCHAR
STARTCHAR 1F96
ENCODING 8086
SWIDTH 540 0
DWIDTH 9 0
BBX 7 17 1 -3
BITMAP
38
4C
30
30
20
00
F8
FC
CC
CC
CE
CE
CE
CE
0E
CE
6E
ENDCHAR
STARTCHAR 1F97
ENCODING 8087
SWIDTH 540 0
DWIDTH 9 0
BBX 7 17 1 -3
BITMAP
38
4C
30
30
10
00
F8
FC
CC
CC
CE
CE
CE
CE
0E
CE
6E
ENDCHAR
STARTCHAR 1F98
ENCODING 8088
SWIDTH 540 0
DWIDTH 9 0
BBX 11 11 -3 0
BITMAP
7900
7900
5900
9960
1F60
1F60
1960
1960
1960
1960
1920
ENDCHAR
STARTCHAR 1F99
ENCODING 8089
SWIDTH 540 0
DWIDTH 9 0
BBX 11 11 -3 0
BITMAP
D900
D900
5900
3960
1F60
1F60
1960
1960
1960
1960
1920
ENDCHAR
STARTCHAR 1F9A
ENCODING 8090
SWIDTH 540 0
DWIDTH 9 0
BBX 14 11 -6 0
BITMAP
D320
DB20
CF20
872C
03EC
03EC
032C
032C
032C
032C
0324
ENDCHAR
STARTCHAR 1F9B
ENCODING 8091
SWIDTH 540 0
DWIDTH 9 0
BBX 14 11 -6 0
BITMAP
D320
DB20
CB20
472C
03EC
03EC
032C
032C
032C
032C
0324
ENDCHAR
STARTCHAR 1F9C
ENCODING 8092
SWIDTH 540 0
DWIDTH 9 0
BBX 14 11 -6 0
BITMAP
6B20
6F20
5B20
932C
03EC
03EC
032C
032C
032C
032C
0324
ENDCHAR
STARTCHAR 1F9D
ENCODING 8093
SWIDTH 540 0
DWIDTH 9 0
BBX 14 11 -6 0
BITMAP
CB20
CF20
DB20
532C
03EC
03EC
032C
032C
032C
032C
0324
ENDCHAR
STARTCHAR 1F9E
ENCODING 8094
SWIDTH 540 0
DWIDTH 9 0
BBX 13 12 -5 0
BITMAP
7000
8E40
2640
2640
6658
07D8
07D8
0658
0658
0658
0658
0648
ENDCHAR
STARTCHAR 1F9F
ENCODING 8095
SWIDTH 540 0
DWIDTH 9 0
BBX 13 12 -5 0
BITMAP
7000
8E40
2640
2640
3658
07D8
07D8
0658
0658
0658
0658
0648
ENDCHAR
STARTCHAR 1FA0
ENCODING 8096
SWIDTH 540 0
DWIDTH 9 0
BBX 8 16 0 -3
BITMAP
18
1C
08
10
00
22
62
63
DB
DB
DB
7F
76
00
18
0C
ENDCHAR
STARTCHAR 1FA1
ENCODING 8097
SWIDTH 540 0
DWIDTH 9 0
BBX 8 16 0 -3
BITMAP
18
18
18
08
00
22
62
63
DB
DB
DB
7F
76
00
18
0C
ENDCHAR
STARTCHAR 1FA2
ENCODING 8098
SWIDTH 540 0
DWIDTH 9 0
BBX 8 16 0 -3
BITMAP
34
36
32
22
00
22
62
63
DB
DB
DB
7F
76
00
18
0C
ENDCHAR
STARTCHAR 1FA3
ENCODING 8099
SWIDTH 540 0
DWIDTH 9 0
BBX 8 16 0 -3
BITMAP
64
6C
26
12
00
22
62
63
DB
DB
DB
7F
76
00
18
0C
ENDCHAR
STARTCHAR 1FA4
ENCODING 8100
SWIDTH 540 0
DWIDTH 9 0
BBX 8 16 0 -3
BITMAP
32
36
34
24
00
22
62
63
DB
DB
DB
7F
76
00
18
0C
ENDCHAR
STARTCHAR 1FA5
ENCODING 8101
SWIDTH 540 0
DWIDTH 9 0
BBX 8 16 0 -3
BITMAP
32
36
26
14
00
22
62
63
DB
DB
DB
7F
76
00
18
0C
ENDCHAR
STARTCHAR 1FA6
ENCODING 8102
SWIDTH 540 0
DWIDTH 9 0
BBX 8 17 0 -3
BITMAP
1C
26
18
18
10
00
22
62
63
DB
DB
DB
7F
76
00
18
0C
ENDCHAR
STARTCHAR 1FA7
ENCODING 8103
SWIDTH 540 0
DWIDTH 9 0
BBX 8 17 0 -3
BITMAP
1C
26
18
18
08
00
22
62
63
DB
DB
DB
7F
76
00
18
0C
ENDCHAR
STARTCHAR 1FA8
ENCODING 8104
SWIDTH 540 0
DWIDTH 9 0
BBX 11 11 -2 0
BITMAP
CC00
DE00
F200
B3C0
33C0
33C0
32C0
12C0
12C0
3FE0
3F40
ENDCHAR
STARTCHAR 1FA9
ENCODING 8105
SWIDTH 540 0
DWIDTH 9 0
BBX 12 11 -3 0
BITMAP
C600
CF00
D900
59E0
19E0
19E0
1960
0960
0960
1FF0
1FA0
ENDCHAR
STARTCHAR 1FAA
ENCODING 8106
SWIDTH 540 0
DWIDTH 9 0
BBX 15 11 -6 0
BITMAP
D0C0
D9E0
CB20
8B3C
033C
033C
032C
012C
012C
03FE
03F4
ENDCHAR
STARTCHAR 1FAB
ENCODING 8107
SWIDTH 540 0
DWIDTH 9 0
BBX 15 11 -6 0
BITMAP
D0C0
D9E0
CB20
4B3C
033C
033C
032C
012C
012C
03FE
03F4
ENDCHAR
STARTCHAR 1FAC
ENCODING 8108
SWIDTH 540 0
DWIDTH 9 0
BBX 14 11 -5 0
BITMAP
C980
DBC0
5E40
9678
0678
0678
0658
0258
0258
07FC
07E8
ENDCHAR
STARTCHAR 1FAD
ENCODING 8109
SWIDTH 540 0
DWIDTH 9 0
BBX 14 11 -5 0
BITMAP
8980
DBC0
9640
5678
0678
0678
0658
0258
0258
07FC
07E8
ENDCHAR
STARTCHAR 1FAE
ENCODING 8110
SWIDTH 540 0
DWIDTH 9 0
BBX 13 12 -4 0
BITMAP
F000
9300
6780
6C80
4CF0
0CF0
0CF0
0CB0
04B0
04B0
0FF8
0FD0
ENDCHAR
STARTCHAR 1FAF
ENCODING 8111
SWIDTH 540 0
DWIDTH 9 0
BBX 13 12 -4 0
BITMAP
F000
9300
6780
6C80
2CF0
0CF0
0CF0
0CB0
04B0
04B0
0FF8
0FD0
ENDCHAR
STARTCHAR 1FB0
ENCODING 8112
SWIDTH 540 0
DWIDTH 9 0
BBX 7 12 1 0
BITMAP
4C
78
00
00
7C
FC
CC
CC
CC
CC
FE
7E
ENDCHAR
STARTCHAR 1FB1
ENCODING 8113
SWIDTH 540 0
DWIDTH 9 0
BBX 7 11 1 0
BITMAP
7C
00
00
7C
FC
CC
CC
CC
CC
FE
7E
ENDCHAR
STARTCHAR 1FB2
ENCODING 8114
SWIDTH 540 0
DWIDTH 9 0
BBX 7 15 1 -3
BITMAP
20
38
08
00
7C
FC
CC
CC
CC
CC
FE
7E
00
30
38
ENDCHAR
STARTCHAR 1FB3
ENCODING 8115
SWIDTH 540 0
DWIDTH 9 0
BBX 7 11 1 -3
BITMAP
7C
FC
CC
CC
CC
CC
FE
7E
00
30
38
ENDCHAR
STARTCHAR 1FB4
ENCODING 8116
SWIDTH 540 0
DWIDTH 9 0
BBX 7 15 1 -3
BITMAP
08
38
20
00
7C
FC
CC
CC
CC
CC
FE
7E
00
30
38
ENDCHAR
STARTCHAR 1FB6
ENCODING 8118
SWIDTH 540 0
DWIDTH 9 0
BBX 7 11 1 0
BITMAP
38
6C
00
7C
FC
CC
CC
CC
CC
FE
7E
ENDCHAR
STARTCHAR 1FB7
ENCODING 8119
SWIDTH 540 0
DWIDTH 9 0
BBX 7 14 1 -3
BITMAP
38
6C
00
7C
FC
CC
CC
CC
CC
FE
7E
00
30
38
ENDCHAR
STARTCHAR 1FB8
ENCODING 8120
SWIDTH 540 0
DWIDTH 9 0
BBX 8 14 0 0
BITMAP
26
3C
00
1C
1C
3C
34
36
26
7E
7F
63
63
C3
ENDCHAR
STARTCHAR 1FB9
ENCODING 8121
SWIDTH 540 0
DWIDTH 9 0
BBX 8 13 0 0
BITMAP
3E
00
1C
1C
3C
34
36
26
7E
7F
63
63
C3
ENDCHAR
STARTCHAR 1FBA
ENCODING 8122
SWIDTH 540 0
DWIDTH 9 0
BBX 11 11 -3 0
BITMAP
4380
F380
3780
0680
06C0
04C0
0FC0
0FE0
0C60
0C60
1860
ENDCHAR
STARTCHAR 1FBB
ENCODING 8123
SWIDTH 540 0
DWIDTH 9 0
BBX 10 11 -2 0
BITMAP
2700
7700
CF00
0D00
0D80
0980
1F80
1FC0
18C0
18C0
30C0
ENDCHAR
STARTCHAR 1FBC
ENCODING 8124
SWIDTH 540 0
DWIDTH 9 0
BBX 9 11 0 0
BITMAP
3000
3800
3800
7B00
7B00
6B00
4B00
7F00
4F00
CF80
CD00
ENDCHAR
STARTCHAR 1FBD
ENCODING 8125
SWIDTH 540 0
DWIDTH 9 0
BBX 3 4 3 9
BITMAP
C0
E0
40
80
ENDCHAR
STARTCHAR 1FBE
ENCODING 8126
SWIDTH 540 0
DWIDTH 9 0
BBX 3 2 3 -3
BITMAP
C0
E0
ENDCHAR
STARTCHAR 1FBF
ENCODING 8127
SWIDTH 540 0
DWIDTH 9 0
BBX 3 4 3 9
BITMAP
C0
E0
40
80
ENDCHAR
STARTCHAR 1FC0
ENCODING 8128
SWIDTH 540 0
DWIDTH 9 0
BBX 5 2 2 9
BITMAP
F0
98
ENDCHAR
STARTCHAR 1FC1
ENCODING 8129
SWIDTH 540 0
DWIDTH 9 0
BBX 5 5 2 9
BITMAP
70
98
00
D8
D8
ENDCHAR
STARTCHAR 1FC2
ENCODING 8130
SWIDTH 540 0
DWIDTH 9 0
BBX 7 15 1 -3
BITMAP
20
38
08
00
F8
FC
CC
CC
CE
CE
CE
CE
0E
CE
6E
ENDCHAR
STARTCHAR 1FC3
ENCODING 8131
SWIDTH 540 0
DWIDTH 9 0
BBX 7 11 1 -3
BITMAP
F8
FC
CC
CC
CE
CE
CE
CE
0E
CE
6E
ENDCHAR
STARTCHAR 1FC4
ENCODING 8132
SWIDTH 540 0
DWIDTH 9 0
BBX 7 15 1 -3
BITMAP
08
3C
20
00
F8
FC
CC
CC
CE
CE
CE
CE
0E
CE
6E
ENDCHAR
STARTCHAR 1FC6
ENCODING 8134
SWIDTH 540 0
DWIDTH 9 0
BBX 7 14 1 -3
BITMAP
78
4C
00
F8
FC
CC
CC
CE
CE
CE
CE
0E
0E
0E
ENDCHAR
STARTCHAR 1FC7
ENCODING 8135
SWIDTH 540 0
DWIDTH 9 0
BBX 7 14 1 -3
BITMAP
78
4C
00
F8
FC
CC
CC
CE
CE
CE
CE
0E
CE
6E
ENDCHAR
STARTCHAR 1FC8
ENCODING 8136
SWIDTH 540 0
DWIDTH 9 0
BBX 11 11 -3 0
BITMAP
8FC0
EFC0
2C00
0C00
0FC0
0FC0
0C00
0C00
0C00
0FE0
0FE0
ENDCHAR
STARTCHAR 1FC9
ENCODING 8137
SWIDTH 540 0
DWIDTH 9 0
BBX 11 11 -3 0
BITMAP
2FC0
EFC0
CC00
0C00
0FC0
0FC0
0C00
0C00
0C00
0FE0
0FE0
ENDCHAR
STARTCHAR 1FCA
ENCODING 8138
SWIDTH 540 0
DWIDTH 9 0
BBX 12 11 -4 0
BITMAP
4630
F630
3630
0630
07F0
07F0
0630
0630
0630
0630
0630
ENDCHAR
STARTCHAR 1FCB
ENCODING 8139
SWIDTH 540 0
DWIDTH 9 0
BBX 11 11 -3 0
BITMAP
4C60
EC60
8C60
0C60
0FE0
0FE0
0C60
0C60
0C60
0C60
0C60
ENDCHAR
STARTCHAR 1FCC
ENCODING 8140
SWIDTH 540 0
DWIDTH 9 0
BBX 8 11 0 0
BITMAP
C8
C8
C8
CB
FB
FB
CB
CB
CB
CB
C9
ENDCHAR
STARTCHAR 1FCD
ENCODING 8141
SWIDTH 540 0
DWIDTH 9 0
BBX 6 4 1 9
BITMAP
68
68
4C
84
ENDCHAR
STARTCHAR 1FCE
ENCODING 8142
SWIDTH 540 0
DWIDTH 9 0
BBX 5 4 2 9
BITMAP
C8
D8
B0
A0
ENDCHAR
STARTCHAR 1FCF
ENCODING 8143
SWIDTH 540 0
DWIDTH 9 0
BBX 5 5 2 9
BITMAP
70
98
60
60
40
ENDCHAR
STARTCHAR 1FD0
ENCODING 8144
SWIDTH 540 0
DWIDTH 9 0
BBX 7 12 1 0
BITMAP
D8
70
00
00
F0
F0
30
30
30
30
3E
1E
ENDCHAR
STARTCHAR 1FD1
ENCODING 8145
SWIDTH 540 0
DWIDTH 9 0
BBX 7 11 1 0
BITMAP
F8
00
00
F0
F0
30
30
30
30
3E
1E
ENDCHAR
STARTCHAR 1FD2
ENCODING 8146
SWIDTH 540 0
DWIDTH 9 0
BBX 8 13 0 0
BITMAP
10
10
FE
CE
00
78
78
18
18
18
18
1F
0F
ENDCHAR
STARTCHAR 1FD3
ENCODING 8147
SWIDTH 540 0
DWIDTH 9 0
BBX 8 13 0 0
BITMAP
08
08
FE
D6
00
78
78
18
18
18
18
1F
0F
ENDCHAR
STARTCHAR 1FD6
ENCODING 8150
SWIDTH 540 0
DWIDTH 9 0
BBX 7 11 1 0
BITMAP
70
D8
00
F0
F0
30
30
30
30
3E
1E
ENDCHAR
STARTCHAR 1FD7
ENCODING 8151
SWIDTH 540 0
DWIDTH 9 0
BBX 7 14 1 0
BITMAP
70
C8
00
D8
D8
00
F0
F0
30
30
30
30
3E
1E
ENDCHAR
STARTCHAR 1FD8
ENCODING 8152
SWIDTH 540 0
DWIDTH 9 0
BBX 7 14 1 0
BITMAP
4C
78
00
FE
FE
30
30
30
30
30
30
30
FE
FE
ENDCHAR
STARTCHAR 1FD9
ENCODING 8153
SWIDTH 540 0
DWIDTH 9 0
BBX 7 13 1 0
BITMAP
7C
00
FE
FE
30
30
30
30
30
30
30
FE
FE
ENDCHAR
STARTCHAR 1FDA
ENCODING 8154
SWIDTH 540 0
DWIDTH 9 0
BBX 12 11 -4 0
BITMAP
47F0
E7F0
3180
0180
0180
0180
0180
0180
0180
07F0
07F0
ENDCHAR
STARTCHAR 1FDB
ENCODING 8155
SWIDTH 540 0
DWIDTH 9 0
BBX 11 11 -3 0
BITMAP
4FE0
EFE0
8300
0300
0300
0300
0300
0300
0300
0FE0
0FE0
ENDCHAR
STARTCHAR 1FDD
ENCODING 8157
SWIDTH 540 0
DWIDTH 9 0
BBX 6 4 1 9
BITMAP
C8
D8
4C
24
ENDCHAR
STARTCHAR 1FDE
ENCODING 8158
SWIDTH 540 0
DWIDTH 9 0
BBX 6 4 1 9
BITMAP
C4
CC
48
70
ENDCHAR
STARTCHAR 1FDF
ENCODING 8159
SWIDTH 540 0
DWIDTH 9 0
BBX 5 5 2 9
BITMAP
70
98
60
60
20
ENDCHAR
STARTCHAR 1FE0
ENCODING 8160
SWIDTH 540 0
DWIDTH 9 0
BBX 7 12 1 0
BITMAP
4C
78
00
00
CE
CE
CE
CE
CE
CE
FC
78
ENDCHAR
STARTCHAR 1FE1
ENCODING 8161
SWIDTH 540 0
DWIDTH 9 0
BBX 7 11 1 0
BITMAP
7C
00
00
CE
CE
CE
CE
CE
CE
FC
78
ENDCHAR
STARTCHAR 1FE2
ENCODING 8162
SWIDTH 540 0
DWIDTH 9 0
BBX 7 13 1 0
BITMAP
20
30
D6
D6
00
CE
CE
CE
CE
CE
CE
FC
78
ENDCHAR
STARTCHAR 1FE3
ENCODING 8163
SWIDTH 540 0
DWIDTH 9 0
BBX 7 13 1 0
BITMAP
10
10
F6
E6
00
CE
CE
CE
CE
CE
CE
FC
78
ENDCHAR
STARTCHAR 1FE4
ENCODING 8164
SWIDTH 540 0
DWIDTH 9 0
BBX 7 16 1 -3
BITMAP
30
38
10
20
00
38
7C
C6
C6
C6
CE
FC
F8
C0
C0
C0
ENDCHAR
STARTCHAR 1FE5
ENCODING 8165
SWIDTH 540 0
DWIDTH 9 0
BBX 7 16 1 -3
BITMAP
30
30
30
10
00
38
7C
C6
C6
C6
CE
FC
F8
C0
C0
C0
ENDCHAR
STARTCHAR 1FE6
ENCODING 8166
SWIDTH 540 0
DWIDTH 9 0
BBX 7 11 1 0
BITMAP
78
4C
00
CE
CE
CE
CE
CE
CE
FC
78
ENDCHAR
STARTCHAR 1FE7
ENCODING 8167
SWIDTH 540 0
DWIDTH 9 0
BBX 7 14 1 0
BITMAP
38
4C
00
6C
6C
00
CE
CE
CE
CE
CE
CE
FC
78
ENDCHAR
STARTCHAR 1FE8
ENCODING 8168
SWIDTH 540 0
DWIDTH 9 0
BBX 8 14 0 0
BITMAP
26
3C
00
E3
63
66
36
36
1C
18
18
18
18
18
ENDCHAR
STARTCHAR 1FE9
ENCODING 8169
SWIDTH 540 0
DWIDTH 9 0
BBX 8 13 0 0
BITMAP
3E
00
E3
63
66
36
36
1C
18
18
18
18
18
ENDCHAR
STARTCHAR 1FEA
ENCODING 8170
SWIDTH 540 0
DWIDTH 9 0
BBX 11 11 -3 0
BITMAP
9C60
EC60
2CC0
06C0
06C0
0380
0300
0300
0300
0300
0300
ENDCHAR
STARTCHAR 1FEB
ENCODING 8171
SWIDTH 540 0
DWIDTH 9 0
BBX 11 11 -3 0
BITMAP
5C60
EC60
8CC0
06C0
06C0
0380
0300
0300
0300
0300
0300
ENDCHAR
STARTCHAR 1FEC
ENCODING 8172
SWIDTH 540 0
DWIDTH 9 0
BBX 11 11 -3 0
BITMAP
CF80
CFE0
4C60
6C60
0C60
0FE0
0F80
0C00
0C00
0C00
0C00
ENDCHAR
STARTCHAR 1FED
ENCODING 8173
SWIDTH 540 0
DWIDTH 9 0
BBX 7 4 1 9
BITMAP
20
30
D6
D6
ENDCHAR
STARTCHAR 1FEE
ENCODING 8174
SWIDTH 540 0
DWIDTH 9 0
BBX 7 4 1 9
BITMAP
10
10
F6
E6
ENDCHAR
STARTCHAR 1FEF
ENCODING 8175
SWIDTH 540 0
DWIDTH 9 0
BBX 4 3 2 9
BITMAP
40
F0
30
ENDCHAR
STARTCHAR 1FF2
ENCODING 8178
SWIDTH 540 0
DWIDTH 9 0
BBX 8 15 0 -3
BITMAP
10
3C
0C
00
22
62
63
DB
DB
DB
7F
76
00
18
0C
ENDCHAR
STARTCHAR 1FF3
ENCODING 8179
SWIDTH 540 0
DWIDTH 9 0
BBX 8 11 0 -3
BITMAP
22
62
63
DB
DB
DB
7F
76
00
18
0C
ENDCHAR
STARTCHAR 1FF4
ENCODING 8180
SWIDTH 540 0
DWIDTH 9 0
BBX 8 15 0 -3
BITMAP
04
1E
18
00
22
62
63
DB
DB
DB
7F
76
00
18
0C
ENDCHAR
STARTCHAR 1FF6
ENCODING 8182
SWIDTH 540 0
DWIDTH 9 0
BBX 8 11 0 0
BITMAP
3C
26
00
22
62
63
DB
DB
DB
7F
76
ENDCHAR
STARTCHAR 1FF7
ENCODING 8183
SWIDTH 540 0
DWIDTH 9 0
BBX 8 14 0 -3
BITMAP
3C
26
00
22
62
63
DB
DB
DB
7F
76
00
18
0C
ENDCHAR
STARTCHAR 1FF8
ENCODING 8184
SWIDTH 540 0
DWIDTH 9 0
BBX 12 11 -4 0
BITMAP
43C0
E7E0
2670
0630
0E30
0E30
0E30
0630
0670
07E0
03C0
ENDCHAR
STARTCHAR 1FF9
ENCODING 8185
SWIDTH 540 0
DWIDTH 9 0
BBX 11 11 -3 0
BITMAP
2780
EFC0
CCE0
0C60
1C60
1C60
1C60
0C60
0CE0
0FC0
0780
ENDCHAR
STARTCHAR 1FFA
ENCODING 8186
SWIDTH 540 0
DWIDTH 9 0
BBX 12 11 -4 0
BITMAP
83C0
E7E0
6670
0E30
0C30
0C30
0C30
0630
0660
0F70
0F70
ENDCHAR
STARTCHAR 1FFB
ENCODING 8187
SWIDTH 540 0
DWIDTH 9 0
BBX 11 11 -3 0
BITMAP
6780
EFC0
8CE0
1C60
1860
1860
1860
0C60
0CC0
1EE0
1EE0
ENDCHAR
STARTCHAR 1FFC
ENCODING 8188
SWIDTH 540 0
DWIDTH 9 0
BBX 9 11 0 0
BITMAP
3000
7800
C800
CF00
CF00
CF00
CB00
4B00
4B00
FF80
FD00
ENDCHAR
STARTCHAR 1FFD
ENCODING 8189
SWIDTH 540 0
DWIDTH 9 0
BBX 3 3 3 9
BITMAP
60
E0
80
ENDCHAR
STARTCHAR 1FFE
ENCODING 8190
SWIDTH 540 0
DWIDTH 9 0
BBX 2 4 3 9
BITMAP
C0
C0
C0
40
ENDCHAR
STARTCHAR 2013
ENCODING 8211
SWIDTH 540 0
DWIDTH 9 0
BBX 7 2 1 3
BITMAP
FE
FE
ENDCHAR
STARTCHAR 2014
ENCODING 8212
SWIDTH 540 0
DWIDTH 9 0
BBX 9 2 0 3
BITMAP
FF80
FF80
ENDCHAR
STARTCHAR 2015
ENCODING 8213
SWIDTH 540 0
DWIDTH 9 0
BBX 9 2 0 3
BITMAP
FF80
FF80
ENDCHAR
STARTCHAR 2018
ENCODING 8216
SWIDTH 540 0
DWIDTH 9 0
BBX 4 5 2 7
BITMAP
30
60
60
E0
60
ENDCHAR
STARTCHAR 2019
ENCODING 8217
SWIDTH 540 0
DWIDTH 9 0
BBX 3 5 3 7
BITMAP
E0
E0
60
60
80
ENDCHAR
STARTCHAR 201A
ENCODING 8218
SWIDTH 540 0
DWIDTH 9 0
BBX 4 5 2 -3
BITMAP
70
70
70
20
C0
ENDCHAR
STARTCHAR 201C
ENCODING 8220
SWIDTH 540 0
DWIDTH 9 0
BBX 7 5 1 7
BITMAP
66
CC
8C
CC
CC
ENDCHAR
STARTCHAR 201D
ENCODING 8221
SWIDTH 540 0
DWIDTH 9 0
BBX 7 5 1 7
BITMAP
66
EE
66
44
88
ENDCHAR
STARTCHAR 201E
ENCODING 8222
SWIDTH 540 0
DWIDTH 9 0
BBX 8 5 0 -3
BITMAP
22
77
77
22
CC
ENDCHAR
STARTCHAR 2020
ENCODING 8224
SWIDTH 540 0
DWIDTH 9 0
BBX 6 13 1 -2
BITMAP
30
30
30
FC
FC
30
30
30
30
30
30
30
10
ENDCHAR
STARTCHAR 2021
ENCODING 8225
SWIDTH 540 0
DWIDTH 9 0
BBX 6 13 1 -2
BITMAP
30
30
30
FC
FC
30
30
FC
FC
30
30
30
10
ENDCHAR
STARTCHAR 2022
ENCODING 8226
SWIDTH 540 0
DWIDTH 9 0
BBX 5 5 2 3
BITMAP
70
F0
F8
F0
70
ENDCHAR
STARTCHAR 2026
ENCODING 8230
SWIDTH 540 0
DWIDTH 9 0
BBX 7 2 1 0
BITMAP
B6
B6
ENDCHAR
STARTCHAR 2030
ENCODING 8240
SWIDTH 540 0
DWIDTH 9 0
BBX 8 11 0 0
BITMAP
60
A0
A1
E6
18
60
33
75
5D
75
33
ENDCHAR
STARTCHAR 2039
ENCODING 8249
SWIDTH 540 0
DWIDTH 9 0
BBX 3 8 3 0
BITMAP
60
60
E0
C0
C0
E0
60
60
ENDCHAR
STARTCHAR 203A
ENCODING 8250
SWIDTH 540 0
DWIDTH 9 0
BBX 4 8 3 1
BITMAP
C0
C0
E0
70
70
E0
C0
C0
ENDCHAR
STARTCHAR 2044
ENCODING 8260
SWIDTH 540 0
DWIDTH 9 0
BBX 7 11 1 0
BITMAP
06
04
0C
18
18
30
30
60
40
C0
80
ENDCHAR
STARTCHAR 2070
ENCODING 8304
SWIDTH 540 0
DWIDTH 9 0
BBX 5 7 2 5
BITMAP
70
D0
98
B8
98
D0
70
ENDCHAR
STARTCHAR 2074
ENCODING 8308
SWIDTH 540 0
DWIDTH 9 0
BBX 4 6 2 5
BITMAP
30
70
F0
B0
F0
30
ENDCHAR
STARTCHAR 2075
ENCODING 8309
SWIDTH 540 0
DWIDTH 9 0
BBX 4 6 2 5
BITMAP
70
C0
F0
10
F0
F0
ENDCHAR
STARTCHAR 2076
ENCODING 8310
SWIDTH 540 0
DWIDTH 9 0
BBX 4 6 2 5
BITMAP
70
C0
F0
90
90
F0
ENDCHAR
STARTCHAR 2077
ENCODING 8311
SWIDTH 540 0
DWIDTH 9 0
BBX 4 6 2 5
BITMAP
F0
30
20
60
60
60
ENDCHAR
STARTCHAR 2078
ENCODING 8312
SWIDTH 540 0
DWIDTH 9 0
BBX 5 6 2 5
BITMAP
70
D8
F0
F0
98
F0
ENDCHAR
STARTCHAR 2079
ENCODING 8313
SWIDTH 540 0
DWIDTH 9 0
BBX 5 6 2 5
BITMAP
70
D8
D8
78
10
60
ENDCHAR
STARTCHAR 2080
ENCODING 8320
SWIDTH 540 0
DWIDTH 9 0
BBX 5 7 2 0
BITMAP
70
D0
98
B8
98
D0
70
ENDCHAR
STARTCHAR 2081
ENCODING 8321
SWIDTH 540 0
DWIDTH 9 0
BBX 5 6 2 0
BITMAP
30
F0
30
30
30
F8
ENDCHAR
STARTCHAR 2082
ENCODING 8322
SWIDTH 540 0
DWIDTH 9 0
BBX 5 6 2 0
BITMAP
F0
90
30
60
E0
F8
ENDCHAR
STARTCHAR 2083
ENCODING 8323
SWIDTH 540 0
DWIDTH 9 0
BBX 5 6 2 0
BITMAP
F0
90
70
10
98
F0
ENDCHAR
STARTCHAR 2084
ENCODING 8324
SWIDTH 540 0
DWIDTH 9 0
BBX 4 6 2 0
BITMAP
30
70
F0
B0
F0
30
ENDCHAR
STARTCHAR 2085
ENCODING 8325
SWIDTH 540 0
DWIDTH 9 0
BBX 4 6 2 0
BITMAP
70
C0
F0
10
F0
F0
ENDCHAR
STARTCHAR 2086
ENCODING 8326
SWIDTH 540 0
DWIDTH 9 0
BBX 4 6 2 0
BITMAP
70
C0
F0
90
90
F0
ENDCHAR
STARTCHAR 2087
ENCODING 8327
SWIDTH 540 0
DWIDTH 9 0
BBX 4 6 2 0
BITMAP
F0
30
20
60
60
60
ENDCHAR
STARTCHAR 2088
ENCODING 8328
SWIDTH 540 0
DWIDTH 9 0
BBX 5 6 2 0
BITMAP
70
D8
F0
F0
98
F0
ENDCHAR
STARTCHAR 2089
ENCODING 8329
SWIDTH 540 0
DWIDTH 9 0
BBX 5 6 2 0
BITMAP
70
D8
D8
78
10
60
ENDCHAR
STARTCHAR 20AC
ENCODING 8364
SWIDTH 540 0
DWIDTH 9 0
BBX 7 11 1 0
BITMAP
1E
3E
70
60
FC
E0
F8
60
70
3E
1E
ENDCHAR
STARTCHAR 20AE
ENCODING 8366
SWIDTH 540 0
DWIDTH 9 0
BBX 8 11 0 0
BITMAP
FF
FF
18
1E
1E
78
3E
1E
78
38
18
ENDCHAR
STARTCHAR 20B4
ENCODING 8372
SWIDTH 540 0
DWIDTH 9 0
BBX 8 11 0 0
BITMAP
3C
7E
46
06
FF
1C
38
FF
62
7F
3E
ENDCHAR
STARTCHAR 20B9
ENCODING 8377
SWIDTH 540 0
DWIDTH 9 0
BBX 7 11 1 0
BITMAP
FE
FE
1C
FE
FE
18
F8
C0
60
30
18
ENDCHAR
STARTCHAR 2113
ENCODING 8467
SWIDTH 540 0
DWIDTH 9 0
BBX 6 12 1 0
BITMAP
38
24
24
64
6C
68
78
70
60
E0
24
3C
ENDCHAR
STARTCHAR 2116
ENCODING 8470
SWIDTH 540 0
DWIDTH 9 0
BBX 8 11 0 0
BITMAP
DB
DD
DD
DD
FD
FB
F8
FF
DF
D8
D8
ENDCHAR
STARTCHAR 2122
ENCODING 8482
SWIDTH 540 0
DWIDTH 9 0
BBX 8 5 0 6
BITMAP
E9
4F
4F
4D
49
ENDCHAR
STARTCHAR 2126
ENCODING 8486
SWIDTH 540 0
DWIDTH 9 0
BBX 8 11 0 0
BITMAP
3C
7E
67
E3
C3
C3
C3
63
66
F7
F7
ENDCHAR
STARTCHAR 212E
ENCODING 8494
SWIDTH 540 0
DWIDTH 9 0
BBX 8 7 0 0
BITMAP
3E
42
41
FF
40
40
3C
ENDCHAR
STARTCHAR 2153
ENCODING 8531
SWIDTH 540 0
DWIDTH 9 0
BBX 8 11 0 0
BITMAP
62
E6
E4
6C
68
18
10
37
23
61
47
ENDCHAR
STARTCHAR 2154
ENCODING 8532
SWIDTH 540 0
DWIDTH 9 0
BBX 8 11 0 0
BITMAP
E3
B6
66
C4
FC
08
18
17
33
21
67
ENDCHAR
STARTCHAR 2155
ENCODING 8533
SWIDTH 540 0
DWIDTH 9 0
BBX 8 11 0 0
BITMAP
63
E6
E6
6C
6C
18
18
37
37
61
67
ENDCHAR
STARTCHAR 2156
ENCODING 8534
SWIDTH 540 0
DWIDTH 9 0
BBX 8 11 0 0
BITMAP
E3
32
66
C4
FC
08
18
17
37
21
67
ENDCHAR
STARTCHAR 2157
ENCODING 8535
SWIDTH 540 0
DWIDTH 9 0
BBX 8 11 0 0
BITMAP
E3
32
66
34
FC
08
18
17
37
21
67
ENDCHAR
STARTCHAR 2158
ENCODING 8536
SWIDTH 540 0
DWIDTH 9 0
BBX 8 11 0 0
BITMAP
63
62
E6
F4
2C
08
18
17
37
31
67
ENDCHAR
STARTCHAR 2159
ENCODING 8537
SWIDTH 540 0
DWIDTH 9 0
BBX 8 11 0 0
BITMAP
62
E6
E6
6C
6C
18
18
37
37
6D
67
ENDCHAR
STARTCHAR 215A
ENCODING 8538
SWIDTH 540 0
DWIDTH 9 0
BBX 8 11 0 0
BITMAP
73
66
36
3C
EC
18
18
17
36
2D
67
ENDCHAR
STARTCHAR 215B
ENCODING 8539
SWIDTH 540 0
DWIDTH 9 0
BBX 8 11 0 0
BITMAP
62
E6
E4
6C
68
18
10
37
27
6D
47
ENDCHAR
STARTCHAR 215C
ENCODING 8540
SWIDTH 540 0
DWIDTH 9 0
BBX 8 11 0 0
BITMAP
E3
36
66
3C
EC
18
18
37
37
65
67
ENDCHAR
STARTCHAR 215D
ENCODING 8541
SWIDTH 540 0
DWIDTH 9 0
BBX 8 11 0 0
BITMAP
73
46
66
3C
EC
18
18
37
37
65
67
ENDCHAR
STARTCHAR 215E
ENCODING 8542
SWIDTH 540 0
DWIDTH 9 0
BBX 7 11 1 0
BITMAP
E4
4C
48
D8
90
30
20
6E
4E
CA
8E
ENDCHAR
STARTCHAR 2202
ENCODING 8706
SWIDTH 540 0
DWIDTH 9 0
BBX 7 12 1 0
BITMAP
F8
FC
0C
06
7E
FE
C6
86
8C
CC
FC
78
ENDCHAR
STARTCHAR 2206
ENCODING 8710
SWIDTH 540 0
DWIDTH 9 0
BBX 8 11 0 0
BITMAP
1C
1C
3C
34
36
26
66
67
63
7F
FF
ENDCHAR
STARTCHAR 220F
ENCODING 8719
SWIDTH 540 0
DWIDTH 9 0
BBX 7 13 1 -2
BITMAP
FE
FE
C6
C6
C6
C6
C6
C6
C6
C6
C6
C6
C6
ENDCHAR
STARTCHAR 2211
ENCODING 8721
SWIDTH 540 0
DWIDTH 9 0
BBX 7 13 1 -2
BITMAP
FE
FE
C0
60
30
30
18
30
60
60
C0
FE
FE
ENDCHAR
STARTCHAR 2212
ENCODING 8722
SWIDTH 540 0
DWIDTH 9 0
BBX 7 2 1 3
BITMAP
FE
FE
ENDCHAR
STARTCHAR 2215
ENCODING 8725
SWIDTH 540 0
DWIDTH 9 0
BBX 7 11 1 0
BITMAP
06
04
0C
18
18
30
30
60
40
C0
80
ENDCHAR
STARTCHAR 2219
ENCODING 8729
SWIDTH 540 0
DWIDTH 9 0
BBX 2 2 3 4
BITMAP
C0
C0
ENDCHAR
STARTCHAR 221A
ENCODING 8730
SWIDTH 540 0
DWIDTH 9 0
BBX 8 12 0 0
BITMAP
03
03
03
06
06
26
E6
7C
3C
3C
18
18
ENDCHAR
STARTCHAR 221E
ENCODING 8734
SWIDTH 540 0
DWIDTH 9 0
BBX 8 6 0 1
BITMAP
76
FF
D9
D9
FF
76
ENDCHAR
STARTCHAR 222B
ENCODING 8747
SWIDTH 540 0
DWIDTH 9 0
BBX 7 15 1 -3
BITMAP
1E
1E
38
30
30
30
30
30
30
30
30
30
30
F0
E0
ENDCHAR
STARTCHAR 2248
ENCODING 8776
SWIDTH 540 0
DWIDTH 9 0
BBX 8 7 0 1
BITMAP
71
7F
CE
00
71
7F
CE
ENDCHAR
STARTCHAR 2260
ENCODING 8800
SWIDTH 540 0
DWIDTH 9 0
BBX 7 9 1 0
BITMAP
04
0C
FE
FE
10
30
FE
FE
40
ENDCHAR
STARTCHAR 2264
ENCODING 8804
SWIDTH 540 0
DWIDTH 9 0
BBX 7 9 1 0
BITMAP
04
3E
F0
F0
7E
0E
00
FE
FE
ENDCHAR
STARTCHAR 2265
ENCODING 8805
SWIDTH 540 0
DWIDTH 9 0
BBX 7 9 1 0
BITMAP
C0
F8
1E
1E
F8
E0
00
FE
FE
ENDCHAR
STARTCHAR 2500
ENCODING 9472
SWIDTH 540 0
DWIDTH 9 0
BBX 9 1 0 5
BITMAP
FF80
ENDCHAR
STARTCHAR 2502
ENCODING 9474
SWIDTH 540 0
DWIDTH 9 0
BBX 1 17 4 -3
BITMAP
80
80
80
80
80
80
80
80
80
80
80
80
80
80
80
80
80
ENDCHAR
STARTCHAR 250C
ENCODING 9484
SWIDTH 540 0
DWIDTH 9 0
BBX 5 9 4 -3
BITMAP
F8
80
80
80
80
80
80
80
80
ENDCHAR
STARTCHAR 2510
ENCODING 9488
SWIDTH 540 0
DWIDTH 9 0
BBX 5 9 0 -3
BITMAP
F8
08
08
08
08
08
08
08
08
ENDCHAR
STARTCHAR 2514
ENCODING 9492
SWIDTH 540 0
DWIDTH 9 0
BBX 5 9 4 5
BITMAP
80
80
80
80
80
80
80
80
F8
ENDCHAR
STARTCHAR 2518
ENCODING 9496
SWIDTH 540 0
DWIDTH 9 0
BBX 5 9 0 5
BITMAP
08
08
08
08
08
08
08
08
F8
ENDCHAR
STARTCHAR 251C
ENCODING 9500
SWIDTH 540 0
DWIDTH 9 0
BBX 5 17 4 -3
BITMAP
80
80
80
80
80
80
80
80
F8
80
80
80
80
80
80
80
80
ENDCHAR
STARTCHAR 2524
ENCODING 9508
SWIDTH 540 0
DWIDTH 9 0
BBX 5 17 0 -3
BITMAP
08
08
08
08
08
08
08
08
F8
08
08
08
08
08
08
08
08
ENDCHAR
STARTCHAR 252C
ENCODING 9516
SWIDTH 540 0
DWIDTH 9 0
BBX 9 9 0 -3
BITMAP
FF80
0800
0800
0800
0800
0800
0800
0800
0800
ENDCHAR
STARTCHAR 2534
ENCODING 9524
SWIDTH 540 0
DWIDTH 9 0
BBX 9 9 0 5
BITMAP
0800
0800
0800
0800
0800
0800
0800
0800
FF80
ENDCHAR
STARTCHAR 253C
ENCODING 9532
SWIDTH 540 0
DWIDTH 9 0
BBX 9 17 0 -3
BITMAP
0800
0800
0800
0800
0800
0800
0800
0800
FF80
0800
0800
0800
0800
0800
0800
0800
0800
ENDCHAR
STARTCHAR 2550
ENCODING 9552
SWIDTH 540 0
DWIDTH 9 0
BBX 9 3 0 5
BITMAP
FF80
0000
FF80
ENDCHAR
STARTCHAR 2551
ENCODING 9553
SWIDTH 540 0
DWIDTH 9 0
BBX 4 17 2 -3
BITMAP
D0
D0
D0
D0
D0
D0
D0
D0
D0
D0
D0
D0
D0
D0
D0
D0
D0
ENDCHAR
STARTCHAR 2552
ENCODING 9554
SWIDTH 540 0
DWIDTH 9 0
BBX 5 9 4 -3
BITMAP
F8
00
F8
80
80
80
80
80
80
ENDCHAR
STARTCHAR 2553
ENCODING 9555
SWIDTH 540 0
DWIDTH 9 0
BBX 7 9 2 -3
BITMAP
DE
D0
D0
D0
D0
D0
D0
D0
D0
ENDCHAR
STARTCHAR 2554
ENCODING 9556
SWIDTH 540 0
DWIDTH 9 0
BBX 7 10 2 -3
BITMAP
FE
FE
C0
DE
D0
D0
D0
D0
D0
D0
ENDCHAR
STARTCHAR 2555
ENCODING 9557
SWIDTH 540 0
DWIDTH 9 0
BBX 5 9 0 -3
BITMAP
F8
00
F8
08
08
08
08
08
08
ENDCHAR
STARTCHAR 2556
ENCODING 9558
SWIDTH 540 0
DWIDTH 9 0
BBX 6 9 0 -3
BITMAP
F4
34
34
34
34
34
34
34
34
ENDCHAR
STARTCHAR 2557
ENCODING 9559
SWIDTH 540 0
DWIDTH 9 0
BBX 6 10 0 -3
BITMAP
FC
FC
04
F4
34
34
34
34
34
34
ENDCHAR
STARTCHAR 2558
ENCODING 9560
SWIDTH 540 0
DWIDTH 9 0
BBX 5 9 4 5
BITMAP
80
80
80
80
80
80
F8
00
F8
ENDCHAR
STARTCHAR 2559
ENCODING 9561
SWIDTH 540 0
DWIDTH 9 0
BBX 7 9 2 5
BITMAP
D0
D0
D0
D0
D0
D0
D0
D0
DE
ENDCHAR
STARTCHAR 255A
ENCODING 9562
SWIDTH 540 0
DWIDTH 9 0
BBX 7 10 2 4
BITMAP
D0
D0
D0
D0
D0
D0
DE
C0
C0
FE
ENDCHAR
STARTCHAR 255B
ENCODING 9563
SWIDTH 540 0
DWIDTH 9 0
BBX 5 9 0 5
BITMAP
08
08
08
08
08
08
F8
00
F8
ENDCHAR
STARTCHAR 255C
ENCODING 9564
SWIDTH 540 0
DWIDTH 9 0
BBX 6 9 0 5
BITMAP
34
34
34
34
34
34
34
34
F4
ENDCHAR
STARTCHAR 255D
ENCODING 9565
SWIDTH 540 0
DWIDTH 9 0
BBX 6 10 0 4
BITMAP
34
34
34
34
34
34
F4
04
04
FC
ENDCHAR
STARTCHAR 255E
ENCODING 9566
SWIDTH 540 0
DWIDTH 9 0
BBX 5 17 4 -3
BITMAP
80
80
80
80
80
80
F8
00
00
F8
80
80
80
80
80
80
80
ENDCHAR
STARTCHAR 255F
ENCODING 9567
SWIDTH 540 0
DWIDTH 9 0
BBX 7 17 2 -3
BITMAP
D0
D0
D0
D0
D0
D0
D0
D0
DE
D0
D0
D0
D0
D0
D0
D0
D0
ENDCHAR
STARTCHAR 2560
ENCODING 9568
SWIDTH 540 0
DWIDTH 9 0
BBX 7 17 2 -3
BITMAP
D0
D0
D0
D0
D0
D0
DE
C0
DE
D0
D0
D0
D0
D0
D0
D0
D0
ENDCHAR
STARTCHAR 2561
ENCODING 9569
SWIDTH 540 0
DWIDTH 9 0
BBX 5 17 0 -3
BITMAP
08
08
08
08
08
08
08
F8
00
F8
08
08
08
08
08
08
08
ENDCHAR
STARTCHAR 2562
ENCODING 9570
SWIDTH 540 0
DWIDTH 9 0
BBX 6 17 0 -3
BITMAP
34
34
34
34
34
34
34
34
F4
34
34
34
34
34
34
34
34
ENDCHAR
STARTCHAR 2563
ENCODING 9571
SWIDTH 540 0
DWIDTH 9 0
BBX 6 17 0 -3
BITMAP
34
34
34
34
34
34
F4
04
F4
34
34
34
34
34
34
34
34
ENDCHAR
STARTCHAR 2564
ENCODING 9572
SWIDTH 540 0
DWIDTH 9 0
BBX 9 9 0 -3
BITMAP
FF80
0000
FF80
0800
0800
0800
0800
0800
0800
ENDCHAR
STARTCHAR 2565
ENCODING 9573
SWIDTH 540 0
DWIDTH 9 0
BBX 9 9 0 -3
BITMAP
FF80
3400
3400
3400
3400
3400
3400
3400
3400
ENDCHAR
STARTCHAR 2566
ENCODING 9574
SWIDTH 540 0
DWIDTH 9 0
BBX 9 10 0 -3
BITMAP
FF80
FF80
0000
F780
3400
3400
3400
3400
3400
3400
ENDCHAR
STARTCHAR 2567
ENCODING 9575
SWIDTH 540 0
DWIDTH 9 0
BBX 9 9 0 5
BITMAP
0800
0800
0800
0800
0800
0800
FF80
0000
FF80
ENDCHAR
STARTCHAR 2568
ENCODING 9576
SWIDTH 540 0
DWIDTH 9 0
BBX 9 9 0 5
BITMAP
3400
3400
3400
3400
3400
3400
3400
3400
FF80
ENDCHAR
STARTCHAR 2569
ENCODING 9577
SWIDTH 540 0
DWIDTH 9 0
BBX 9 9 0 5
BITMAP
3400
3400
3400
3400
3400
3400
F780
0000
FF80
ENDCHAR
STARTCHAR 256A
ENCODING 9578
SWIDTH 540 0
DWIDTH 9 0
BBX 9 17 0 -3
BITMAP
0800
0800
0800
0800
0800
0800
FF80
0800
FF80
0800
0800
0800
0800
0800
0800
0800
0800
ENDCHAR
STARTCHAR 256B
ENCODING 9579
SWIDTH 540 0
DWIDTH 9 0
BBX 9 17 0 -3
BITMAP
3400
3400
3400
3400
3400
3400
3400
3400
FF80
FF80
3400
3400
3400
3400
3400
3400
3400
ENDCHAR
STARTCHAR 256C
ENCODING 9580
SWIDTH 540 0
DWIDTH 9 0
BBX 9 17 0 -3
BITMAP
3400
3400
3400
3400
3400
3400
F780
0000
F780
3400
3400
3400
3400
3400
3400
3400
3400
ENDCHAR
STARTCHAR 2588
ENCODING 9608
SWIDTH 540 0
DWIDTH 9 0
BBX 9 17 0 -3
BITMAP
FF80
FF80
FF80
FF80
FF80
FF80
FF80
FF80
FF80
FF80
FF80
FF80
FF80
FF80
FF80
FF80
FF80
ENDCHAR
STARTCHAR 2591
ENCODING 9617
SWIDTH 540 0
DWIDTH 9 0
BBX 9 15 0 -2
BITMAP
8480
4800
0000
0000
4800
8480
0000
0000
8480
4800
0000
0000
4800
8480
4800
ENDCHAR
STARTCHAR 2592
ENCODING 9618
SWIDTH 540 0
DWIDTH 9 0
BBX 9 15 0 -2
BITMAP
CC80
3300
0000
0000
3300
CC80
0000
0000
CC80
3300
0000
0000
3300
CC80
3300
ENDCHAR
STARTCHAR 2593
ENCODING 9619
SWIDTH 540 0
DWIDTH 9 0
BBX 9 17 0 -3
BITMAP
FF80
FF80
FF80
EE80
FF80
FF80
FF80
EE80
FF80
FF80
FF80
EE80
FF80
FF80
FF80
EE80
DD80
ENDCHAR
STARTCHAR 25CA
ENCODING 9674
SWIDTH 540 0
DWIDTH 9 0
BBX 8 11 0 0
BITMAP
08
18
3C
36
66
E3
66
36
3C
18
08
ENDCHAR
STARTCHAR E0FF
ENCODING 57599
SWIDTH 540 0
DWIDTH 9 0
BBX 7 7 1 5
BITMAP
38
7C
F4
FE
EC
74
38
ENDCHAR
STARTCHAR EFFD
ENCODING 61437
SWIDTH 540 0
DWIDTH 9 0
BBX 10 12 0 0
BITMAP
7000
DBC0
CEC0
EBC0
CAC0
DE40
73C0
0000
0000
0C00
0E00
0C00
ENDCHAR
STARTCHAR F000
ENCODING 61440
SWIDTH 540 0
DWIDTH 9 0
BBX 14 11 -3 0
BITMAP
7C7C
0000
0204
8284
0000
7C7C
0000
0204
0204
0000
7C7C
ENDCHAR
STARTCHAR F001
ENCODING 61441
SWIDTH 540 0
DWIDTH 9 0
BBX 8 12 0 0
BITMAP
3B
3B
60
60
FB
FB
63
63
63
63
63
63
ENDCHAR
STARTCHAR F002
ENCODING 61442
SWIDTH 540 0
DWIDTH 9 0
BBX 8 12 0 0
BITMAP
3B
3B
63
63
FB
FB
63
63
63
63
63
61
ENDCHAR
STARTCHAR F506
ENCODING 62726
SWIDTH 540 0
DWIDTH 9 0
BBX 9 11 0 0
BITMAP
6300
E600
E600
6C00
6C00
1800
1800
1780
3100
2200
6200
ENDCHAR
STARTCHAR F507
ENCODING 62727
SWIDTH 540 0
DWIDTH 9 0
BBX 9 11 0 0
BITMAP
E300
3200
6600
C400
FC00
0800
1800
1780
3100
2200
6200
ENDCHAR
STARTCHAR F508
ENCODING 62728
SWIDTH 540 0
DWIDTH 9 0
BBX 9 11 0 0
BITMAP
E300
3600
6600
3400
FC00
0800
1800
1780
3100
2200
6200
ENDCHAR
STARTCHAR F509
ENCODING 62729
SWIDTH 540 0
DWIDTH 9 0
BBX 9 11 0 0
BITMAP
6300
6200
A600
F400
2C00
0800
1800
1780
3100
2200
6200
ENDCHAR
STARTCHAR F50A
ENCODING 62730
SWIDTH 540 0
DWIDTH 9 0
BBX 9 11 0 0
BITMAP
7300
4600
6600
3400
EC00
0800
1800
1780
3100
2200
6200
ENDCHAR
STARTCHAR F50B
ENCODING 62731
SWIDTH 540 0
DWIDTH 9 0
BBX 9 11 0 0
BITMAP
7300
C600
F600
9400
6C00
0800
1800
1780
3100
2200
6200
ENDCHAR
STARTCHAR F50C
ENCODING 62732
SWIDTH 540 0
DWIDTH 9 0
BBX 8 11 0 0
BITMAP
62
E6
E4
6C
68
18
10
37
25
67
46
ENDCHAR
STARTCHAR F50D
ENCODING 62733
SWIDTH 540 0
DWIDTH 9 0
BBX 8 11 0 0
BITMAP
E3
36
66
C4
FC
08
18
17
35
23
66
ENDCHAR
STARTCHAR F50E
ENCODING 62734
SWIDTH 540 0
DWIDTH 9 0
BBX 8 11 0 0
BITMAP
63
62
A6
F4
2C
08
18
17
35
27
67
ENDCHAR
STARTCHAR F50F
ENCODING 62735
SWIDTH 540 0
DWIDTH 9 0
BBX 8 11 0 0
BITMAP
73
46
66
3C
EC
18
18
37
35
67
66
ENDCHAR
STARTCHAR F510
ENCODING 62736
SWIDTH 540 0
DWIDTH 9 0
BBX 7 11 1 0
BITMAP
EC
4C
58
D8
B0
30
60
6E
DA
CE
8C
ENDCHAR
STARTCHAR F511
ENCODING 62737
SWIDTH 540 0
DWIDTH 9 0
BBX 8 11 0 0
BITMAP
63
F6
76
9C
FC
08
18
17
35
27
67
ENDCHAR
STARTCHAR F80A
ENCODING 63498
SWIDTH 540 0
DWIDTH 9 0
BBX 5 7 2 7
BITMAP
70
D0
98
B8
98
D0
70
ENDCHAR
STARTCHAR F80B
ENCODING 63499
SWIDTH 540 0
DWIDTH 9 0
BBX 5 6 2 7
BITMAP
30
F0
30
30
30
F8
ENDCHAR
STARTCHAR F80C
ENCODING 63500
SWIDTH 540 0
DWIDTH 9 0
BBX 5 6 2 7
BITMAP
F0
90
30
60
E0
F8
ENDCHAR
STARTCHAR F80D
ENCODING 63501
SWIDTH 540 0
DWIDTH 9 0
BBX 5 6 2 7
BITMAP
F0
90
70
10
98
F0
ENDCHAR
STARTCHAR F80E
ENCODING 63502
SWIDTH 540 0
DWIDTH 9 0
BBX 4 6 2 7
BITMAP
30
70
F0
B0
F0
30
ENDCHAR
STARTCHAR F80F
ENCODING 63503
SWIDTH 540 0
DWIDTH 9 0
BBX 4 6 2 7
BITMAP
70
C0
F0
10
F0
F0
ENDCHAR
STARTCHAR F810
ENCODING 63504
SWIDTH 540 0
DWIDTH 9 0
BBX 4 6 2 7
BITMAP
70
C0
F0
90
90
F0
ENDCHAR
STARTCHAR F811
ENCODING 63505
SWIDTH 540 0
DWIDTH 9 0
BBX 4 6 2 7
BITMAP
F0
30
20
60
60
60
ENDCHAR
STARTCHAR F812
ENCODING 63506
SWIDTH 540 0
DWIDTH 9 0
BBX 5 6 2 7
BITMAP
70
D8
F0
F0
98
F0
ENDCHAR
STARTCHAR F813
ENCODING 63507
SWIDTH 540 0
DWIDTH 9 0
BBX 5 6 2 7
BITMAP
70
D8
D8
78
10
60
ENDCHAR
STARTCHAR F814
ENCODING 63508
SWIDTH 540 0
DWIDTH 9 0
BBX 5 7 2 -1
BITMAP
70
D0
98
B8
98
D0
70
ENDCHAR
STARTCHAR F815
ENCODING 63509
SWIDTH 540 0
DWIDTH 9 0
BBX 5 6 2 -1
BITMAP
30
F0
30
30
30
F8
ENDCHAR
STARTCHAR F816
ENCODING 63510
SWIDTH 540 0
DWIDTH 9 0
BBX 5 6 2 -1
BITMAP
F0
90
30
60
E0
F8
ENDCHAR
STARTCHAR F817
ENCODING 63511
SWIDTH 540 0
DWIDTH 9 0
BBX 5 6 2 -1
BITMAP
F0
90
70
10
98
F0
ENDCHAR
STARTCHAR F818
ENCODING 63512
SWIDTH 540 0
DWIDTH 9 0
BBX 4 6 2 -1
BITMAP
30
70
F0
B0
F0
30
ENDCHAR
STARTCHAR F819
ENCODING 63513
SWIDTH 540 0
DWIDTH 9 0
BBX 4 6 2 -1
BITMAP
70
C0
F0
10
F0
F0
ENDCHAR
STARTCHAR F81A
ENCODING 63514
SWIDTH 540 0
DWIDTH 9 0
BBX 4 6 2 -1
BITMAP
70
C0
F0
90
90
F0
ENDCHAR
STARTCHAR F81B
ENCODING 63515
SWIDTH 540 0
DWIDTH 9 0
BBX 4 6 2 -1
BITMAP
F0
30
20
60
60
60
ENDCHAR
STARTCHAR F81C
ENCODING 63516
SWIDTH 540 0
DWIDTH 9 0
BBX 5 6 2 -1
BITMAP
70
D8
F0
F0
98
F0
ENDCHAR
STARTCHAR F81D
ENCODING 63517
SWIDTH 540 0
DWIDTH 9 0
BBX 5 6 2 -1
BITMAP
70
D8
D8
78
10
60
ENDCHAR
STARTCHAR FB01
ENCODING 64257
SWIDTH 540 0
DWIDTH 9 0
BBX 8 12 0 0
BITMAP
3B
3B
60
60
FB
FB
63
63
63
63
63
63
ENDCHAR
STARTCHAR FB02
ENCODING 64258
SWIDTH 540 0
DWIDTH 9 0
BBX 8 12 0 0
BITMAP
3B
3B
63
63
FB
FB
63
63
63
63
63
61
ENDCHAR
STARTCHAR FFFD
ENCODING 65533
SWIDTH 540 0
DWIDTH 9 0
BBX 7 8 1 0
BITMAP
10
38
54
F6
EE
7C
28
10
ENDCHAR
ENDFONT
